<svg version="1.2" xmlns="http://www.w3.org/2000/svg" viewBox="0 0 321 65" width="80" height="16">
	<title>44195-svg</title>
	<style>
		.s0 { fill: #254254 } 
		.s1 { fill: #008096 } 
		.s2 { fill: #29516a } 
		.s3 { fill: #f2736d } 
		.s4 { fill: #e4355c } 
		.s5 { fill: #162d38 } 
		.s6 { fill: #466480 } 
		.s7 { fill: #3b5972 } 
		.s8 { fill: #4f6d8c } 
		.s9 { fill: #36556e } 
		.s10 { fill: #5c789a } 
		.s11 { fill: #396384 } 
		.s12 { fill: #274152 } 
		.s13 { fill: #04090d } 
		.s14 { fill: #19313d } 
		.s15 { fill: #447284 } 
		.s16 { fill: #1e4559 } 
		.s17 { fill: #588399 } 
		.s18 { fill: #a5c1cc } 
		.s19 { fill: #6b99b5 } 
		.s20 { fill: #9dc0e1 } 
		.s21 { fill: #162b35 } 
		.s22 { fill: #e9f3f4 } 
		.s23 { fill: #f0f7f7 } 
		.s24 { fill: #677b88 } 
		.s25 { fill: #ec728d } 
		.s26 { fill: #f9fcfc } 
		.s27 { fill: #e66e8a } 
		.s28 { fill: #607784 } 
	</style>
	<g id="g10">
		<g id="g12">
			<path id="path14" class="s0" d="m26.4 63.2c-0.1 0.2-0.4 0.4-0.7 0.4h-18.1c-0.3 0-0.5-0.2-0.5-0.4v-14.9c0-0.4 0.3-0.7 0.6-0.7h24.1c0.4 0 0.6 0.3 0.5 0.7z"/>
			<path id="path16" class="s0" d="m38.6 42.8c0.6 2.4-1 4.4-3.5 4.4h-13.7c-2.5 0-4.6 3.1-4.6 0.7v-23.6c0-1.4 1.5-2.6 3.4-2.6h10.1c1.9 0 3.6 1.2 4 2.6z"/>
			<path id="path18" class="s1" d="m19.3 23.4h10.1c1.9 0 3.7 1.2 4 2.6l4.4 18.5q0.2 0.9 0 1.6c0.8-0.8 1.1-2 0.8-3.3l-4.3-18.5c-0.4-1.4-2.1-2.6-4-2.6h-10.1c-1.9 0-3.4 1.2-3.4 2.6 0.6-0.5 1.5-0.9 2.5-0.9z"/>
			<path id="path20" class="s2" d="m130.2 13.7c0 0.6-0.5 1.1-1.1 1.1-0.6 0-1.1-0.5-1.1-1.1v-9.4c0-0.6 0.5-1.1 1.1-1.1 0.6 0 1.1 0.5 1.1 1.1z"/>
			<path id="path22" class="s2" d="m135.9 16.5c0 0.6-0.5 1.1-1.2 1.1-0.6 0-1.1-0.5-1.1-1.1v-9.4c0-0.6 0.5-1.1 1.1-1.1 0.7 0 1.2 0.5 1.2 1.1z"/>
			<path id="path24" class="s2" d="m140 15.6c0 0.6-0.5 1.1-1.1 1.1-0.7 0-1.2-0.5-1.2-1.1v-9.4c0-0.6 0.5-1.1 1.2-1.1 0.6 0 1.1 0.5 1.1 1.1z"/>
			<path id="path26" class="s2" d="m158.8 12.6c0 0.3-0.3 0.5-0.5 0.5-0.3 0-0.5-0.2-0.5-0.5v-9.3c0-0.3 0.2-0.5 0.5-0.5 0.2 0 0.5 0.2 0.5 0.5z"/>
			<path id="path28" class="s2" d="m161.6 12.2c0 0.2-0.3 0.5-0.5 0.5-0.3 0-0.5-0.3-0.5-0.5v-9.3c0-0.3 0.2-0.5 0.5-0.5 0.2 0 0.5 0.2 0.5 0.5z"/>
			<path id="path30" class="s1" d="m167.7 27.2c0 1.9-1.6 3.5-3.6 3.5h-45.3c-1.8 0-2.9-1.5-2.6-3.3l2-13.2c0.2-1.6 1.8-3 3.4-3l42.7-1.3c1.9-0.1 3.4 1.3 3.4 3.1z"/>
			<path id="path32" class="s1" d="m319.6 47.8c0 9.2-7.4 16.7-16.6 16.7h-206.1c-9.2 0-79.2-7.5-79.2-16.7 0-9.2 70-16.6 79.2-16.6h206.1c9.2 0 16.6 7.4 16.6 16.6z"/>
			<path id="path34" class="s0" d="m103.1 31.2c3.9 4.5 13.6 7.8 24.9 7.8h20.8c11.3 0 21-3.3 24.9-7.8z"/>
			<path id="path36" class="s3" d="m24.7 42.7c-2.8 1.1-4.9 2.2-6 3.3h300.8q-0.2-1.7-0.7-3.3z"/>
			<path id="path38" class="s3" d="m172.3 31.2c-0.3-3.8-6.2-6.4-16.4-6.4h-20.6c-10.1 0-21.7 2.6-30.4 6.4z"/>
			<path id="path40" class="s2" d="m19.8 45.1c-1.3 0.9-2.1 1.8-2.1 2.7 0 9.2 70 16.7 79.2 16.7h206.1c9.2 0 16.6-7.5 16.6-16.7q0-1.4-0.2-2.7z"/>
			<path id="path42" class="s3" d="m167.2 11.3c-0.6-0.9-1.7-1.5-2.9-1.4l-42.7 1.3c-1.2 0-2.4 0.8-3 1.8z"/>
			<path id="path44" class="s0" d="m306.6 37.6c0 0.4-0.3 0.6-0.6 0.6h-26.4c-0.3 0-0.5-0.2-0.5-0.6v-0.6c0-0.4 0.2-0.6 0.5-0.6h26.4c0.3 0 0.6 0.2 0.6 0.6z"/>
			<path id="path46" class="s4" d="m303.7 38.3c0 0.3-0.3 0.5-0.6 0.5h-9.9c-0.3 0-0.6-0.2-0.6-0.5v-2c0-0.3 0.3-0.5 0.6-0.5h9.9c0.3 0 0.6 0.2 0.6 0.5z"/>
			<path id="path48" class="s0" d="m274.5 42.1c0 0.2 0.2 0.3 0.4 0.3h3.8c0.2 0 0.4-0.1 0.4-0.3v-1c0-0.2-0.2-0.4-0.4-0.4h-3.8c-0.2 0-0.4 0.2-0.4 0.4z"/>
			<path id="path50" class="s0" d="m269.2 42.1c0 0.2 0.2 0.3 0.4 0.3h3.8c0.2 0 0.4-0.1 0.4-0.3v-1c0-0.2-0.2-0.4-0.4-0.4h-3.8c-0.2 0-0.4 0.2-0.4 0.4z"/>
			<path id="path52" class="s0" d="m263.9 42.1c0 0.2 0.2 0.3 0.4 0.3h3.8c0.2 0 0.4-0.1 0.4-0.3v-1c0-0.2-0.2-0.4-0.4-0.4h-3.8c-0.2 0-0.4 0.2-0.4 0.4z"/>
			<path id="path54" class="s0" d="m258.6 42.1c0 0.2 0.2 0.3 0.4 0.3h3.8c0.2 0 0.4-0.1 0.4-0.3v-1c0-0.2-0.2-0.4-0.4-0.4h-3.8c-0.2 0-0.4 0.2-0.4 0.4z"/>
			<path id="path56" class="s0" d="m253.3 42.1c0 0.2 0.2 0.3 0.4 0.3h3.8c0.2 0 0.4-0.1 0.4-0.3v-1c0-0.2-0.2-0.4-0.4-0.4h-3.8c-0.2 0-0.4 0.2-0.4 0.4z"/>
			<path id="path58" class="s0" d="m248 42.1c0 0.2 0.2 0.3 0.4 0.3h3.8c0.2 0 0.4-0.1 0.4-0.3v-1c0-0.2-0.2-0.4-0.4-0.4h-3.8c-0.2 0-0.4 0.2-0.4 0.4z"/>
			<path id="path60" class="s0" d="m226.6 42.1c0 0.2 0.1 0.3 0.3 0.3h3.9c0.2 0 0.3-0.1 0.3-0.3v-1c0-0.2-0.1-0.4-0.3-0.4h-3.9c-0.2 0-0.3 0.2-0.3 0.4z"/>
			<path id="path62" class="s0" d="m221.3 42.1c0 0.2 0.1 0.3 0.3 0.3h3.9c0.2 0 0.3-0.1 0.3-0.3v-1c0-0.2-0.1-0.4-0.3-0.4h-3.9c-0.2 0-0.3 0.2-0.3 0.4z"/>
			<path id="path64" class="s0" d="m216 42.1c0 0.2 0.1 0.3 0.3 0.3h3.8c0.3 0 0.4-0.1 0.4-0.3v-1c0-0.2-0.1-0.4-0.4-0.4h-3.8c-0.2 0-0.3 0.2-0.3 0.4z"/>
			<path id="path66" class="s0" d="m210.7 42.1c0 0.2 0.1 0.3 0.3 0.3h3.8c0.3 0 0.4-0.1 0.4-0.3v-1c0-0.2-0.1-0.4-0.4-0.4h-3.8c-0.2 0-0.3 0.2-0.3 0.4z"/>
			<path id="path68" class="s0" d="m205.4 42.1c0 0.2 0.1 0.3 0.3 0.3h3.8c0.2 0 0.4-0.1 0.4-0.3v-1c0-0.2-0.2-0.4-0.4-0.4h-3.8c-0.2 0-0.3 0.2-0.3 0.4z"/>
			<path id="path70" class="s0" d="m200 42.1c0 0.2 0.2 0.3 0.4 0.3h3.8c0.2 0 0.4-0.1 0.4-0.3v-1c0-0.2-0.2-0.4-0.4-0.4h-3.8c-0.2 0-0.4 0.2-0.4 0.4z"/>
			<path id="path72" class="s0" d="m178.6 42.1c0 0.2 0.2 0.3 0.4 0.3h3.8c0.2 0 0.4-0.1 0.4-0.3v-1c0-0.2-0.2-0.4-0.4-0.4h-3.8c-0.2 0-0.4 0.2-0.4 0.4z"/>
			<path id="path74" class="s0" d="m173.3 42.1c0 0.2 0.2 0.3 0.4 0.3h3.8c0.2 0 0.4-0.1 0.4-0.3v-1c0-0.2-0.2-0.4-0.4-0.4h-3.8c-0.2 0-0.4 0.2-0.4 0.4z"/>
			<path id="path76" class="s0" d="m168 42.1c0 0.2 0.2 0.3 0.4 0.3h3.8c0.2 0 0.4-0.1 0.4-0.3v-1c0-0.2-0.2-0.4-0.4-0.4h-3.8c-0.2 0-0.4 0.2-0.4 0.4z"/>
			<path id="path78" class="s0" d="m162.7 42.1c0 0.2 0.2 0.3 0.4 0.3h3.8c0.2 0 0.3-0.1 0.3-0.3v-1c0-0.2-0.1-0.4-0.3-0.4h-3.8c-0.2 0-0.4 0.2-0.4 0.4z"/>
			<path id="path80" class="s0" d="m157.4 42.1c0 0.2 0.1 0.3 0.4 0.3h3.8c0.2 0 0.3-0.1 0.3-0.3v-1c0-0.2-0.1-0.4-0.3-0.4h-3.8c-0.3 0-0.4 0.2-0.4 0.4z"/>
			<path id="path82" class="s0" d="m152.1 42.1c0 0.2 0.1 0.3 0.4 0.3h3.8c0.2 0 0.3-0.1 0.3-0.3v-1c0-0.2-0.1-0.4-0.3-0.4h-3.8c-0.3 0-0.4 0.2-0.4 0.4z"/>
			<path id="path84" class="s5" d="m222.7 46.8c0 0.2 0.2 0.4 0.4 0.4h3.8c0.2 0 0.4-0.2 0.4-0.4v-0.9c0-0.2-0.2-0.4-0.4-0.4h-3.8c-0.2 0-0.4 0.2-0.4 0.4z"/>
			<path id="path86" class="s5" d="m217.4 46.8c0 0.2 0.2 0.4 0.4 0.4h3.8c0.2 0 0.4-0.2 0.4-0.4v-0.9c0-0.2-0.2-0.4-0.4-0.4h-3.8c-0.2 0-0.4 0.2-0.4 0.4z"/>
			<path id="path88" class="s5" d="m212.1 46.8c0 0.2 0.2 0.4 0.4 0.4h3.8c0.2 0 0.4-0.2 0.4-0.4v-0.9c0-0.2-0.2-0.4-0.4-0.4h-3.8c-0.2 0-0.4 0.2-0.4 0.4z"/>
			<path id="path90" class="s5" d="m206.8 46.8c0 0.2 0.2 0.4 0.4 0.4h3.8c0.2 0 0.4-0.2 0.4-0.4v-0.9c0-0.2-0.2-0.4-0.4-0.4h-3.8c-0.2 0-0.4 0.2-0.4 0.4z"/>
			<path id="path92" class="s5" d="m201.5 46.8c0 0.2 0.2 0.4 0.4 0.4h3.8c0.2 0 0.3-0.2 0.3-0.4v-0.9c0-0.2-0.1-0.4-0.3-0.4h-3.8c-0.2 0-0.4 0.2-0.4 0.4z"/>
			<path id="path94" class="s5" d="m196.2 46.8c0 0.2 0.1 0.4 0.4 0.4h3.8c0.2 0 0.3-0.2 0.3-0.4v-0.9c0-0.2-0.1-0.4-0.3-0.4h-3.8c-0.3 0-0.4 0.2-0.4 0.4z"/>
			<path id="path96" class="s5" d="m183 46.8c0 0.2 0.2 0.4 0.4 0.4h3.8c0.2 0 0.4-0.2 0.4-0.4v-0.9c0-0.2-0.2-0.4-0.4-0.4h-3.8c-0.2 0-0.4 0.2-0.4 0.4z"/>
			<path id="path98" class="s5" d="m177.7 46.8c0 0.2 0.2 0.4 0.4 0.4h3.8c0.2 0 0.4-0.2 0.4-0.4v-0.9c0-0.2-0.2-0.4-0.4-0.4h-3.8c-0.2 0-0.4 0.2-0.4 0.4z"/>
			<path id="path100" class="s5" d="m172.4 46.8c0 0.2 0.2 0.4 0.4 0.4h3.8c0.2 0 0.4-0.2 0.4-0.4v-0.9c0-0.2-0.2-0.4-0.4-0.4h-3.8c-0.2 0-0.4 0.2-0.4 0.4z"/>
			<path id="path102" class="s5" d="m167.1 46.8c0 0.2 0.2 0.4 0.4 0.4h3.8c0.2 0 0.4-0.2 0.4-0.4v-0.9c0-0.2-0.2-0.4-0.4-0.4h-3.8c-0.2 0-0.4 0.2-0.4 0.4z"/>
			<path id="path104" class="s5" d="m161.8 46.8c0 0.2 0.2 0.4 0.4 0.4h3.8c0.2 0 0.4-0.2 0.4-0.4v-0.9c0-0.2-0.2-0.4-0.4-0.4h-3.8c-0.2 0-0.4 0.2-0.4 0.4z"/>
			<path id="path106" class="s5" d="m156.5 46.8c0 0.2 0.2 0.4 0.4 0.4h3.8c0.2 0 0.4-0.2 0.4-0.4v-0.9c0-0.2-0.2-0.4-0.4-0.4h-3.8c-0.2 0-0.4 0.2-0.4 0.4z"/>
			<path id="path108" class="s5" d="m143.3 46.8c0 0.2 0.2 0.4 0.4 0.4h3.8c0.2 0 0.4-0.2 0.4-0.4v-0.9c0-0.2-0.2-0.4-0.4-0.4h-3.8c-0.2 0-0.4 0.2-0.4 0.4z"/>
			<path id="path110" class="s5" d="m138 46.8c0 0.2 0.2 0.4 0.4 0.4h3.8c0.2 0 0.4-0.2 0.4-0.4v-0.9c0-0.2-0.2-0.4-0.4-0.4h-3.8c-0.2 0-0.4 0.2-0.4 0.4z"/>
			<path id="path112" class="s5" d="m132.7 46.8c0 0.2 0.2 0.4 0.4 0.4h3.8c0.2 0 0.4-0.2 0.4-0.4v-0.9c0-0.2-0.2-0.4-0.4-0.4h-3.8c-0.2 0-0.4 0.2-0.4 0.4z"/>
			<path id="path114" class="s5" d="m127.4 46.8c0 0.2 0.2 0.4 0.4 0.4h3.8c0.2 0 0.4-0.2 0.4-0.4v-0.9c0-0.2-0.2-0.4-0.4-0.4h-3.8c-0.2 0-0.4 0.2-0.4 0.4z"/>
			<path id="path116" class="s5" d="m122.1 46.8c0 0.2 0.2 0.4 0.4 0.4h3.8c0.2 0 0.4-0.2 0.4-0.4v-0.9c0-0.2-0.2-0.4-0.4-0.4h-3.8c-0.2 0-0.4 0.2-0.4 0.4z"/>
			<path id="path118" class="s5" d="m116.8 46.8c0 0.2 0.2 0.4 0.4 0.4h3.8c0.2 0 0.4-0.2 0.4-0.4v-0.9c0-0.2-0.2-0.4-0.4-0.4h-3.8c-0.2 0-0.4 0.2-0.4 0.4z"/>
			<path id="path120" class="s0" d="m306 56.9h-225.4c-6.4 0-38.9-3-62.3-7.6 6.7 8.5 69.9 15.2 78.6 15.2h206.1c7.9 0 14.5-5.5 16.2-13-3.3 3.4-8 5.4-13.2 5.4z"/>
			<path id="path122" class="s5" d="m105.6 46.8c0 0.2 0.2 0.4 0.4 0.4h3.8c0.2 0 0.4-0.2 0.4-0.4v-0.9c0-0.2-0.2-0.4-0.4-0.4h-3.8c-0.2 0-0.4 0.2-0.4 0.4z"/>
			<path id="path124" class="s5" d="m100.3 46.8c0 0.2 0.2 0.4 0.4 0.4h3.8c0.2 0 0.4-0.2 0.4-0.4v-0.9c0-0.2-0.2-0.4-0.4-0.4h-3.8c-0.2 0-0.4 0.2-0.4 0.4z"/>
			<path id="path126" class="s5" d="m95 46.8c0 0.2 0.1 0.4 0.4 0.4h3.8c0.2 0 0.3-0.2 0.3-0.4v-0.9c0-0.2-0.1-0.4-0.3-0.4h-3.8c-0.3 0-0.4 0.2-0.4 0.4z"/>
			<path id="path128" class="s5" d="m89.7 46.8c0 0.2 0.1 0.4 0.4 0.4h3.8c0.2 0 0.3-0.2 0.3-0.4v-0.9c0-0.2-0.1-0.4-0.3-0.4h-3.8c-0.3 0-0.4 0.2-0.4 0.4z"/>
			<path id="path130" class="s5" d="m84.4 46.8c0 0.2 0.1 0.4 0.4 0.4h3.8c0.2 0 0.3-0.2 0.3-0.4v-0.9c0-0.2-0.1-0.4-0.3-0.4h-3.8c-0.3 0-0.4 0.2-0.4 0.4z"/>
			<path id="path132" class="s5" d="m79.1 46.8c0 0.2 0.1 0.4 0.3 0.4h3.9c0.2 0 0.3-0.2 0.3-0.4v-0.9c0-0.2-0.1-0.4-0.3-0.4h-3.9c-0.2 0-0.3 0.2-0.3 0.4z"/>
			<path id="path134" class="s5" d="m66.7 46.8c0 0.2 0.1 0.4 0.3 0.4h3.8c0.3 0 0.4-0.2 0.4-0.4v-0.9c0-0.2-0.1-0.4-0.4-0.4h-3.8c-0.2 0-0.3 0.2-0.3 0.4z"/>
			<path id="path136" class="s5" d="m61.4 46.8c0 0.2 0.1 0.4 0.3 0.4h3.8c0.2 0 0.4-0.2 0.4-0.4v-0.9c0-0.2-0.2-0.4-0.4-0.4h-3.8c-0.2 0-0.3 0.2-0.3 0.4z"/>
			<path id="path138" class="s5" d="m56 46.8c0 0.2 0.2 0.4 0.4 0.4h3.8c0.2 0 0.4-0.2 0.4-0.4v-0.9c0-0.2-0.2-0.4-0.4-0.4h-3.8c-0.2 0-0.4 0.2-0.4 0.4z"/>
			<path id="path140" class="s5" d="m50.7 46.8c0 0.2 0.2 0.4 0.4 0.4h3.8c0.2 0 0.4-0.2 0.4-0.4v-0.9c0-0.2-0.2-0.4-0.4-0.4h-3.8c-0.2 0-0.4 0.2-0.4 0.4z"/>
			<path id="path142" class="s5" d="m45.4 46.8c0 0.2 0.2 0.4 0.4 0.4h3.8c0.2 0 0.4-0.2 0.4-0.4v-0.9c0-0.2-0.2-0.4-0.4-0.4h-3.8c-0.2 0-0.4 0.2-0.4 0.4z"/>
			<path id="path144" class="s5" d="m40.1 46.8c0 0.2 0.2 0.4 0.4 0.4h3.8c0.2 0 0.4-0.2 0.4-0.4v-0.9c0-0.2-0.2-0.4-0.4-0.4h-3.8c-0.2 0-0.4 0.2-0.4 0.4z"/>
			<path id="path146" class="s1" d="m33.3 46h-23.6c-1.2 0-9.4 0.9-9.4 2.1 0 1.2 8.2 2.2 9.4 2.2h23.6z"/>
			<path id="path148" class="s4" d="m103.3 32.6c0 0.3-0.3 0.6-0.6 0.6h-7.1c-0.3 0-0.6-0.3-0.6-0.6v-0.3c0-0.3 0.3-0.6 0.6-0.6h7.1c0.3 0 0.6 0.3 0.6 0.6z"/>
			<path id="path150" class="s4" d="m94.5 32.6c0 0.4-0.2 0.6-0.5 0.6h-2.1c-0.3 0-0.6-0.2-0.6-0.6v-0.2c0-0.4 0.3-0.6 0.6-0.6h2.1c0.3 0 0.5 0.2 0.5 0.6z"/>
			<path id="path152" class="s4" d="m186.4 32.6c0 0.3-0.3 0.6-0.6 0.6h-7.1c-0.3 0-0.6-0.3-0.6-0.6v-0.3c0-0.3 0.3-0.6 0.6-0.6h7.1c0.3 0 0.6 0.3 0.6 0.6z"/>
			<path id="path154" class="s4" d="m177.6 32.6c0 0.4-0.2 0.6-0.5 0.6h-2.1c-0.3 0-0.6-0.2-0.6-0.6v-0.2c0-0.4 0.3-0.6 0.6-0.6h2.1c0.3 0 0.5 0.2 0.5 0.6z"/>
			<path id="path156" class="s4" d="m199.3 32.6c0 0.3-0.3 0.6-0.6 0.6h-7.1c-0.3 0-0.6-0.3-0.6-0.6v-0.3c0-0.3 0.3-0.6 0.6-0.6h7.1c0.3 0 0.6 0.3 0.6 0.6z"/>
			<path id="path158" class="s4" d="m190.6 32.6c0 0.4-0.3 0.6-0.6 0.6h-2.1c-0.3 0-0.5-0.2-0.5-0.6v-0.2c0-0.4 0.2-0.6 0.5-0.6h2.1c0.3 0 0.6 0.2 0.6 0.6z"/>
			<path id="path160" class="s4" d="m212.2 32.6c0 0.3-0.2 0.6-0.5 0.6h-7.2c-0.3 0-0.6-0.3-0.6-0.6v-0.3c0-0.3 0.3-0.6 0.6-0.6h7.2c0.3 0 0.5 0.3 0.5 0.6z"/>
			<path id="path162" class="s4" d="m203.5 32.6c0 0.4-0.3 0.6-0.6 0.6h-2.1c-0.3 0-0.5-0.2-0.5-0.6v-0.2c0-0.4 0.2-0.6 0.5-0.6h2.1c0.3 0 0.6 0.2 0.6 0.6z"/>
			<path id="path164" class="s4" d="m225.1 32.6c0 0.3-0.2 0.6-0.5 0.6h-7.2c-0.3 0-0.5-0.3-0.5-0.6v-0.3c0-0.3 0.2-0.6 0.5-0.6h7.2c0.3 0 0.5 0.3 0.5 0.6z"/>
			<path id="path166" class="s4" d="m216.4 32.6c0 0.4-0.3 0.6-0.6 0.6h-2c-0.4 0-0.6-0.2-0.6-0.6v-0.2c0-0.4 0.2-0.6 0.6-0.6h2c0.3 0 0.6 0.2 0.6 0.6z"/>
			<path id="path168" class="s0" d="m168.7-427c0 0.8-0.6 1.5-1.4 1.5h-5.1c-0.8 0-1.4-0.7-1.4-1.5v-7.2c0-0.8 0.6-1.5 1.4-1.5h5.1c0.8 0 1.4 0.7 1.4 1.5z"/>
			<path id="path170" class="s0" d="m165.1-423.2h-2.9v-5.1h2.9z"/>
			<path id="path172" class="s0" d="m130.5-412.2h-5.1l1.3-20.7h2.5z"/>
			<path id="path174" class="s0" d="m149.3-423.6h-9.9l3.7-30.3h2.5z"/>
			<path id="path176" class="s6" d="m171.2-383h-47.7v-31.7h47.7z"/>
			<path id="path178" class="s0" d="m141.3-390.5h-14.7v-5.5h14.7z"/>
			<path id="path180" class="s0" d="m158-407.4v9.2h-34.5v9.6h0.9v-8.9h34.5v-9.2h12.3v-0.7z"/>
			<path id="path182" class="s7" d="m175.9-414.5h-47v-3.5h47z"/>
			<path id="path184" class="s0" d="m175.9-417.8h-47v-1.4h47z"/>
			<path id="path186" class="s7" d="m181.1-422.5h-46.4v-1.1h46.4z"/>
			<path id="path188" class="s0" d="m181.1-423.5h-46.4v-0.4h46.4z"/>
			<path id="path190" class="s7" d="m178.4-419.2h-43.7v-2.5h43.7z"/>
			<path id="path192" class="s0" d="m178.4-421.5h-43.7v-1.1h43.7z"/>
			<path id="path194" class="s7" d="m178.9-402.8l-8.3 6.7v-8.6h8.3z"/>
			<path id="path196" class="s7" d="m118.5-414l5.5 2.5v-3.2h-5.5z"/>
			<path id="path198" class="s7" d="m118.5-411.6l5.5 2.4v-3.1h-5.5z"/>
			<path id="path200" class="s7" d="m118.5-409.3l5.5 2.5v-3.1h-5.5z"/>
			<path id="path202" fill-rule="evenodd" class="s0" d="m133.4-432.1l-3.6 3.7h-4.2l-3.6-3.7zm-0.5 0.2h-10.4l3.3 3.3h3.8z"/>
			<path id="path204" class="s0" d="m129-433.3c0 0.4-0.3 0.7-0.7 0.7-0.4 0-0.7-0.3-0.7-0.7v-3.7c0-0.4 0.3-0.7 0.7-0.7 0.4 0 0.7 0.3 0.7 0.7z"/>
			<path id="path206" class="s0" d="m138.9-451.6v-2.8h-0.9v3.7h11.3v-0.9z"/>
			<path id="path208" fill-rule="evenodd" class="s0" d="m146.8-455.2v1.3c0 0.5-0.4 0.8-0.8 0.8h-4.9c-0.5 0-0.8-0.3-0.8-0.8v-1.3c0-0.4 0.3-0.8 0.8-0.8h4.9c0.4 0 0.8 0.4 0.8 0.8zm-0.3 0c0-0.3-0.2-0.5-0.5-0.5h-4.9c-0.3 0-0.6 0.2-0.6 0.5v1.3c0 0.3 0.3 0.5 0.6 0.5h4.9c0.3 0 0.5-0.2 0.5-0.5z"/>
			<path id="path210" class="s0" d="m148.5-451h0.6v-1.5h-0.6z"/>
			<path id="path212" class="s7" d="m151-453.3c0-0.2-0.2-0.4-0.4-0.4h-3.5c-0.2 0-0.3 0.2-0.3 0.4v0.9c0 0.2 0.1 0.4 0.3 0.4h3.5c0.2 0 0.4-0.2 0.4-0.4z"/>
			<path id="path214" class="s6" d="m126.3-432.4c-0.3 0-0.6-0.3-0.6-0.7 0-0.4 0.3-0.7 0.6-0.7h3.7c0.4 0 0.7 0.3 0.7 0.7 0 0.4-0.3 0.7-0.7 0.7z"/>
			<path id="path216" class="s6" d="m122.2-431.5c-0.2 0-0.4-0.2-0.4-0.4 0-0.3 0.2-0.4 0.4-0.4h4.1c0.3 0 0.4 0.1 0.4 0.4 0 0.2-0.1 0.4-0.4 0.4z"/>
			<path id="path218" class="s6" d="m154.9-443.4h-20.9v-1.1h20.9z"/>
			<path id="path220" fill-rule="evenodd" class="s0" d="m154.8-443.4l-5.9 4.4h-9l-5.8-4.4zm-0.8 0.3h-19.1l5.1 3.8h8.8z"/>
			<path id="path222" class="s6" d="m157.8-434.8h-26.7v-1.6h26.7z"/>
			<path id="path224" fill-rule="evenodd" class="s0" d="m157.7-434.9l-7.5 5.6h-11.5l-7.5-5.6zm-1 0.3h-24.5l6.6 5h11.3z"/>
			<path id="path226" class="s6" d="m169.6-429.2c0 1-0.8 1.8-1.8 1.8h-6.4c-1.1 0-1.9-0.8-1.9-1.8v-9.2c0-1 0.8-1.8 1.9-1.8h6.4c1 0 1.8 0.8 1.8 1.8z"/>
			<path id="path228" class="s0" d="m173.7-423.5c0 0.2-0.1 0.4-0.4 0.4-0.2 0-0.3-0.2-0.3-0.4v-13.2c0-0.2 0.1-0.4 0.3-0.4 0.3 0 0.4 0.2 0.4 0.4z"/>
			<path id="path230" class="s0" d="m176.4-423.4c0 0.2-0.1 0.3-0.4 0.3-0.2 0-0.4-0.1-0.4-0.3v-10c0-0.2 0.2-0.3 0.4-0.3 0.3 0 0.4 0.1 0.4 0.3z"/>
			<path id="path232" class="s6" d="m177.6-413.1h-11.4v-3.9h11.4z"/>
			<path id="path234" class="s0" d="m177.6-413.8h-11.4v-1.6h11.4z"/>
			<path id="path236" class="s6" d="m177.6-409.3h-11.4v-3.9h11.4z"/>
			<path id="path238" class="s0" d="m177.6-410h-11.4v-1.5h11.4z"/>
			<path id="path240" class="s6" d="m177.6-405.5h-11.4v-3.9h11.4z"/>
			<path id="path242" class="s0" d="m177.6-406.2h-11.4v-1.5h11.4z"/>
			<path id="path244" class="s6" d="m476.1-369.3c-6.2 5.5-3.9 9-6.8 9h-463.5c-2.9 0-5.3-2.4-5.3-5.3v-19.5c1.5-0.8 2.4-0.5 5.3-0.5h485c0.5 0 1.1 4.1-1.2 6.6-2.9 3.1-5.8 2.9-13.5 9.7z"/>
			<path id="path246" class="s4" d="m479.8-360.1h-467.5c-4.7 0-8.5 3.7-8.8 8.3h9.4v2.4c0 1.9 1.6 3.5 3.6 3.5h4.1c2 0 3.6-1.6 3.6-3.5v-2.4h28.9c2 0 5.2 1.6 7.1 3.6l6 5.9h413.6c4.9 0 8.9-4 8.9-8.9 0-4.9-4-8.9-8.9-8.9z"/>
			<path id="path248" class="s3" d="m488.3-353.7c-1.1-3.7-4.5-6.4-8.5-6.4h-467.5c-4 0-7.4 2.7-8.5 6.4z"/>
			<path id="path250" class="s7" d="m152.6-385.6v22.6h76.9v-22.6z"/>
			<path id="path252" class="s7" d="m343.4-388.8v20.9h37.1v-20.9z"/>
			<path id="path254" class="s7" d="m67.9-385.6v22.6h30.8v-22.6z"/>
			<path id="path256" class="s7" d="m24.2-368.9h-7.1v-15.4h7.1z"/>
			<path id="path258" class="s7" d="m33.6-368.9h-7.1v-15.4h7.1z"/>
			<path id="path260" class="s7" d="m43.1-368.9h-7.1v-15.4h7.1z"/>
			<path id="path262" class="s7" d="m52.6-368.9h-7.1v-15.4h7.1z"/>
			<path id="path264" class="s7" d="m62-368.9h-7.1v-15.4h7.1z"/>
			<path id="path266" class="s0" d="m230.7-363.1c0 1.5-1.2 2.8-2.8 2.8h-224.6c-1.6 0-2.8-1.3-2.8-2.8v-0.5c0-1.5 1.2-2.7 2.8-2.7h224.6c1.6 0 2.8 1.2 2.8 2.7z"/>
			<path id="path268" class="s0" d="m152.8-370.6c0 1.2-1 2.1-2.1 2.1h-50.5c-1.1 0-2.1-0.9-2.1-2.1v-0.3c0-1.2 1-2.1 2.1-2.1h50.5c1.1 0 2.1 0.9 2.1 2.1z"/>
			<path id="path270" class="s0" d="m69.9-367.6c0 1.2-0.9 2.1-2.1 2.1h-50.4c-1.2 0-2.1-0.9-2.1-2.1v-0.3c0-1.2 0.9-2.1 2.1-2.1h50.4c1.2 0 2.1 0.9 2.1 2.1z"/>
			<path id="path272" class="s6" d="m73.3-374.3h-3v-8.3h3z"/>
			<path id="path274" class="s6" d="m78.9-374.3h-3v-8.3h3z"/>
			<path id="path276" class="s6" d="m84.5-374.3h-2.9v-8.3h2.9z"/>
			<path id="path278" class="s6" d="m90.1-374.3h-2.9v-8.3h2.9z"/>
			<path id="path280" class="s6" d="m95.8-374.3h-3v-8.3h3z"/>
			<path id="path282" class="s0" d="m229.2-378.1h-76.7v-4.5h76.7z"/>
			<path id="path284" class="s0" d="m157.8-372.1c0 0.7-0.7 1.4-1.4 1.4-0.8 0-1.4-0.7-1.4-1.4 0-0.8 0.6-1.4 1.4-1.4 0.7 0 1.4 0.6 1.4 1.4z"/>
			<path id="path286" class="s0" d="m164.2-372.1c0 0.7-0.6 1.4-1.4 1.4-0.8 0-1.4-0.7-1.4-1.4 0-0.8 0.6-1.4 1.4-1.4 0.8 0 1.4 0.6 1.4 1.4z"/>
			<path id="path288" class="s0" d="m170.6-372.1c0 0.7-0.6 1.4-1.4 1.4-0.8 0-1.4-0.7-1.4-1.4 0-0.8 0.6-1.4 1.4-1.4 0.8 0 1.4 0.6 1.4 1.4z"/>
			<path id="path290" class="s0" d="m177-372.1c0 0.7-0.6 1.4-1.4 1.4-0.8 0-1.4-0.7-1.4-1.4 0-0.8 0.6-1.4 1.4-1.4 0.8 0 1.4 0.6 1.4 1.4z"/>
			<path id="path292" class="s0" d="m183.4-372.1c0 0.7-0.6 1.4-1.4 1.4-0.8 0-1.4-0.7-1.4-1.4 0-0.8 0.6-1.4 1.4-1.4 0.8 0 1.4 0.6 1.4 1.4z"/>
			<path id="path294" class="s0" d="m189.9-372.1c0 0.7-0.7 1.4-1.5 1.4-0.7 0-1.4-0.7-1.4-1.4 0-0.8 0.7-1.4 1.4-1.4 0.8 0 1.5 0.6 1.5 1.4z"/>
			<path id="path296" class="s0" d="m196.3-372.1c0 0.7-0.7 1.4-1.4 1.4-0.8 0-1.5-0.7-1.5-1.4 0-0.8 0.7-1.4 1.5-1.4 0.7 0 1.4 0.6 1.4 1.4z"/>
			<path id="path298" class="s0" d="m202.7-372.1c0 0.7-0.7 1.4-1.4 1.4-0.8 0-1.4-0.7-1.4-1.4 0-0.8 0.6-1.4 1.4-1.4 0.7 0 1.4 0.6 1.4 1.4z"/>
			<path id="path300" class="s0" d="m209.1-372.1c0 0.7-0.6 1.4-1.4 1.4-0.8 0-1.4-0.7-1.4-1.4 0-0.8 0.6-1.4 1.4-1.4 0.8 0 1.4 0.6 1.4 1.4z"/>
			<path id="path302" class="s0" d="m215.5-372.1c0 0.7-0.6 1.4-1.4 1.4-0.8 0-1.4-0.7-1.4-1.4 0-0.8 0.6-1.4 1.4-1.4 0.8 0 1.4 0.6 1.4 1.4z"/>
			<path id="path304" class="s0" d="m221.9-372.1c0 0.7-0.6 1.4-1.4 1.4-0.8 0-1.4-0.7-1.4-1.4 0-0.8 0.6-1.4 1.4-1.4 0.8 0 1.4 0.6 1.4 1.4z"/>
			<path id="path306" class="s0" d="m236.6-366.3c0 0.8-0.7 1.4-1.4 1.4-0.8 0-1.4-0.6-1.4-1.4 0-0.8 0.6-1.4 1.4-1.4 0.7 0 1.4 0.6 1.4 1.4z"/>
			<path id="path308" class="s0" d="m243-366.3c0 0.8-0.6 1.4-1.4 1.4-0.8 0-1.4-0.6-1.4-1.4 0-0.8 0.6-1.4 1.4-1.4 0.8 0 1.4 0.6 1.4 1.4z"/>
			<path id="path310" class="s0" d="m249.4-366.3c0 0.8-0.6 1.4-1.4 1.4-0.8 0-1.4-0.6-1.4-1.4 0-0.8 0.6-1.4 1.4-1.4 0.8 0 1.4 0.6 1.4 1.4z"/>
			<path id="path312" class="s0" d="m255.8-366.3c0 0.8-0.6 1.4-1.4 1.4-0.8 0-1.4-0.6-1.4-1.4 0-0.8 0.6-1.4 1.4-1.4 0.8 0 1.4 0.6 1.4 1.4z"/>
			<path id="path314" class="s0" d="m262.2-366.3c0 0.8-0.6 1.4-1.4 1.4-0.8 0-1.4-0.6-1.4-1.4 0-0.8 0.6-1.4 1.4-1.4 0.8 0 1.4 0.6 1.4 1.4z"/>
			<path id="path316" class="s0" d="m268.7-366.3c0 0.8-0.7 1.4-1.5 1.4-0.7 0-1.4-0.6-1.4-1.4 0-0.8 0.7-1.4 1.4-1.4 0.8 0 1.5 0.6 1.5 1.4z"/>
			<path id="path318" class="s0" d="m275.1-366.3c0 0.8-0.7 1.4-1.4 1.4-0.8 0-1.5-0.6-1.5-1.4 0-0.8 0.7-1.4 1.5-1.4 0.7 0 1.4 0.6 1.4 1.4z"/>
			<path id="path320" class="s0" d="m281.5-366.3c0 0.8-0.6 1.4-1.4 1.4-0.8 0-1.4-0.6-1.4-1.4 0-0.8 0.6-1.4 1.4-1.4 0.8 0 1.4 0.6 1.4 1.4z"/>
			<path id="path322" class="s0" d="m287.9-366.3c0 0.8-0.6 1.4-1.4 1.4-0.8 0-1.4-0.6-1.4-1.4 0-0.8 0.6-1.4 1.4-1.4 0.8 0 1.4 0.6 1.4 1.4z"/>
			<path id="path324" class="s0" d="m294.3-366.3c0 0.8-0.6 1.4-1.4 1.4-0.8 0-1.4-0.6-1.4-1.4 0-0.8 0.6-1.4 1.4-1.4 0.8 0 1.4 0.6 1.4 1.4z"/>
			<path id="path326" class="s0" d="m300.7-366.3c0 0.8-0.6 1.4-1.4 1.4-0.8 0-1.4-0.6-1.4-1.4 0-0.8 0.6-1.4 1.4-1.4 0.8 0 1.4 0.6 1.4 1.4z"/>
			<path id="path328" class="s0" d="m491-385.1c0.6-2.1 0.2-4.1-0.2-4.1h-485c-2.5 0-4.6 1.8-5.1 4.1z"/>
			<path id="path330" class="s0" d="m152.1-381.7h-53.2v-1.7h53.2z"/>
			<path id="path332" class="s0" d="m152.1-379.3h-53.2v-1.8h53.2z"/>
			<path id="path334" class="s7" d="m351.7-369.2h-123.4v-6.3h123.4z"/>
			<path id="path336" class="s0" d="m247.6-378h-14.7v-3.7h14.7z"/>
			<path id="path338" class="s0" d="m263.5-378h-14.7v-3.7h14.7z"/>
			<path id="path340" class="s0" d="m279.4-378h-14.7v-3.7h14.7z"/>
			<path id="path342" class="s0" d="m295.3-378h-14.7v-3.7h14.7z"/>
			<path id="path344" class="s0" d="m310.6-378h-14.7v-3.7h14.7z"/>
			<path id="path346" class="s0" d="m326.5-378h-14.7v-3.7h14.7z"/>
			<path id="path348" class="s0" d="m343.1-378h-14.7v-3.7h14.7z"/>
			<path id="path350" class="s0" d="m432.6-368.4c0 1.5-1.3 2.8-2.8 2.8h-122.5c-1.6 0-2.8-1.3-2.8-2.8v-0.5c0-1.5 1.2-2.8 2.8-2.8h122.5c1.5 0 2.8 1.3 2.8 2.8z"/>
			<path id="path352" class="s0" d="m457-379.9c0 0.9-0.8 1.7-1.8 1.7h-76.2c-0.9 0-1.7-0.8-1.7-1.7v-0.3c0-1 0.8-1.7 1.7-1.7h76.2c1 0 1.8 0.7 1.8 1.7z"/>
			<path id="path354" class="s0" d="m236.6-372.2c0 0.8-0.7 1.4-1.4 1.4-0.8 0-1.4-0.6-1.4-1.4 0-0.8 0.6-1.4 1.4-1.4 0.7 0 1.4 0.6 1.4 1.4z"/>
			<path id="path356" class="s0" d="m243-372.2c0 0.8-0.6 1.4-1.4 1.4-0.8 0-1.4-0.6-1.4-1.4 0-0.8 0.6-1.4 1.4-1.4 0.8 0 1.4 0.6 1.4 1.4z"/>
			<path id="path358" class="s0" d="m249.4-372.2c0 0.8-0.6 1.4-1.4 1.4-0.8 0-1.4-0.6-1.4-1.4 0-0.8 0.6-1.4 1.4-1.4 0.8 0 1.4 0.6 1.4 1.4z"/>
			<path id="path360" class="s0" d="m255.8-372.2c0 0.8-0.6 1.4-1.4 1.4-0.8 0-1.4-0.6-1.4-1.4 0-0.8 0.6-1.4 1.4-1.4 0.8 0 1.4 0.6 1.4 1.4z"/>
			<path id="path362" class="s0" d="m262.2-372.2c0 0.8-0.6 1.4-1.4 1.4-0.8 0-1.4-0.6-1.4-1.4 0-0.8 0.6-1.4 1.4-1.4 0.8 0 1.4 0.6 1.4 1.4z"/>
			<path id="path364" class="s0" d="m268.7-372.2c0 0.8-0.7 1.4-1.5 1.4-0.7 0-1.4-0.6-1.4-1.4 0-0.8 0.7-1.4 1.4-1.4 0.8 0 1.5 0.6 1.5 1.4z"/>
			<path id="path366" class="s0" d="m275.1-372.2c0 0.8-0.7 1.4-1.4 1.4-0.8 0-1.5-0.6-1.5-1.4 0-0.8 0.7-1.4 1.5-1.4 0.7 0 1.4 0.6 1.4 1.4z"/>
			<path id="path368" class="s0" d="m281.5-372.2c0 0.8-0.6 1.4-1.4 1.4-0.8 0-1.4-0.6-1.4-1.4 0-0.8 0.6-1.4 1.4-1.4 0.8 0 1.4 0.6 1.4 1.4z"/>
			<path id="path370" class="s0" d="m287.9-372.2c0 0.8-0.6 1.4-1.4 1.4-0.8 0-1.4-0.6-1.4-1.4 0-0.8 0.6-1.4 1.4-1.4 0.8 0 1.4 0.6 1.4 1.4z"/>
			<path id="path372" class="s0" d="m294.3-372.2c0 0.8-0.6 1.4-1.4 1.4-0.8 0-1.4-0.6-1.4-1.4 0-0.8 0.6-1.4 1.4-1.4 0.8 0 1.4 0.6 1.4 1.4z"/>
			<path id="path374" class="s0" d="m300.7-372.2c0 0.8-0.6 1.4-1.4 1.4-0.8 0-1.4-0.6-1.4-1.4 0-0.8 0.6-1.4 1.4-1.4 0.8 0 1.4 0.6 1.4 1.4z"/>
			<path id="path376" class="s0" d="m209.3-389.8h1.2l0.9-1.1-5.1 0.2z"/>
			<path id="path378" class="s0" d="m213.6-391.4c-2.5 0.1-12.7 0.4-18.5 0.4l-8.8-0.4v-0.2c-0.2-0.2-0.5-0.6-0.7-1l-1.6-3.2v0.2l1.5 3.7c0.2 0.4 0.4 0.8 0.7 1l-0.1 0.2 8.8 0.4c6.6 0 19.1-0.4 19.1-0.4q0-0.4-0.4-0.7z"/>
			<path id="path380" class="s7" d="m214-391c0-1.2-3-1.8-7.6-2.7-3.1-0.6-7.1-0.1-10.1 0.4-0.7 0.1-6.6 0.9-7.5 0.9l-2.9-3.3c-0.1-0.1-0.3-0.3-0.5-0.3h-1.3c-0.1 0-0.2 0.2-0.1 0.3l1.5 3.4c0.2 0.4 0.4 0.8 0.7 1l-0.1 0.3 8.8 0.4c6.6 0 19.1-0.4 19.1-0.4z"/>
			<path id="path382" class="s6" d="m204.7-390.1c0 0.1-0.1 0.2-0.3 0.2h-13.4c-0.1 0-0.2-0.1-0.2-0.2 0-0.1 0.1-0.2 0.2-0.2 0 0 7-2.2 9.1-2.1l4.3 2.1c0.2 0 0.3 0.1 0.3 0.2z"/>
			<path id="path384" class="s0" d="m204.7-390.1c0 0.1-0.1 0.2-0.3 0.2h-13.4c-0.1 0-0.2-0.1-0.2-0.2 0-0.1 0.1-0.2 0.2-0.2h13.4c0.2 0 0.3 0.1 0.3 0.2z"/>
			<path id="path386" class="s0" d="m204.3-393.9l1.2 1.4c0.2 0.4 0.7 0.6 1 0.6h6.9c-1.2-0.7-3.7-1.2-7-1.8-0.6-0.1-1.3-0.2-2.1-0.2z"/>
			<path id="path388" class="s7" d="m198-389.8c0 0.4-0.2 0.6-0.6 0.6h-0.2c-0.4 0-0.6-0.2-0.6-0.6 0-0.3 0.2-0.5 0.6-0.5h0.2c0.4 0 0.6 0.2 0.6 0.5z"/>
			<path id="path390" class="s0" d="m197.3-389.8c0 0.4-0.3 0.6-0.6 0.6h-0.3c-0.3 0-0.5-0.2-0.5-0.6 0-0.3 0.2-0.5 0.5-0.5h0.3c0.3 0 0.6 0.2 0.6 0.5z"/>
			<path id="path392" class="s7" d="m210.9-389.8c0 0.4-0.2 0.6-0.6 0.6h-0.2c-0.4 0-0.6-0.2-0.6-0.6 0-0.3 0.2-0.5 0.6-0.5h0.2c0.4 0 0.6 0.2 0.6 0.5z"/>
			<path id="path394" class="s0" d="m210.2-389.8c0 0.4-0.3 0.6-0.6 0.6h-0.3c-0.3 0-0.5-0.2-0.5-0.6 0-0.3 0.2-0.5 0.5-0.5h0.3c0.3 0 0.6 0.2 0.6 0.5z"/>
			<path id="path396" class="s0" d="m240.2-389.8h1.1l0.9-1.1-5 0.2z"/>
			<path id="path398" class="s0" d="m244.5-391.4c-2.5 0.1-12.8 0.4-18.6 0.4l-8.8-0.4 0.1-0.2c-0.3-0.2-0.6-0.6-0.8-1l-1.6-3.2v0.2l1.6 3.7c0.1 0.4 0.4 0.8 0.6 1v0.2l8.7 0.4c6.7 0 19.1-0.4 19.1-0.4q0-0.4-0.3-0.7z"/>
			<path id="path400" class="s7" d="m244.8-391c0-1.2-2.9-1.8-7.6-2.7-3-0.6-7-0.1-10.1 0.4-0.6 0.1-6.6 0.9-7.5 0.9l-2.8-3.3c-0.2-0.1-0.4-0.3-0.5-0.3h-1.4c-0.1 0-0.1 0.2 0 0.3l1.5 3.4c0.1 0.4 0.4 0.8 0.6 1v0.3l8.7 0.4c6.7 0 19.1-0.4 19.1-0.4z"/>
			<path id="path402" class="s6" d="m235.5-390.1c0 0.1-0.1 0.2-0.2 0.2h-13.4c-0.1 0-0.2-0.1-0.2-0.2 0-0.1 0.1-0.2 0.2-0.2 0 0 7-2.2 9-2.1l4.4 2.1c0.1 0 0.2 0.1 0.2 0.2z"/>
			<path id="path404" class="s0" d="m235.5-390.1c0 0.1-0.1 0.2-0.2 0.2h-13.4c-0.1 0-0.2-0.1-0.2-0.2 0-0.1 0.1-0.2 0.2-0.2h13.4c0.1 0 0.2 0.1 0.2 0.2z"/>
			<path id="path406" class="s0" d="m235.1-393.9l1.2 1.4c0.3 0.4 0.8 0.6 1.1 0.6h6.8c-1.1-0.7-3.6-1.2-7-1.8-0.5-0.1-1.2-0.2-2.1-0.2z"/>
			<path id="path408" class="s7" d="m228.9-389.8c0 0.4-0.3 0.6-0.6 0.6h-0.3c-0.3 0-0.6-0.2-0.6-0.6 0-0.3 0.3-0.5 0.6-0.5h0.3c0.3 0 0.6 0.2 0.6 0.5z"/>
			<path id="path410" class="s0" d="m228.2-389.8c0 0.4-0.3 0.6-0.6 0.6h-0.3c-0.3 0-0.6-0.2-0.6-0.6 0-0.3 0.3-0.5 0.6-0.5h0.3c0.3 0 0.6 0.2 0.6 0.5z"/>
			<path id="path412" class="s7" d="m241.8-389.8c0 0.4-0.3 0.6-0.6 0.6h-0.3c-0.3 0-0.6-0.2-0.6-0.6 0-0.3 0.3-0.5 0.6-0.5h0.3c0.3 0 0.6 0.2 0.6 0.5z"/>
			<path id="path414" class="s0" d="m241.1-389.8c0 0.4-0.3 0.6-0.6 0.6h-0.3c-0.3 0-0.6-0.2-0.6-0.6 0-0.3 0.3-0.5 0.6-0.5h0.3c0.3 0 0.6 0.2 0.6 0.5z"/>
			<path id="path416" class="s0" d="m271-389.8h1.2l0.9-1.1-5.1 0.2z"/>
			<path id="path418" class="s0" d="m275.3-391.4c-2.5 0.1-12.7 0.4-18.5 0.4l-8.8-0.4v-0.2c-0.2-0.2-0.5-0.6-0.7-1l-1.6-3.2v0.2l1.5 3.7c0.2 0.4 0.4 0.8 0.6 1v0.2l8.8 0.4c6.6 0 19.1-0.4 19.1-0.4q0-0.4-0.4-0.7z"/>
			<path id="path420" class="s7" d="m275.7-391c0-1.2-3-1.8-7.6-2.7-3.1-0.6-7.1-0.1-10.1 0.4-0.7 0.1-6.6 0.9-7.6 0.9l-2.8-3.3c-0.2-0.1-0.4-0.3-0.5-0.3h-1.3c-0.1 0-0.2 0.2-0.1 0.3l1.5 3.4c0.2 0.4 0.4 0.8 0.6 1v0.3l8.8 0.4c6.6 0 19.1-0.4 19.1-0.4z"/>
			<path id="path422" class="s6" d="m266.4-390.1c0 0.1-0.1 0.2-0.3 0.2h-13.4c-0.1 0-0.2-0.1-0.2-0.2 0-0.1 0.1-0.2 0.2-0.2 0 0 7-2.2 9.1-2.1l4.3 2.1c0.2 0 0.3 0.1 0.3 0.2z"/>
			<path id="path424" class="s0" d="m266.4-390.1c0 0.1-0.1 0.2-0.3 0.2h-13.4c-0.1 0-0.2-0.1-0.2-0.2 0-0.1 0.1-0.2 0.2-0.2h13.4c0.2 0 0.3 0.1 0.3 0.2z"/>
			<path id="path426" class="s0" d="m266-393.9l1.1 1.4c0.3 0.4 0.8 0.6 1.1 0.6h6.8c-1.1-0.7-3.6-1.2-6.9-1.8-0.6-0.1-1.3-0.2-2.1-0.2z"/>
			<path id="path428" class="s7" d="m259.7-389.8c0 0.4-0.3 0.6-0.6 0.6h-0.3c-0.3 0-0.5-0.2-0.5-0.6 0-0.3 0.2-0.5 0.5-0.5h0.3c0.3 0 0.6 0.2 0.6 0.5z"/>
			<path id="path430" class="s0" d="m259-389.8c0 0.4-0.3 0.6-0.6 0.6h-0.3c-0.3 0-0.6-0.2-0.6-0.6 0-0.3 0.3-0.5 0.6-0.5h0.3c0.3 0 0.6 0.2 0.6 0.5z"/>
			<path id="path432" class="s7" d="m272.6-389.8c0 0.4-0.3 0.6-0.6 0.6h-0.3c-0.3 0-0.5-0.2-0.5-0.6 0-0.3 0.2-0.5 0.5-0.5h0.3c0.3 0 0.6 0.2 0.6 0.5z"/>
			<path id="path434" class="s0" d="m271.9-389.8c0 0.4-0.3 0.6-0.6 0.6h-0.3c-0.3 0-0.6-0.2-0.6-0.6 0-0.3 0.3-0.5 0.6-0.5h0.3c0.3 0 0.6 0.2 0.6 0.5z"/>
			<path id="path436" class="s0" d="m301.9-389.8h1.1l0.9-1.1-5 0.2z"/>
			<path id="path438" class="s0" d="m306.2-391.4c-2.5 0.1-12.8 0.4-18.6 0.4l-8.8-0.4 0.1-0.2c-0.3-0.2-0.6-0.6-0.8-1l-1.6-3.2v0.2l1.6 3.7c0.1 0.4 0.4 0.8 0.6 1v0.2l8.7 0.4c6.7 0 19.1-0.4 19.1-0.4q0-0.4-0.3-0.7z"/>
			<path id="path440" class="s7" d="m306.5-391c0-1.2-3-1.8-7.6-2.7-3-0.6-7-0.1-10.1 0.4-0.6 0.1-6.6 0.9-7.5 0.9l-2.9-3.3c-0.1-0.1-0.3-0.3-0.4-0.3h-1.4c-0.1 0-0.1 0.2 0 0.3l1.5 3.4c0.1 0.4 0.4 0.8 0.6 1v0.3l8.7 0.4c6.7 0 19.1-0.4 19.1-0.4z"/>
			<path id="path442" class="s6" d="m297.2-390.1c0 0.1-0.1 0.2-0.2 0.2h-13.4c-0.1 0-0.2-0.1-0.2-0.2 0-0.1 0.1-0.2 0.2-0.2 0 0 6.9-2.2 9-2.1l4.4 2.1c0.1 0 0.2 0.1 0.2 0.2z"/>
			<path id="path444" class="s0" d="m297.2-390.1c0 0.1-0.1 0.2-0.2 0.2h-13.4c-0.1 0-0.2-0.1-0.2-0.2 0-0.1 0.1-0.2 0.2-0.2h13.4c0.1 0 0.2 0.1 0.2 0.2z"/>
			<path id="path446" class="s0" d="m296.8-393.9l1.2 1.4c0.3 0.4 0.7 0.6 1.1 0.6h6.8c-1.1-0.7-3.6-1.2-7-1.8-0.5-0.1-1.2-0.2-2.1-0.2z"/>
			<path id="path448" class="s7" d="m290.6-389.8c0 0.4-0.3 0.6-0.6 0.6h-0.3c-0.3 0-0.6-0.2-0.6-0.6 0-0.3 0.3-0.5 0.6-0.5h0.3c0.3 0 0.6 0.2 0.6 0.5z"/>
			<path id="path450" class="s0" d="m289.8-389.8c0 0.4-0.2 0.6-0.5 0.6h-0.3c-0.3 0-0.6-0.2-0.6-0.6 0-0.3 0.3-0.5 0.6-0.5h0.3c0.3 0 0.5 0.2 0.5 0.5z"/>
			<path id="path452" class="s7" d="m303.5-389.8c0 0.4-0.3 0.6-0.6 0.6h-0.3c-0.3 0-0.6-0.2-0.6-0.6 0-0.3 0.3-0.5 0.6-0.5h0.3c0.3 0 0.6 0.2 0.6 0.5z"/>
			<path id="path454" class="s0" d="m302.7-389.8c0 0.4-0.2 0.6-0.5 0.6h-0.3c-0.3 0-0.6-0.2-0.6-0.6 0-0.3 0.3-0.5 0.6-0.5h0.3c0.3 0 0.5 0.2 0.5 0.5z"/>
			<path id="path456" class="s0" d="m363.6-389.8h1.1l0.9-1.1-5 0.2z"/>
			<path id="path458" class="s0" d="m367.8-391.4c-2.4 0.1-12.7 0.4-18.5 0.4l-8.8-0.4v-0.2c-0.2-0.2-0.5-0.6-0.7-1l-1.6-3.2v0.2l1.5 3.7c0.2 0.4 0.5 0.8 0.7 1l-0.1 0.2 8.8 0.4c6.6 0 19.1-0.4 19.1-0.4q0-0.4-0.4-0.7z"/>
			<path id="path460" class="s7" d="m368.2-391c0-1.2-3-1.8-7.6-2.7-3.1-0.6-7-0.1-10.1 0.4-0.6 0.1-6.6 0.9-7.5 0.9l-2.9-3.3c-0.1-0.1-0.3-0.3-0.4-0.3h-1.4c-0.1 0-0.1 0.2-0.1 0.3l1.5 3.4c0.2 0.4 0.5 0.8 0.7 1l-0.1 0.3 8.8 0.4c6.6 0 19.1-0.4 19.1-0.4z"/>
			<path id="path462" class="s6" d="m358.9-390.1c0 0.1-0.1 0.2-0.2 0.2h-13.4c-0.2 0-0.3-0.1-0.3-0.2 0-0.1 0.1-0.2 0.3-0.2 0 0 6.9-2.2 9-2.1l4.4 2.1c0.1 0 0.2 0.1 0.2 0.2z"/>
			<path id="path464" class="s0" d="m358.9-390.1c0 0.1-0.1 0.2-0.2 0.2h-13.4c-0.2 0-0.3-0.1-0.3-0.2 0-0.1 0.1-0.2 0.3-0.2h13.4c0.1 0 0.2 0.1 0.2 0.2z"/>
			<path id="path466" class="s0" d="m358.5-393.9l1.2 1.4c0.3 0.4 0.7 0.6 1.1 0.6h6.8c-1.1-0.7-3.6-1.2-7-1.8-0.5-0.1-1.2-0.2-2.1-0.2z"/>
			<path id="path468" class="s7" d="m352.2-389.8c0 0.4-0.2 0.6-0.5 0.6h-0.3c-0.4 0-0.6-0.2-0.6-0.6 0-0.3 0.2-0.5 0.6-0.5h0.3c0.3 0 0.5 0.2 0.5 0.5z"/>
			<path id="path470" class="s0" d="m351.5-389.8c0 0.4-0.2 0.6-0.6 0.6h-0.2c-0.4 0-0.6-0.2-0.6-0.6 0-0.3 0.2-0.5 0.6-0.5h0.2c0.4 0 0.6 0.2 0.6 0.5z"/>
			<path id="path472" class="s7" d="m365.1-389.8c0 0.4-0.2 0.6-0.5 0.6h-0.3c-0.3 0-0.6-0.2-0.6-0.6 0-0.3 0.3-0.5 0.6-0.5h0.3c0.3 0 0.5 0.2 0.5 0.5z"/>
			<path id="path474" class="s0" d="m364.4-389.8c0 0.4-0.2 0.6-0.6 0.6h-0.2c-0.4 0-0.6-0.2-0.6-0.6 0-0.3 0.2-0.5 0.6-0.5h0.2c0.4 0 0.6 0.2 0.6 0.5z"/>
			<path id="path476" class="s0" d="m394.4-389.8h1.2l0.9-1.1-5.1 0.2z"/>
			<path id="path478" class="s0" d="m398.7-391.4c-2.5 0.1-12.7 0.4-18.5 0.4l-8.8-0.4v-0.2c-0.3-0.2-0.5-0.6-0.7-1l-1.7-3.2 0.1 0.2 1.5 3.7c0.2 0.4 0.4 0.8 0.6 1v0.2l8.7 0.4c6.7 0 19.2-0.4 19.2-0.4q0-0.4-0.4-0.7z"/>
			<path id="path480" class="s7" d="m399.1-391c0-1.2-3-1.8-7.7-2.7-3-0.6-7-0.1-10 0.4-0.7 0.1-6.7 0.9-7.6 0.9l-2.8-3.3c-0.2-0.1-0.4-0.3-0.5-0.3h-1.3c-0.2 0-0.2 0.2-0.1 0.3l1.5 3.4c0.2 0.4 0.4 0.8 0.6 1v0.3l8.7 0.4c6.7 0 19.2-0.4 19.2-0.4z"/>
			<path id="path482" class="s6" d="m389.7-390.1c0 0.1-0.1 0.2-0.2 0.2h-13.4c-0.1 0-0.2-0.1-0.2-0.2 0-0.1 0.1-0.2 0.2-0.2 0 0 7-2.2 9.1-2.1l4.3 2.1c0.1 0 0.2 0.1 0.2 0.2z"/>
			<path id="path484" class="s0" d="m389.7-390.1c0 0.1-0.1 0.2-0.2 0.2h-13.4c-0.1 0-0.2-0.1-0.2-0.2 0-0.1 0.1-0.2 0.2-0.2h13.4c0.1 0 0.2 0.1 0.2 0.2z"/>
			<path id="path486" class="s0" d="m389.3-393.9l1.2 1.4c0.3 0.4 0.8 0.6 1.1 0.6h6.8c-1.1-0.7-3.6-1.2-7-1.8-0.5-0.1-1.2-0.2-2.1-0.2z"/>
			<path id="path488" class="s7" d="m383.1-389.8c0 0.4-0.3 0.6-0.6 0.6h-0.3c-0.3 0-0.6-0.2-0.6-0.6 0-0.3 0.3-0.5 0.6-0.5h0.3c0.3 0 0.6 0.2 0.6 0.5z"/>
			<path id="path490" class="s0" d="m382.4-389.8c0 0.4-0.3 0.6-0.6 0.6h-0.3c-0.3 0-0.6-0.2-0.6-0.6 0-0.3 0.3-0.5 0.6-0.5h0.3c0.3 0 0.6 0.2 0.6 0.5z"/>
			<path id="path492" class="s7" d="m396-389.8c0 0.4-0.3 0.6-0.6 0.6h-0.3c-0.3 0-0.6-0.2-0.6-0.6 0-0.3 0.3-0.5 0.6-0.5h0.3c0.3 0 0.6 0.2 0.6 0.5z"/>
			<path id="path494" class="s0" d="m395.3-389.8c0 0.4-0.3 0.6-0.6 0.6h-0.3c-0.3 0-0.6-0.2-0.6-0.6 0-0.3 0.3-0.5 0.6-0.5h0.3c0.3 0 0.6 0.2 0.6 0.5z"/>
			<path id="path496" class="s0" d="m456.1-389.8h1.1l1-1.1-5.1 0.2z"/>
			<path id="path498" class="s0" d="m460.4-391.4c-2.5 0.1-12.7 0.4-18.5 0.4l-8.8-0.4v-0.2c-0.3-0.2-0.5-0.6-0.8-1l-1.6-3.2 0.1 0.2 1.5 3.7c0.2 0.4 0.4 0.8 0.6 1v0.2l8.7 0.4c6.7 0 19.2-0.4 19.2-0.4q0-0.4-0.4-0.7z"/>
			<path id="path500" class="s7" d="m460.8-391c0-1.2-3-1.8-7.7-2.7-3-0.6-7-0.1-10.1 0.4-0.6 0.1-6.6 0.9-7.5 0.9l-2.8-3.3c-0.2-0.1-0.4-0.3-0.5-0.3h-1.4c-0.1 0-0.1 0.2 0 0.3l1.5 3.4c0.2 0.4 0.4 0.8 0.6 1v0.3l8.7 0.4c6.7 0 19.2-0.4 19.2-0.4z"/>
			<path id="path502" class="s6" d="m451.4-390.1c0 0.1-0.1 0.2-0.2 0.2h-13.4c-0.1 0-0.2-0.1-0.2-0.2 0-0.1 0.1-0.2 0.2-0.2 0 0 7-2.2 9-2.1l4.4 2.1c0.1 0 0.2 0.1 0.2 0.2z"/>
			<path id="path504" class="s0" d="m451.4-390.1c0 0.1-0.1 0.2-0.2 0.2h-13.4c-0.1 0-0.2-0.1-0.2-0.2 0-0.1 0.1-0.2 0.2-0.2h13.4c0.1 0 0.2 0.1 0.2 0.2z"/>
			<path id="path506" class="s0" d="m451-393.9l1.2 1.4c0.3 0.4 0.8 0.6 1.1 0.6h6.8c-1.1-0.7-3.6-1.2-7-1.8-0.5-0.1-1.2-0.2-2.1-0.2z"/>
			<path id="path508" class="s7" d="m444.8-389.8c0 0.4-0.3 0.6-0.6 0.6h-0.3c-0.3 0-0.6-0.2-0.6-0.6 0-0.3 0.3-0.5 0.6-0.5h0.3c0.3 0 0.6 0.2 0.6 0.5z"/>
			<path id="path510" class="s0" d="m444.1-389.8c0 0.4-0.3 0.6-0.6 0.6h-0.3c-0.3 0-0.6-0.2-0.6-0.6 0-0.3 0.3-0.5 0.6-0.5h0.3c0.3 0 0.6 0.2 0.6 0.5z"/>
			<path id="path512" class="s7" d="m457.7-389.8c0 0.4-0.3 0.6-0.6 0.6h-0.3c-0.3 0-0.6-0.2-0.6-0.6 0-0.3 0.3-0.5 0.6-0.5h0.3c0.3 0 0.6 0.2 0.6 0.5z"/>
			<path id="path514" class="s0" d="m457-389.8c0 0.4-0.3 0.6-0.6 0.6h-0.3c-0.3 0-0.6-0.2-0.6-0.6 0-0.3 0.3-0.5 0.6-0.5h0.3c0.3 0 0.6 0.2 0.6 0.5z"/>
			<path id="path516" class="s7" d="m6.6-391.6h-0.8v-1.6h0.3z"/>
			<path id="path518" class="s7" d="m27.4-391.6h0.7v-1.6h-0.2z"/>
			<path id="path520" class="s0" d="m17.4-389.5c0 0.2-0.1 0.4-0.3 0.4-0.2 0-0.3-0.2-0.3-0.4v-0.8c0-0.2 0.1-0.3 0.3-0.3 0.2 0 0.3 0.1 0.3 0.3z"/>
			<path id="path522" class="s0" d="m9.5-389.5c0 0.2-0.2 0.4-0.3 0.4-0.2 0-0.3-0.2-0.3-0.4v-0.8c0-0.2 0.1-0.3 0.3-0.3 0.1 0 0.3 0.1 0.3 0.3z"/>
			<path id="path524" class="s0" d="m17.8-392.3c-0.2-2-0.5-2.9-0.7-2.9-0.2 0-0.5 0.9-0.8 2.9z"/>
			<path id="path526" class="s0" d="m5.7-391.6l0.2-0.2h22.3l0.2 0.2-0.2 0.1c0 0-8.4 1.4-11.2 1.4-2.8 0-11.1-1.4-11.1-1.4z"/>
			<path id="path528" class="s7" d="m21.1-390.5c-0.3-1.6-2-2.9-4-2.9-2 0-3.7 1.3-4 2.9z"/>
			<path id="path530" class="s0" d="m5.7-391.6l0.2-0.2h22.3l0.2 0.2-0.2 0.1h-22.3z"/>
			<path id="path532" class="s7" d="m21.1-390.5c-0.3-1.6-2-2.9-4-2.9-2 0-3.7 1.3-4 2.9 0 0 3 0.7 4 0.7 1 0 4-0.7 4-0.7z"/>
			<path id="path534" class="s0" d="m19.4-392.5c-0.6-0.4-1.4-0.7-2.3-0.7-0.9 0-1.7 0.3-2.3 0.7 0.5 0.9 1.3 1.5 2.3 1.5 1 0 1.8-0.6 2.3-1.5z"/>
			<path id="path536" class="s0" d="m9.6-389.7h-0.3v-1.5h0.3z"/>
			<path id="path538" class="s0" d="m24.7-389.5c0 0.2 0.1 0.4 0.3 0.4 0.2 0 0.3-0.2 0.3-0.4v-0.8c0-0.2-0.1-0.3-0.3-0.3-0.2 0-0.3 0.1-0.3 0.3z"/>
			<path id="path540" class="s0" d="m24.6-389.7h0.2v-1.5h-0.2z"/>
			<path id="path542" class="s7" d="m31.1-391.6h-0.8v-1.6h0.3z"/>
			<path id="path544" class="s7" d="m51.9-391.6h0.7v-1.6h-0.2z"/>
			<path id="path546" class="s0" d="m41.9-389.5c0 0.2-0.1 0.4-0.3 0.4-0.1 0-0.3-0.2-0.3-0.4v-0.8c0-0.2 0.2-0.3 0.3-0.3 0.2 0 0.3 0.1 0.3 0.3z"/>
			<path id="path548" class="s0" d="m34-389.5c0 0.2-0.1 0.4-0.3 0.4-0.2 0-0.3-0.2-0.3-0.4v-0.8c0-0.2 0.1-0.3 0.3-0.3 0.2 0 0.3 0.1 0.3 0.3z"/>
			<path id="path550" class="s0" d="m42.4-392.3c-0.3-2-0.6-2.9-0.8-2.9-0.2 0-0.5 0.9-0.7 2.9z"/>
			<path id="path552" class="s0" d="m30.2-391.6l0.2-0.2h22.4l0.1 0.2-0.1 0.1c0 0-8.4 1.4-11.2 1.4-2.8 0-11.2-1.4-11.2-1.4z"/>
			<path id="path554" class="s7" d="m45.6-390.5c-0.3-1.6-2-2.9-4-2.9-2 0-3.7 1.3-4 2.9z"/>
			<path id="path556" class="s0" d="m30.2-391.6l0.2-0.2h22.4l0.1 0.2-0.1 0.1h-22.4z"/>
			<path id="path558" class="s7" d="m45.6-390.5c-0.3-1.6-2-2.9-4-2.9-2 0-3.7 1.3-4 2.9 0 0 3 0.7 4 0.7 1 0 4-0.7 4-0.7z"/>
			<path id="path560" class="s0" d="m43.9-392.5c-0.6-0.4-1.4-0.7-2.3-0.7-0.9 0-1.7 0.3-2.3 0.7 0.5 0.9 1.4 1.5 2.3 1.5 1 0 1.8-0.6 2.3-1.5z"/>
			<path id="path562" class="s0" d="m34.1-389.7h-0.2v-1.5h0.2z"/>
			<path id="path564" class="s0" d="m49.2-389.5c0 0.2 0.1 0.4 0.3 0.4 0.2 0 0.3-0.2 0.3-0.4v-0.8c0-0.2-0.1-0.3-0.3-0.3-0.2 0-0.3 0.1-0.3 0.3z"/>
			<path id="path566" class="s0" d="m49.1-389.7h0.3v-1.5h-0.3z"/>
			<path id="path568" class="s7" d="m55.4-391.6h-0.8v-1.6h0.3z"/>
			<path id="path570" class="s7" d="m76.2-391.6h0.7v-1.6h-0.2z"/>
			<path id="path572" class="s0" d="m66.2-389.5c0 0.2-0.1 0.4-0.3 0.4-0.1 0-0.3-0.2-0.3-0.4v-0.8c0-0.2 0.2-0.3 0.3-0.3 0.2 0 0.3 0.1 0.3 0.3z"/>
			<path id="path574" class="s0" d="m58.3-389.5c0 0.2-0.1 0.4-0.3 0.4-0.2 0-0.3-0.2-0.3-0.4v-0.8c0-0.2 0.1-0.3 0.3-0.3 0.2 0 0.3 0.1 0.3 0.3z"/>
			<path id="path576" class="s0" d="m66.7-392.3c-0.3-2-0.6-2.9-0.8-2.9-0.2 0-0.5 0.9-0.7 2.9z"/>
			<path id="path578" class="s0" d="m54.5-391.6l0.2-0.2h22.4l0.1 0.2-0.1 0.1c0 0-8.4 1.4-11.2 1.4-2.8 0-11.2-1.4-11.2-1.4z"/>
			<path id="path580" class="s7" d="m69.9-390.5c-0.3-1.6-2-2.9-4-2.9-2 0-3.7 1.3-4 2.9z"/>
			<path id="path582" class="s0" d="m54.5-391.6l0.2-0.2h22.4l0.1 0.2-0.1 0.1h-22.4z"/>
			<path id="path584" class="s7" d="m69.9-390.5c-0.3-1.6-2-2.9-4-2.9-2 0-3.7 1.3-4 2.9 0 0 3 0.7 4 0.7 1 0 4-0.7 4-0.7z"/>
			<path id="path586" class="s0" d="m68.2-392.5c-0.6-0.4-1.4-0.7-2.3-0.7-0.9 0-1.7 0.3-2.3 0.7 0.5 0.9 1.4 1.5 2.3 1.5 1 0 1.8-0.6 2.3-1.5z"/>
			<path id="path588" class="s0" d="m58.4-389.7h-0.2v-1.5h0.2z"/>
			<path id="path590" class="s0" d="m73.5-389.5c0 0.2 0.1 0.4 0.3 0.4 0.2 0 0.3-0.2 0.3-0.4v-0.8c0-0.2-0.1-0.3-0.3-0.3-0.2 0-0.3 0.1-0.3 0.3z"/>
			<path id="path592" class="s0" d="m73.4-389.7h0.3v-1.5h-0.3z"/>
			<path id="path594" class="s0" d="m213.4-158.7l-0.2 0.1-30.7-35.9 0.1-0.1z"/>
			<path id="path596" class="s0" d="m208.9-155.3l-0.1 0.1-26.6-39.2 0.2-0.1z"/>
			<path id="path598" class="s0" d="m240-178.4c0 1.5-1.2 2.8-2.7 2.8-1.5 0-2.8-1.3-2.8-2.8 0-1.5 1.3-2.7 2.8-2.7 1.5 0 2.7 1.2 2.7 2.7z"/>
			<path id="path600" class="s6" d="m212.4-167.3h-4v-12h4z"/>
			<path id="path602" class="s0" d="m215.7-172h-0.3v-19.9h0.3z"/>
			<path id="path604" class="s0" d="m221.6-172h-0.4v-19.9h0.4z"/>
			<path id="path606" class="s6" d="m218.3-167.3h-4.8v-12h4.8z"/>
			<path id="path608" class="s6" d="m224.3-167.3h-4.8v-12h4.8z"/>
			<path id="path610" class="s0" d="m227.8-149.4h-20.1v-20.4h18.4z"/>
			<path id="path612" class="s0" d="m202.3-144.7h-20.1v-20.4h18.4z"/>
			<path id="path614" class="s0" d="m140.9-151h19.4v-15.5h-19.4z"/>
			<path id="path616" class="s0" d="m135.3-161.5h1.3v-15.5h-1.3z"/>
			<path id="path618" class="s0" d="m141.6-160.9h5.3v-15.5h-5.3z"/>
			<path id="path620" class="s0" d="m143.4-168.5h1.8v-13.9h-1.8z"/>
			<path id="path622" class="s6" d="m123.6-154.5h26.2v-17.1h-21.1z"/>
			<path id="path624" class="s7" d="m249.4-145.5h-20.1v-20.4h18.4z"/>
			<path id="path626" class="s0" d="m258.1-150.4h-20.1v-20.5h18.4z"/>
			<path id="path628" class="s0" d="m157.3-144.7h-20v-20.4h18.3z"/>
			<path id="path630" class="s7" d="m166.9-132.1h-43.9v-26.5h43.9z"/>
			<path id="path632" class="s7" d="m259.8-132.1h-69.5v-26.5h69.5z"/>
			<path id="path634" class="s6" d="m263.2-150.8l-26.9 10.6v-24.9h24.1z"/>
			<path id="path636" class="s6" d="m239-152.8h-78.3v5.1h-34.3v18.7h78.2v-5.1h34.4z"/>
			<path id="path638" class="s0" d="m263.2-124.2h-71.8v-26.6h71.8z"/>
			<path id="path640" class="s0" d="m172.3-128l-0.3-14.6h-14.9l-3.2-3.1h-78.2v14.7h18v3z"/>
			<path id="path642" class="s0" d="m135.4-166.5h-5.8v-1.5h5.8z"/>
			<path id="path644" class="s0" d="m142-166.5h-5.8v-1.5h5.8z"/>
			<path id="path646" class="s0" d="m148.6-166.5h-5.8v-1.5h5.8z"/>
			<path id="path648" class="s0" d="m135.6-170.2h-5.9v-0.6h5.9z"/>
			<path id="path650" class="s0" d="m142.1-170.2h-5.8v-0.6h5.8z"/>
			<path id="path652" class="s0" d="m148.7-170.2h-5.8v-0.6h5.8z"/>
			<path id="path654" class="s7" d="m145.6-165.1v-7.8h-2.9v7.8z"/>
			<path id="path656" class="s7" d="m149.9-165.1v-7.8h-3.5v7.8z"/>
			<path id="path658" class="s7" d="m154.3-165.1v-7.8h-3.5v7.8z"/>
			<path id="path660" class="s0" d="m140.2-147.1c0 0.5-0.2 0.9-0.4 0.9h-2.3c-0.3 0-0.5-0.4-0.5-0.9 0-0.6 0.2-1 0.5-1h2.3c0.2 0 0.4 0.4 0.4 1z"/>
			<path id="path662" class="s0" d="m143.7-147.1c0 0.5-0.2 0.9-0.5 0.9h-2.3c-0.3 0-0.5-0.4-0.5-0.9 0-0.6 0.2-1 0.5-1h2.3c0.3 0 0.5 0.4 0.5 1z"/>
			<path id="path664" class="s0" d="m147.1-147.1c0 0.5-0.2 0.9-0.4 0.9h-2.3c-0.3 0-0.5-0.4-0.5-0.9 0-0.6 0.2-1 0.5-1h2.3c0.2 0 0.4 0.4 0.4 1z"/>
			<path id="path666" class="s0" d="m150.6-147.1c0 0.5-0.2 0.9-0.5 0.9h-2.3c-0.3 0-0.5-0.4-0.5-0.9 0-0.6 0.2-1 0.5-1h2.3c0.3 0 0.5 0.4 0.5 1z"/>
			<path id="path668" class="s0" d="m154-147.1c0 0.5-0.2 0.9-0.4 0.9h-2.3c-0.3 0-0.5-0.4-0.5-0.9 0-0.6 0.2-1 0.5-1h2.3c0.2 0 0.4 0.4 0.4 1z"/>
			<path id="path670" class="s0" d="m140.2-149.3c0 0.5-0.2 0.9-0.4 0.9h-2.3c-0.3 0-0.5-0.4-0.5-0.9 0-0.6 0.2-1 0.5-1h2.3c0.2 0 0.4 0.4 0.4 1z"/>
			<path id="path672" class="s0" d="m143.7-149.3c0 0.5-0.2 0.9-0.5 0.9h-2.3c-0.3 0-0.5-0.4-0.5-0.9 0-0.6 0.2-1 0.5-1h2.3c0.3 0 0.5 0.4 0.5 1z"/>
			<path id="path674" class="s0" d="m147.1-149.3c0 0.5-0.2 0.9-0.4 0.9h-2.3c-0.3 0-0.5-0.4-0.5-0.9 0-0.6 0.2-1 0.5-1h2.3c0.2 0 0.4 0.4 0.4 1z"/>
			<path id="path676" class="s0" d="m150.6-149.3c0 0.5-0.2 0.9-0.5 0.9h-2.3c-0.3 0-0.5-0.4-0.5-0.9 0-0.6 0.2-1 0.5-1h2.3c0.3 0 0.5 0.4 0.5 1z"/>
			<path id="path678" class="s0" d="m154-149.3c0 0.5-0.2 0.9-0.4 0.9h-2.3c-0.3 0-0.5-0.4-0.5-0.9 0-0.6 0.2-1 0.5-1h2.3c0.2 0 0.4 0.4 0.4 1z"/>
			<path id="path680" class="s0" d="m156.8-148.7c0.2 1.9 1.2 3.3 2.3 3.3h16.1c1.1 0 2.1-1.4 2.3-3.3z"/>
			<path id="path682" class="s7" d="m109.3-141.1h-1.9v-3.5h1.9z"/>
			<path id="path684" class="s7" d="m112.6-141.1h-1.9v-3.5h1.9z"/>
			<path id="path686" class="s7" d="m115.9-141.1h-1.9v-3.5h1.9z"/>
			<path id="path688" class="s7" d="m119.2-141.1h-1.9v-3.5h1.9z"/>
			<path id="path690" class="s7" d="m122.5-141.1h-1.9v-3.5h1.9z"/>
			<path id="path692" class="s7" d="m125.8-141.1h-1.9v-3.5h1.9z"/>
			<path id="path694" class="s7" d="m129.1-141.1h-1.9v-3.5h1.9z"/>
			<path id="path696" class="s7" d="m132.4-141.1h-2v-3.5h2z"/>
			<path id="path698" class="s7" d="m135.7-141.1h-2v-3.5h2z"/>
			<path id="path700" class="s7" d="m139-141.1h-2v-3.5h2z"/>
			<path id="path702" class="s7" d="m142.3-141.1h-2v-3.5h2z"/>
			<path id="path704" class="s7" d="m145.6-141.1h-2v-3.5h2z"/>
			<path id="path706" class="s7" d="m148.9-141.1h-2v-3.5h2z"/>
			<path id="path708" class="s7" d="m152.2-141.1h-2v-3.5h2z"/>
			<path id="path710" class="s0" d="m140.5-156.8h-16.8v-1h16.8z"/>
			<path id="path712" class="s0" d="m134.9-151.4h-3.5v-3.9h3.5z"/>
			<path id="path714" class="s0" d="m129.7-146h-1v-6h1z"/>
			<path id="path716" class="s0" d="m132-160.3h-1.7v-4.7h1.7z"/>
			<path id="path718" class="s0" d="m134.5-160.3h-1.7v-4.7h1.7z"/>
			<path id="path720" class="s0" d="m137-160.3h-1.7v-4.7h1.7z"/>
			<path id="path722" class="s0" d="m139.6-160.3h-1.8v-4.7h1.8z"/>
			<path id="path724" class="s0" d="m143.6-159.9h-1.7v-2.8h1.7z"/>
			<path id="path726" class="s0" d="m146.5-159.9h-1.7v-2.8h1.7z"/>
			<path id="path728" class="s0" d="m149.4-159.9h-1.7v-2.8h1.7z"/>
			<path id="path730" class="s7" d="m112.1-148.2h-36.3v2.5h0.3v-2.2h3.3v2.2h0.3v-2.2h3.3v2.2h0.3v-2.2h3.4v2.2h0.3v-2.2h0.3v2.1h0.9v-2.1h2.1v2.2h0.3v-2.2h3.4v2.2h0.2v-2.2h1v2.1h0.8v-2.1h1.6v2.2h0.3v-2.2h3.3v2.2h0.3v-2.2h3.4v2.2h0.2v-2.2h3.4v2.2h0.3v-2.2h3.3v2.2h0.3v-2.5z"/>
			<path id="path732" class="s6" d="m141.7-159.2h-1.8v-3.9h1.8z"/>
			<path id="path734" class="s6" d="m145.7-159.2h-1.8v-3.9h1.8z"/>
			<path id="path736" class="s6" d="m149.8-159.2h-1.9v-3.9h1.9z"/>
			<path id="path738" class="s6" d="m153.8-159.2h-1.9v-3.9h1.9z"/>
			<path id="path740" class="s0" d="m159-166.5h-1.6v-2h1.6z"/>
			<path id="path742" class="s0" d="m156.5-166.5h-1.6v-2h1.6z"/>
			<path id="path744" class="s6" d="m197.1-152.9h-2.4v-16.8h2.4z"/>
			<path id="path746" class="s6" d="m198.4-157.8h-5.2v-4h5.2z"/>
			<path id="path748" class="s0" d="m199.5-156h-7.6v-2.8h7.6z"/>
			<path id="path750" class="s6" d="m200.7-153h-9.7v-3.5h9.7z"/>
			<path id="path752" class="s6" d="m225.2-139.9h-0.5v-11.9h0.5z"/>
			<path id="path754" class="s6" d="m228.8-139.9h-0.5v-11.9h0.5z"/>
			<path id="path756" class="s0" d="m184.3-140.2h-0.6v-12.5h0.6z"/>
			<path id="path758" class="s0" d="m188.2-140.2h-0.6v-12.5h0.6z"/>
			<path id="path760" class="s6" d="m236.3-160.4h-36.9v-0.6h36.9z"/>
			<path id="path762" class="s6" d="m201.2-158.6h-0.4v-2.4h0.4z"/>
			<path id="path764" class="s6" d="m205.6-158.6h-0.4v-2.4h0.4z"/>
			<path id="path766" class="s6" d="m209.9-158.6h-0.4v-2.4h0.4z"/>
			<path id="path768" class="s6" d="m214.2-158.6h-0.3v-2.4h0.3z"/>
			<path id="path770" class="s6" d="m218.6-158.6h-0.4v-2.4h0.4z"/>
			<path id="path772" class="s6" d="m222.9-158.6h-0.3v-2.4h0.3z"/>
			<path id="path774" class="s6" d="m227.3-158.6h-0.4v-2.4h0.4z"/>
			<path id="path776" class="s6" d="m231.6-158.6h-0.3v-2.4h0.3z"/>
			<path id="path778" class="s6" d="m190.7-140.1v-0.5h72.4v0.5z"/>
			<path id="path780" class="s0" d="m306.6-144.5h23.6v-0.4h-23.6z"/>
			<path id="path782" class="s7" d="m310.1-144h5.3v-1.6h-5.3z"/>
			<path id="path784" class="s6" d="m312.6-140.5h-5.7c-1.2-0.6-2.2-1.7-2.5-3.1-0.4-1.9 0.9-3.5 2.9-3.5h3.6c2 0 2.5 1.6 2.9 3.5 0.3 1.4-0.2 2.5-1.2 3.1z"/>
			<path id="path786" class="s6" d="m180.7-123.3h-145v-18.6h145z"/>
			<path id="path788" class="s2" d="m309.9-143.1l-2.9 3.1h-256.3c-1.5 3.7-9 6.5-17.9 6.5h-31.3l1.2 9h355.1l19.4-21.7z"/>
			<path id="path790" fill-rule="evenodd" class="s4" d="m353.3-109.6c3.4 6.1 2.1 5.8-11.5 5.8-10 0-19.2-6.2-26.2-6.2-82.3 0-213.7 0-213.7 0 0 0-2.6-1.5-15.8-3h-64.9v-1.7h4.8v-3.1c-4.5-0.3-8.6-0.6-12-0.8l-1.9 9.3h-6.2l-2-9.8q-0.6 0-1 0l-0.4-5.8h355.2c0 0-7.8 9.2-4.4 15.3zm-323.6-5.1h36.9c-12.8-1-25.8-2-36.9-2.8z"/>
			<path id="path792" class="s0" d="m52.5-141.9v-3.6h-6.9v3.6z"/>
			<path id="path794" class="s0" d="m51.3-146.6v-2.2h-4.5v2.2z"/>
			<path id="path796" class="s7" d="m53.7-144v-1.6h-9.1v1.6z"/>
			<path id="path798" class="s6" d="m8.2-133.4h-4.6v-6.6h4.6z"/>
			<path id="path800" class="s6" d="m16.1-133.4h-4.7v-6.6h4.7z"/>
			<path id="path802" class="s0" d="m8.2-138h-4.6v-1.4h4.6z"/>
			<path id="path804" class="s0" d="m30.2-137.6h-13.3v-0.4h13.3z"/>
			<path id="path806" class="s7" d="m26.7-137h-5.2v-1.7h5.2z"/>
			<path id="path808" class="s6" d="m24.2-133.5h5.7c1.2-0.6 2.2-1.8 2.5-3.1 0.4-2-0.8-3.6-2.8-3.6h-3.7c-1.9 0-2.4 1.6-2.8 3.6-0.3 1.3 0.2 2.5 1.1 3.1z"/>
			<path id="path810" class="s0" d="m16.1-138h-4.7v-1.4h4.7z"/>
			<path id="path812" class="s0" d="m44.6-134.9h-43.1v-1.2h43.1z"/>
			<path id="path814" class="s6" d="m54-145c-4.4 0-9.2 0-13.1 0-2.7 0 0.3-2.9 6.3-2.9 5.5 0 7.1 0.2 9.2 0.2 0.7 0 1.7 2.7-2.4 2.7z"/>
			<path id="path816" class="s0" d="m230.7-163.6h-1.2v-24.4h1.2z"/>
			<path id="path818" class="s6" d="m236.9-181h-8.9v-3h8.9z"/>
			<path id="path820" class="s0" d="m228-181.4v0.4h8.9v-0.4z"/>
			<path id="path822" class="s0" d="m230.1-177.5v0.4l6.8-3.9v-0.4z"/>
			<path id="path824" class="s6" d="m240.6-174.9h-12.8v-2.1h12.8z"/>
			<path id="path826" class="s0" d="m240.6-174.8h-12.8v-0.5h12.8z"/>
			<path id="path828" class="s0" d="m239.4-165h-0.8l-2.3-10.1h0.8z"/>
			<path id="path830" class="s0" d="m237.8-170h-7.7v-0.4h7.7z"/>
			<path id="path832" class="s0" d="m238.4-169.8l-8.3-4.9v-0.4l8.3 4.9z"/>
			<path id="path834" class="s0" d="m238.9-165.1l-8.3-4.8v-0.4l8.3 4.8z"/>
			<path id="path836" class="s0" d="m238.5-170.3l-8.3 4.8v0.4l8.3-4.8z"/>
			<path id="path838" class="s0" d="m236.9-175.1l-6.8 4.9v0.4l6.8-4.9z"/>
			<path id="path840" class="s0" d="m243.3-166.6l-0.4-0.5 15.2-12.7 0.3 0.5z"/>
			<path id="path842" class="s7" d="m253.4-153.5h-7v-9.2h7z"/>
			<path id="path844" class="s0" d="m181.9-211.8h0.7v58.8h-0.7z"/>
			<path id="path846" class="s0" d="m173.5-195.2h0.7l-4.1 42.2h-0.6z"/>
			<path id="path848" class="s0" d="m189.7-194.6h-18.2v-0.6h18.2z"/>
			<path id="path850" class="s0" d="m189.1-199.8h-10.1v-2.2h10.1z"/>
			<path id="path852" class="s0" d="m182.5-188.8h-9.2v-0.6h9.2z"/>
			<path id="path854" class="s0" d="m182.5-183.1h-23.2v-0.6h23.2z"/>
			<path id="path856" class="s0" d="m182.5-177.3h-17l-0.2-0.6h17.2z"/>
			<path id="path858" class="s0" d="m182.5-170.8h-14.5v-0.6h14.5z"/>
			<path id="path860" class="s0" d="m182.5-163.9h-11.8v-0.6h11.8z"/>
			<path id="path862" class="s0" d="m182.5-157.8h-12.2v-0.7h12.2z"/>
			<path id="path864" class="s0" d="m182.5-152.8l-12.2-4.5v-0.7l12.2 4.6z"/>
			<path id="path866" class="s0" d="m182.3-158.9l-11.3-4.6v-0.6l11.3 4.5z"/>
			<path id="path868" class="s0" d="m182.4-170.9l-10.1-6.1v-0.7l10.1 6.1z"/>
			<path id="path870" class="s0" d="m182.2-164.3l-10.6-6.1v-0.6l10.6 6.1z"/>
			<path id="path872" class="s0" d="m182.1-177.4l-9.2-5.3v-0.7l9.2 5.4z"/>
			<path id="path874" class="s0" d="m182.2-183.1l-8.7-5.2v-0.7l8.7 5.2z"/>
			<path id="path876" class="s0" d="m182.6-189l-8.7-5.2v-0.7l8.7 5.2z"/>
			<path id="path878" class="s0" d="m173.5-189l8.7-5.2v-0.7l-8.7 5.2z"/>
			<path id="path880" class="s0" d="m182.4-189l4.3-5.2v-0.7l-4.3 5.3z"/>
			<path id="path882" class="s0" d="m172.6-183.3l9.4-5.2v-0.7l-9.4 5.2z"/>
			<path id="path884" class="s0" d="m172.1-177.4l10-5.7v-0.6l-10 5.7z"/>
			<path id="path886" class="s0" d="m171.5-171.3l10.8-5.7v-0.6l-10.8 5.7z"/>
			<path id="path888" class="s0" d="m170.7-164.2l11.3-6.4v-0.6l-11.3 6.3z"/>
			<path id="path890" class="s0" d="m170.1-158l11.9-5.8v-0.6l-11.9 5.7z"/>
			<path id="path892" class="s0" d="m169.5-152.9l12.6-5.1v-0.7l-12.6 5.1z"/>
			<path id="path894" class="s0" d="m170.8-164.1l-7.8-18.7 0.1-0.7 7.9 18.8z"/>
			<path id="path896" class="s0" d="m184.5-210.5h-4.6v-0.7h4.6z"/>
			<path id="path898" class="s0" d="m183.7-211.8h-3.2v-0.9h3.2z"/>
			<path id="path900" class="s0" d="m183-204.8h-1.8v-1.6h1.8z"/>
			<path id="path902" class="s0" d="m182.3-195h-1.6v-7.7h1.6z"/>
			<path id="path904" class="s0" d="m171.5-197.7v2.9h0.5v-2.6h16.9v2.6h0.5v-2.9z"/>
			<path id="path906" class="s0" d="m189.1-196.2h-17.4v-0.2h17.4z"/>
			<path id="path908" class="s0" d="m185.7-194.6h-0.3v-3h0.3z"/>
			<path id="path910" class="s0" d="m176.6-194.6h-0.2v-3h0.2z"/>
			<path id="path912" class="s0" d="m180.8-195.2h-0.3l-1.1-4.7h0.2z"/>
			<path id="path914" class="s0" d="m181.8-195.5h-0.3l5.7-5h0.2z"/>
			<path id="path916" fill-rule="evenodd" class="s0" d="m172.6-189.2c0 1.7-1.4 3.1-3.1 3.1h-8c-1.7 0-3.1-1.4-3.1-3.1 0-1.7 1.4-3.1 3.1-3.1h8c1.7 0 3.1 1.4 3.1 3.1zm-0.2 0c0-1.6-1.3-2.9-2.9-2.9h-8c-1.6 0-2.9 1.3-2.9 2.9 0 1.6 1.3 2.9 2.9 2.9h8c1.6 0 2.9-1.3 2.9-2.9z"/>
			<path id="path918" class="s0" d="m172.3-190h-13.6v-0.3h13.6z"/>
			<path id="path920" class="s0" d="m172.3-188.4h-13.6v-0.3h13.6z"/>
			<path id="path922" class="s0" d="m171.6-186.9h-12.3v-0.3h12.3z"/>
			<path id="path924" class="s0" d="m171.6-191.1h-12.3v-0.3h12.3z"/>
			<path id="path926" class="s0" d="m160.8-186.3h-0.1v-5.8h0.1z"/>
			<path id="path928" class="s0" d="m162.2-186.3h-0.1v-5.8h0.1z"/>
			<path id="path930" class="s0" d="m163.6-186.3h-0.1v-5.8h0.1z"/>
			<path id="path932" class="s0" d="m165-186.3h-0.1v-5.8h0.1z"/>
			<path id="path934" class="s0" d="m166.4-186.3h-0.1v-5.8h0.1z"/>
			<path id="path936" class="s0" d="m167.8-186.3h-0.1v-5.8h0.1z"/>
			<path id="path938" class="s0" d="m169.2-186.3h-0.1v-5.8h0.1z"/>
			<path id="path940" class="s0" d="m170.6-186.3h-0.1v-5.8h0.1z"/>
			<path id="path942" class="s0" d="m172-187.8h-0.1v-2.9h0.1z"/>
			<path id="path944" class="s0" d="m159.5-187.1h-0.1v-4.2h0.1z"/>
			<path id="path946" class="s0" d="m166-186.3h-0.8v-4.4h0.8z"/>
			<path id="path948" class="s0" d="m163.4-187.6v-0.8h4.5v0.8z"/>
			<path id="path950" class="s0" d="m167.5-183.6h-3.6v-1.4h3.6z"/>
			<path id="path952" class="s0" d="m164.8-184.6h-0.5v-3.5h0.5z"/>
			<path id="path954" class="s0" d="m167.1-184.6h-0.5v-3.5h0.5z"/>
			<path id="path956" class="s3" d="m32-113q-1.3-0.1-2.5-0.2v0.2z"/>
			<path id="path958" class="s3" d="m352.5-113.4c0.1-5.5 5.2-11.5 5.2-11.5h-355.2l0.2 3.6z"/>
			<path id="path960" class="s0" d="m1.8-131.5l0.9 7h355.1l9.5-10.6z"/>
			<path id="path962" class="s8" d="m226.3-33.7c0 0.6-0.5 1.1-1.3 1.1h-7.4c-0.8 0-1-0.5-0.6-1.1l2.3-3.1c0.2-0.3 0.8-0.5 1.2-0.5h5c0.5 0 0.8 0.2 0.8 0.5z"/>
			<path id="path964" class="s8" d="m204.7-26.3h-20.3v-3.6h20.3z"/>
			<path id="path966" class="s9" d="m304.8-70.1h-4.3v-3.5h4.3z"/>
			<path id="path968" class="s8" d="m306.5-73.5l-0.2 0.2h-7.1l-0.2-0.2v-2.6l0.2-0.2h7.1l0.2 0.2z"/>
			<path id="path970" class="s9" d="m365.7-42.4h-3.6v-2.9h3.6z"/>
			<path id="path972" class="s8" d="m367.1-45.2l-0.2 0.2h-5.9l-0.1-0.2v-2.1l0.1-0.2h5.9l0.2 0.2z"/>
			<path id="path974" class="s9" d="m240.1-42.6h-1.9v-1.6h1.9z"/>
			<path id="path976" class="s8" d="m240.8-44.1v0.1h-3.2l-0.1-0.1v-1.1l0.1-0.1h3.2v0.1z"/>
			<path id="path978" class="s8" d="m329.5-55.1h2.4v-5.1h-1.1z"/>
			<path id="path980" class="s8" d="m334.8-55.1h-2.5v-5.1h1.1z"/>
			<path id="path982" class="s8" d="m383.9-32.7h5.3v-7.1h-2.4z"/>
			<path id="path984" class="s9" d="m394-32.7h-5.3v-7.1h2.3z"/>
			<path id="path986" class="s9" d="m275.1-70.1h-4.3v-3.5h4.3z"/>
			<path id="path988" class="s10" d="m322-41.3l-14.1-29c-0.2-0.3-1.2-0.5-2.3-0.5h-36.2c-1.1 0-2.1 0.2-2.3 0.5l-18.1 29z"/>
			<path id="path990" class="s11" d="m321.1-43.2l-13.2-27.1c-0.1-0.2-6.5-0.3-7.1-0.4l11.4 27.5z"/>
			<path id="path992" class="s8" d="m351.8-27.7l-11.4-27c-0.2-0.3-1.2-0.6-2.2-0.6h-31.3l11.7 27.6z"/>
			<path id="path994" class="s9" d="m375.6-31.7l-6.7-10.5c-0.2-0.3-1.2-0.6-2.2-0.6h-127.3c-1.1 0-2.1 0.3-2.3 0.6l-6.6 10.5z"/>
			<path id="path996" class="s9" d="m434.4-34.1l9.8-7.5-0.2-0.2-9.8 7.5z"/>
			<path id="path998" class="s8" d="m436.9-35.4l3.3-2.6-0.7-1-3.4 2.5z"/>
			<path id="path1000" class="s10" d="m439-29.8l-9.8 1.6c-1.9-1.3-1.2-3.3-0.4-5.5 0.8-2.2 1.5-3.8 3.4-3.8h3.2c1.6 0 2.4 1.1 3.4 2.8 0.9 1.6 1.1 3.5 0.2 4.9z"/>
			<path id="path1002" class="s9" d="m406.9-36.9l9.8-7.4-0.2-0.3-9.8 7.5z"/>
			<path id="path1004" class="s8" d="m409.4-38.2l3.3-2.5-0.8-1.1-3.3 2.6z"/>
			<path id="path1006" class="s10" d="m411.5-32.5l-9.9 1.6c-1.9-1.3-1.2-3.4-0.4-5.6 0.8-2.2 1.6-3.8 3.5-3.8h3.2c1.6 0 2.3 1.1 3.4 2.9 0.9 1.5 1 3.4 0.2 4.9z"/>
			<path id="path1008" class="s8" d="m426.4-18.5h-211v-14.8h211z"/>
			<path id="path1010" class="s12" d="m434.5-34.3l-2.2 2.5h-204.9c-1.2 2.9-7.2 5.2-14.3 5.2h-30.1l2.5 7.2h287.4l15.5-17.4z"/>
			<path id="path1012" fill-rule="evenodd" class="s4" d="m469.3-7.5c2.7 4.9 1.6 4.6-9.3 4.6-8 0-15.3-4.9-20.9-4.9-65.7 0-170.8 0-170.8 0 0 0-2-1.2-12.6-2.5h-51.9v-1.3h3.9v-2.4c-3.6-0.3-6.9-0.5-9.7-0.7l-1.5 7.4h-4.9l-1.6-7.8c-0.3 0-3.2 0-3.4 0l-1.3-4.7h287.5c0 0-6.2 7.4-3.5 12.3zm-258.7-4.1h29.5c-10.2-0.8-20.7-1.6-29.5-2.2z"/>
			<path id="path1014" class="s13" d="m222.5-27.8h-39.7l-0.2-0.9h39.9z"/>
			<path id="path1016" class="s3" d="m468.6-10.5c0.1-4.5 4.2-9.3 4.2-9.3h-287.5l0.8 2.9z"/>
			<path id="path1018" class="s14" d="m183.6-25l1.9 5.6h287.4l14.3-16-80.6 10.6z"/>
			<path id="path1020" class="s8" d="m309.2-71.1c0 0.3-0.3 0.6-0.7 0.6h-43c-0.4 0-0.7-0.3-0.7-0.6 0-0.4 0.3-0.7 0.7-0.7h43c0.4 0 0.7 0.3 0.7 0.7z"/>
			<path id="path1022" class="s9" d="m341.4-55.2c0 0.3-0.3 0.6-0.6 0.6h-34.1c-0.4 0-0.7-0.3-0.7-0.6 0-0.4 0.3-0.7 0.7-0.7h34.1c0.3 0 0.6 0.3 0.6 0.7z"/>
			<path id="path1024" class="s8" d="m369.7-42.4c0 0.3-0.3 0.6-0.7 0.6h-131.9c-0.3 0-0.6-0.3-0.6-0.6 0-0.4 0.3-0.7 0.6-0.7h131.9c0.4 0 0.7 0.3 0.7 0.7z"/>
			<path id="path1026" class="s8" d="m299.5-63.6c0 0.2-0.2 0.5-0.5 0.5h-24.4c-0.2 0-0.5-0.3-0.5-0.5v-3.7c0-0.3 0.3-0.5 0.5-0.5h24.4c0.3 0 0.5 0.2 0.5 0.5z"/>
			<path id="path1028" class="s8" d="m299.5-54.8c0 0.3-0.2 0.5-0.5 0.5h-24.4c-0.2 0-0.5-0.2-0.5-0.5v-6.2c0-0.2 0.3-0.5 0.5-0.5h24.4c0.3 0 0.5 0.3 0.5 0.5z"/>
			<path id="path1030" class="s8" d="m276.8-73.5l-0.2 0.2h-7.1l-0.2-0.2v-2.6l0.2-0.2h7.1l0.2 0.2z"/>
			<path id="path1032" class="s8" d="m271.8-63.5h-4.7v-3.6h4.7z"/>
			<path id="path1034" class="s8" d="m271.8-58.1h-4.7v-3.7h4.7z"/>
			<path id="path1036" class="s8" d="m269.8-52.2h-2.7v-4.8h2.7z"/>
			<path id="path1038" class="s9" d="m309.2-63.1h-2.7l-1.4-4.9h2.7z"/>
			<path id="path1040" class="s9" d="m311.2-57.4h-2.7l-1.3-4.8h2.6z"/>
			<path id="path1042" class="s9" d="m338.9-51.5h-20.7v-1h20.7z"/>
			<path id="path1044" class="s8" d="m282.8-71.5h3.4v-7h-1.5z"/>
			<path id="path1046" class="s8" d="m290.2-71.5h-3.4v-7h1.5z"/>
			<path id="path1048" class="s9" d="m392.3-43.5q0.1 0.4 0.1 0.8c0 1.5-0.9 2.6-2.2 2.6h-2.5c-1.3 0-2.3-1.1-2.3-2.6q0-0.4 0.2-0.8c-0.5 0.5-0.8 1.1-0.8 1.8 0 1.4 1.2 2.6 2.6 2.6h3c1.5 0 2.6-1.2 2.6-2.6 0-0.7-0.2-1.3-0.7-1.8z"/>
			<path id="path1050" class="s10" d="m392.3-43.2c0 1.7-1.5 3.2-3.3 3.2-1.8 0-3.2-1.5-3.2-3.2 0-1.8 1.4-3.3 3.2-3.3 1.8 0 3.3 1.5 3.3 3.3z"/>
			<path id="path1052" class="s9" d="m297.2-50.1h-9.4v-2h9.4z"/>
			<path id="path1054" class="s9" d="m284.8-48.1h-7.3v-1.3h7.3z"/>
			<path id="path1056" class="s9" d="m306.2-45.8h-15v-1.3h15z"/>
			<path id="path1058" class="s9" d="m271.5-51.5h-12.4v-3h12.4z"/>
			<path id="path1060" class="s13" d="m233.5-29.4h-4.2v-1.4h4.2z"/>
			<path id="path1062" class="s13" d="m239.9-29.4h-4.2v-1.4h4.2z"/>
			<path id="path1064" class="s13" d="m246.2-29.4h-4.2v-1.4h4.2z"/>
			<path id="path1066" class="s13" d="m252.5-29.4h-4.2v-1.4h4.2z"/>
			<path id="path1068" class="s13" d="m258.9-29.4h-4.2v-1.4h4.2z"/>
			<path id="path1070" class="s13" d="m265.2-29.4h-4.2v-1.4h4.2z"/>
			<path id="path1072" class="s9" d="m280.5-24.9v-4.2h-14.7v4.2z"/>
			<path id="path1074" class="s10" d="m282.3-29h-18.7v-0.7h18.7z"/>
			<path id="path1076" class="s9" d="m302.5-24.9v-4.2h-14.7v4.2z"/>
			<path id="path1078" class="s10" d="m304.4-29h-18.7v-0.7h18.7z"/>
			<path id="path1080" class="s15" d="m222.4-242.6c0 0.7-0.6 1.3-1.3 1.3-0.7 0-1.3-0.6-1.3-1.3v-16.3c0-0.7 0.6-1.3 1.3-1.3 0.7 0 1.3 0.6 1.3 1.3z"/>
			<path id="path1082" class="s15" d="m226.3-248.3c0.2 0.3 0.1 0.7-0.3 0.9-0.3 0.1-0.6 0-0.8-0.3l-4-6.8c-0.2-0.3-0.1-0.7 0.2-0.9 0.3-0.2 0.7-0.1 0.9 0.2z"/>
			<path id="path1084" class="s15" d="m228.3-240.6c0 0.5-0.5 1-1 1-0.6 0-1-0.5-1-1v-12.5c0-0.5 0.4-1 1-1 0.5 0 1 0.5 1 1z"/>
			<path id="path1086" class="s15" d="m231.9-240.6c0 0.5-0.5 1-1 1-0.6 0-1-0.5-1-1v-12.5c0-0.5 0.4-1 1-1 0.5 0 1 0.5 1 1z"/>
			<path id="path1088" class="s15" d="m470.4-250.5c0 3.7-3 6.7-6.6 6.7h-21.4c-3.7 0-6.6-3-6.6-6.7 0-3.6 2.9-6.6 6.6-6.6h21.4c3.6 0 6.6 3 6.6 6.6z"/>
			<path id="path1090" class="s16" d="m418.7-263.7l9.4-4.6-0.1-0.2-9.4 4.6z"/>
			<path id="path1092" class="s2" d="m421-264.4l3.2-1.6-0.4-1-3.2 1.6z"/>
			<path id="path1094" class="s15" d="m422.5-263.5c-0.6-1.6-1-2.6-2.3-2.9l-2.7-0.5c-1.6-0.3-2.5 0.9-3.5 2.6-1 1.7-2 3.3-0.6 4.7l8.5 0.2c0.9-1 1.1-2.6 0.6-4.1z"/>
			<path id="path1096" class="s17" d="m431.1-250.6c0 1.6-1.3 2.9-2.9 2.9h-21.6c-1.6 0-2.9-1.3-2.9-2.9v-8.4c0-1.6 1.3-2.9 2.9-2.9h21.6c1.6 0 2.9 1.3 2.9 2.9z"/>
			<path id="path1098" class="s2" d="m345.7-271.1h-0.5v-26.5h0.5z"/>
			<path id="path1100" class="s2" d="m351.2-276.7h-0.4v-26.5h0.4z"/>
			<path id="path1102" class="s2" d="m333.9-276.7h-1.4v-7.2h1.4z"/>
			<path id="path1104" class="s2" d="m333.9-281h-2.6v-4.7h2.6z"/>
			<path id="path1106" class="s2" d="m336.9-279.7h-1v-4.8h1z"/>
			<path id="path1108" class="s2" d="m336.9-282.6h-1.7v-3h1.7z"/>
			<path id="path1110" class="s2" d="m340.5-278.9h-1.3v-6.9h1.3z"/>
			<path id="path1112" class="s2" d="m359.3-276.4h-3.2v-23.4h0.9z"/>
			<path id="path1114" class="s2" d="m322.7-302.7h-8.3v0.2h8.3z"/>
			<path id="path1116" class="s2" d="m323.4-299.3h-9.6v0.3h9.6z"/>
			<path id="path1118" class="s2" d="m323.6-295.4h-10.4v0.2h10.4z"/>
			<path id="path1120" class="s2" d="m324.2-291.3h-11.4v0.2h11.4z"/>
			<path id="path1122" class="s2" d="m323.7-291l-12.1 4.2 0.1 0.2 12.1-4.2z"/>
			<path id="path1124" class="s2" d="m324.2-295.3l-12.1 4.2 0.1 0.2 12.1-4.2z"/>
			<path id="path1126" class="s2" d="m323.2-299l-10 3.6 0.1 0.2 10-3.6z"/>
			<path id="path1128" class="s2" d="m322.2-302.2l-8.4 3.2 0.1 0.2 8.3-3.2z"/>
			<path id="path1130" class="s2" d="m314.3-302.2l8.3 3.2v0.2l-8.4-3.2z"/>
			<path id="path1132" class="s2" d="m313.8-298.4l9.9 2.8v0.3l-9.9-2.9z"/>
			<path id="path1134" class="s2" d="m313.6-295.2l11.3 4.1-0.1 0.3-11.3-4.2z"/>
			<path id="path1136" class="s2" d="m312.9-291.3l12.3 4-0.1 0.2-12.3-3.9z"/>
			<path id="path1138" class="s2" d="m312.1-284h-1.4l3.1-22.3h1.5z"/>
			<path id="path1140" class="s2" d="m325-284h1.4l-3.1-22.3h-1.5z"/>
			<path id="path1142" class="s18" d="m323.5-306.2v-2.3c0-2.6-2.2-4.8-4.8-4.8-2.7 0-4.9 2.2-4.9 4.8v2.3z"/>
			<path id="path1144" class="s2" d="m325.2-306.5h-19.4v0.7h19.4z"/>
			<path id="path1146" class="s6" d="m329.3-274.6h-19.1v-10.9h19.1z"/>
			<path id="path1148" class="s2" d="m364.4-269.9c0 0.3-0.3 0.6-0.6 0.6h-54.8c-0.3 0-0.6-0.3-0.6-0.6v-9.2c0-0.3 0.3-0.6 0.6-0.6h54.8c0.3 0 0.6 0.3 0.6 0.6z"/>
			<path id="path1150" class="s6" d="m362.1-279.2h-37.9c-0.3 0-0.5 0.3-0.5 0.6v9.2c0 0.3 0.2 0.6 0.5 0.6h37.9z"/>
			<path id="path1152" class="s2" d="m306.8-272.8c1.2 2.3 0.1 4.5-2.7 4.5h-10.5c-2.8 0-5-2.2-5-4.5v-10.5c0-1 1.3-1.8 2.9-1.8h6.1c1.5 0 3.2 0.8 3.8 1.8z"/>
			<path id="path1154" class="s16" d="m274.5-276.1h1.7v-10.7h-1.7z"/>
			<path id="path1156" class="s6" d="m279.1-276.4h-12.1v-3.5h12.1z"/>
			<path id="path1158" class="s16" d="m280.5-268.9h-8.6v-13.3h8.6z"/>
			<path id="path1160" class="s6" d="m265.8-265.2c0 0.3-0.2 0.6-0.6 0.6h-7.2c-0.3 0-0.6-0.3-0.6-0.6v-3.1c0-0.4 0.3-0.6 0.6-0.6h7.2c0.4 0 0.6 0.2 0.6 0.6z"/>
			<path id="path1162" class="s7" d="m266.4-254.8h-9v-9.2h9z"/>
			<path id="path1164" class="s16" d="m267.8-263.7h-11.8v-1.5h11.8z"/>
			<path id="path1166" class="s6" d="m265.7-248.7c-0.2 0.6 0 1 0.4 1h120.1c0.3 0 0.5-0.4 0.4-1l-4.9-23.1c-0.1-0.5-0.4-0.9-0.8-0.9h-109.6c-0.3 0-0.7 0.4-0.8 0.9z"/>
			<path id="path1168" class="s2" d="m280.1-251.8c-0.1 0.4 0 0.7 0.4 0.7h113.4c0.3 0 0.5-0.3 0.4-0.7l-4.6-13.4c-0.1-0.3-0.5-0.5-0.8-0.5h-103.5c-0.3 0-0.6 0.2-0.7 0.5z"/>
			<path id="path1170" class="s7" d="m334.5-243.9h-98.6l10.3-11.3h88.3z"/>
			<path id="path1172" class="s16" d="m371.2-245.4h-98.7l10.3-11.2h88.4z"/>
			<path id="path1174" class="s15" d="m425.2-243.5l-11.7 2.3-132.8-2.3c0 0 15.4-5.5 15.4-13.5h108z"/>
			<path id="path1176" class="s17" d="m434.1-249c-37.7 0-216 0-216 0-0.8-0.8-0.6 7.9-0.6 7.9l0.9 7.1c0 0 255.8 0.9 279.9 0.9 9.6-14.3 18.9-26.2 24.5-30.5 2.9-2.2-71.5 14.6-88.7 14.6z"/>
			<path id="path1178" class="s18" d="m434.1-247.5c15.3 0 75.7-13.2 87-14.6q0.9-0.9 1.7-1.5c2.9-2.2-71.5 14.6-88.7 14.6-37.7 0-216 0-216 0-0.3-0.3-0.4 0.4-0.5 1.5 24.9 0 181.8 0 216.5 0z"/>
			<path id="path1180" class="s2" d="m301-254.9h-2.9v-0.9h2.9z"/>
			<path id="path1182" class="s2" d="m305-254.9h-2.9v-0.9h2.9z"/>
			<path id="path1184" class="s2" d="m309-254.9h-2.9v-0.9h2.9z"/>
			<path id="path1186" class="s2" d="m313-254.9h-2.9v-0.9h2.9z"/>
			<path id="path1188" class="s2" d="m317-254.9h-2.8v-0.9h2.8z"/>
			<path id="path1190" class="s2" d="m321-254.9h-2.8v-0.9h2.8z"/>
			<path id="path1192" class="s2" d="m325.1-254.9h-2.9v-0.9h2.9z"/>
			<path id="path1194" class="s2" d="m329.1-254.9h-2.9v-0.9h2.9z"/>
			<path id="path1196" class="s2" d="m333.1-254.9h-2.9v-0.9h2.9z"/>
			<path id="path1198" class="s2" d="m337.1-254.9h-2.9v-0.9h2.9z"/>
			<path id="path1200" class="s2" d="m341.1-254.9h-2.8v-0.9h2.8z"/>
			<path id="path1202" class="s2" d="m345.1-254.9h-2.8v-0.9h2.8z"/>
			<path id="path1204" class="s2" d="m349.2-254.9h-2.9v-0.9h2.9z"/>
			<path id="path1206" class="s2" d="m353.2-254.9h-2.9v-0.9h2.9z"/>
			<path id="path1208" class="s2" d="m357.2-254.9h-2.9v-0.9h2.9z"/>
			<path id="path1210" class="s2" d="m361.2-254.9h-2.9v-0.9h2.9z"/>
			<path id="path1212" class="s2" d="m365.2-254.9h-2.8v-0.9h2.8z"/>
			<path id="path1214" class="s2" d="m369.2-254.9h-2.8v-0.9h2.8z"/>
			<path id="path1216" class="s2" d="m373.3-254.9h-2.9v-0.9h2.9z"/>
			<path id="path1218" class="s2" d="m377.3-254.9h-2.9v-0.9h2.9z"/>
			<path id="path1220" class="s2" d="m381.3-254.9h-2.9v-0.9h2.9z"/>
			<path id="path1222" class="s2" d="m385.3-254.9h-2.9v-0.9h2.9z"/>
			<path id="path1224" class="s2" d="m389.3-254.9h-2.8v-0.9h2.8z"/>
			<path id="path1226" class="s2" d="m393.3-254.9h-2.8v-0.9h2.8z"/>
			<path id="path1228" class="s2" d="m397.4-254.9h-2.9v-0.9h2.9z"/>
			<path id="path1230" class="s2" d="m401.4-254.9h-2.9v-0.9h2.9z"/>
			<path id="path1232" class="s15" d="m515.6-262.8c-11.7 5.9-27.5 14.4-44.6 23.9-19.4 0-188.1-0.5-253.3-0.8l0.7 5.7c0 0 255.8 0.9 279.9 0.9 9.6-14.3 18.9-26.2 24.5-30.5 0.6-0.5-2.2-0.1-7.2 0.8z"/>
			<path id="path1234" class="s2" d="m486.6-241.5l-4.4 3.4-5.2-6.1 4.4-3.4z"/>
			<path id="path1236" fill-rule="evenodd" class="s4" d="m497-228.8c5.1 2.1 4.7 5.9-0.6 5.9-65.1 0-244.9 0.3-244.9 0.3 0 0-2-1.2-12.5-2.4l-11.1 0.1v-1.3h3.7v-2.5c-3.5-0.2-1.5-0.4-4.3-0.6l-1.5 7.4h-4.8l-1.6-7.8q-0.5-0.1-0.9-0.1l-0.2-4.5h281.3c0 0-4.3 4.7-2.6 5.5zm-258.1 2.6h11.6c-2.4-0.7-6.3-1.9-11.6-2.2zm13.9 0h-2.3c1.5 0.3 2.3 0.5 2.3 0z"/>
			<path id="path1238" class="s3" d="m218.5-229.8v-0.1h278.2c-0.1 0.5-0.1 0.9 0.3 1.1q0.8 0.3 1.3 0.6h-256.6q-1.3-0.1-2.8-0.2v0.2h-7.3v-0.5c-3.5-0.2-1.5-0.4-4.3-0.6l-0.2 1.1h-7.4l-0.3-1.5q-0.5-0.1-0.9-0.1z"/>
			<path id="path1240" class="s16" d="m341.1-256.8h-26.8v-7.5h26.8z"/>
			<path id="path1242" class="s16" d="m354.1-264.3v3.7h12.4v3.8h14.4v-7.5z"/>
			<path id="path1244" class="s18" d="m290.4-264.8c0 0.8-0.6 1.5-1.5 1.5h-2.8c-0.9 0-1.5-0.7-1.5-1.5 0-0.8 0.6-1.5 1.5-1.5h2.8c0.9 0 1.5 0.7 1.5 1.5z"/>
			<path id="path1246" class="s18" d="m297.4-264.8c0 0.8-0.7 1.5-1.5 1.5h-2.9c-0.8 0-1.5-0.7-1.5-1.5 0-0.8 0.7-1.5 1.5-1.5h2.9c0.8 0 1.5 0.7 1.5 1.5z"/>
			<path id="path1248" class="s18" d="m304.3-264.8c0 0.8-0.7 1.5-1.5 1.5h-2.9c-0.8 0-1.5-0.7-1.5-1.5 0-0.8 0.7-1.5 1.5-1.5h2.9c0.8 0 1.5 0.7 1.5 1.5z"/>
			<path id="path1250" class="s18" d="m311.2-264.8c0 0.8-0.7 1.5-1.5 1.5h-2.9c-0.8 0-1.5-0.7-1.5-1.5 0-0.8 0.7-1.5 1.5-1.5h2.9c0.8 0 1.5 0.7 1.5 1.5z"/>
			<path id="path1252" class="s18" d="m318.1-264.8c0 0.8-0.6 1.5-1.5 1.5h-2.8c-0.9 0-1.5-0.7-1.5-1.5 0-0.8 0.6-1.5 1.5-1.5h2.8c0.9 0 1.5 0.7 1.5 1.5z"/>
			<path id="path1254" class="s18" d="m325.1-264.8c0 0.8-0.7 1.5-1.5 1.5h-2.9c-0.8 0-1.5-0.7-1.5-1.5 0-0.8 0.7-1.5 1.5-1.5h2.9c0.8 0 1.5 0.7 1.5 1.5z"/>
			<path id="path1256" class="s18" d="m332-264.8c0 0.8-0.7 1.5-1.5 1.5h-2.9c-0.8 0-1.5-0.7-1.5-1.5 0-0.8 0.7-1.5 1.5-1.5h2.9c0.8 0 1.5 0.7 1.5 1.5z"/>
			<path id="path1258" class="s18" d="m338.9-264.8c0 0.8-0.7 1.5-1.5 1.5h-2.9c-0.8 0-1.5-0.7-1.5-1.5 0-0.8 0.7-1.5 1.5-1.5h2.9c0.8 0 1.5 0.7 1.5 1.5z"/>
			<path id="path1260" class="s18" d="m359.6-264.8c0 0.8-0.6 1.5-1.5 1.5h-2.8c-0.9 0-1.5-0.7-1.5-1.5 0-0.8 0.6-1.5 1.5-1.5h2.8c0.9 0 1.5 0.7 1.5 1.5z"/>
			<path id="path1262" class="s18" d="m366.6-264.8c0 0.8-0.7 1.5-1.5 1.5h-2.9c-0.8 0-1.5-0.7-1.5-1.5 0-0.8 0.7-1.5 1.5-1.5h2.9c0.8 0 1.5 0.7 1.5 1.5z"/>
			<path id="path1264" class="s18" d="m373.5-264.8c0 0.8-0.7 1.5-1.5 1.5h-2.9c-0.8 0-1.5-0.7-1.5-1.5 0-0.8 0.7-1.5 1.5-1.5h2.9c0.8 0 1.5 0.7 1.5 1.5z"/>
			<path id="path1266" class="s18" d="m380.4-264.8c0 0.8-0.7 1.5-1.5 1.5h-2.8c-0.9 0-1.5-0.7-1.5-1.5 0-0.8 0.6-1.5 1.5-1.5h2.8c0.8 0 1.5 0.7 1.5 1.5z"/>
			<path id="path1268" class="s18" d="m387.3-264.8c0 0.8-0.6 1.5-1.5 1.5h-2.8c-0.9 0-1.5-0.7-1.5-1.5 0-0.8 0.6-1.5 1.5-1.5h2.8c0.9 0 1.5 0.7 1.5 1.5z"/>
			<path id="path1270" class="s16" d="m328.3-271.8h-9v4.6h9z"/>
			<path id="path1272" class="s16" d="m339-271.8h-9.9v4.6h9.9z"/>
			<path id="path1274" class="s16" d="m349.7-271.8h-9.9v4.6h9.9z"/>
			<path id="path1276" class="s16" d="m358.6-271.8h-8.2v4.6h8.2z"/>
			<path id="path1278" class="s16" d="m359.4-271.8v4.6h8.6v-4.6z"/>
			<path id="path1280" class="s16" d="m318.5-271.8h-11.7v4.6h11.7z"/>
			<path id="path1282" class="s6" d="m278.2-285.2c0 1.2-0.9 2.1-2.1 2.1h-3.2c-1.2 0-2.2-0.9-2.2-2.1 0-1.2 1-2.2 2.2-2.2h3.2c1.2 0 2.1 1 2.1 2.2z"/>
			<path id="path1284" class="s6" d="m289.8-281.9h6c1.6 0 3.6 0.8 4.6 1.8l6 6.5-5-9.7c-0.6-1-2.3-1.8-3.8-1.8h-6.1c-1.6 0-2.9 0.8-2.9 1.8v1.6q0.5-0.2 1.2-0.2z"/>
			<path id="path1286" class="s2" d="m310.3-318.1h-1.6v0.1h1.6z"/>
			<path id="path1288" class="s2" d="m310.4-316h-1.9v0.1h1.9z"/>
			<path id="path1290" class="s2" d="m310.6-313.2h-2.3v0.1h2.3z"/>
			<path id="path1292" class="s2" d="m310.6-313l-2.7 3.6v0.3l2.7-3.7z"/>
			<path id="path1294" class="s2" d="m310.5-315.9l-2.3 2.8v0.2l2.3-2.9z"/>
			<path id="path1296" class="s2" d="m310.3-318l-1.7 2v0.1l1.7-2z"/>
			<path id="path1298" class="s2" d="m310-319.5l-1.3 1.5v0.1l1.4-1.5z"/>
			<path id="path1300" class="s2" d="m308.9-319.5l1.3 1.5v0.1l-1.4-1.5z"/>
			<path id="path1302" class="s2" d="m308.7-317.7l1.7 1.6v0.1l-1.7-1.6z"/>
			<path id="path1304" class="s2" d="m308.6-315.9l2.2 2.8v0.2l-2.2-2.9z"/>
			<path id="path1306" class="s2" d="m308.4-313.2l2.6 3.3v0.2l-2.7-3.4z"/>
			<path id="path1308" class="s2" d="m307.9-306.2h-0.4l1.3-14.8h0.2z"/>
			<path id="path1310" class="s2" d="m311.1-306.2h0.4l-1.3-14.8h-0.2z"/>
			<path id="path1312" class="s2" d="m312.4-320.6h-11.2v-0.4h11.2z"/>
			<path id="path1314" class="s2" d="m310.7-320.8h-2l0.5-2.9z"/>
			<path id="path1316" class="s2" d="m329.6-300.5h-6.6l0.7 3.4 5.5-2.2 0.4-0.1z"/>
			<path id="path1318" class="s2" d="m331.4-295.9h-7.7l0.9 3.4 6.7-2.2h0.1z"/>
			<path id="path1320" class="s2" d="m340.5-283.1h-2.4v-4.3h2.4z"/>
			<path id="path1322" class="s15" d="m421.6-250.5l-12.4-7.5v-1.1l12.4 7.5z"/>
			<path id="path1324" class="s15" d="m429.6-259.1h-12.7v-1.2h12.7z"/>
			<path id="path1326" class="s2" d="m131.9-257h-0.4v-19.3h0.4z"/>
			<path id="path1328" class="s2" d="m174.3-264.6h-0.4v-6.3h0.4z"/>
			<path id="path1330" class="s2" d="m172.1-262h-0.4v-6.3h0.4z"/>
			<path id="path1332" class="s2" d="m149.8-265.3h-0.4v-6.4h0.4z"/>
			<path id="path1334" class="s2" d="m141.2-264.2h-0.4v-6.3h0.4z"/>
			<path id="path1336" class="s2" d="m136-265.7h-0.4v-6.3h0.4z"/>
			<path id="path1338" class="s2" d="m31.1-265.7h-0.3v-6.3h0.3z"/>
			<path id="path1340" class="s2" d="m27-266.1h-0.3v-6.3h0.3z"/>
			<path id="path1342" class="s2" d="m32.1-262.9h2.2v-8.6h-2.2z"/>
			<path id="path1344" class="s2" d="m145.5-261.8h2.2v-8.6h-2.2z"/>
			<path id="path1346" class="s2" d="m158.9-259.8h10.4v-8.5h-10.4z"/>
			<path id="path1348" class="s2" d="m176.3-262.3h4.5v-4.9h-4.5z"/>
			<path id="path1350" class="s19" d="m63.4-309.3c0 1.7 1.4 3.1 3.1 3.1 1.7 0 3.1-1.4 3.1-3.1 0-1.7-1.4-3.1-3.1-3.1-1.7 0-3.1 1.4-3.1 3.1z"/>
			<path id="path1352" class="s19" d="m51.1-279.4c-0.2 1 0.5 1.8 1.6 1.8h18.6c1.2 0 2.1-0.9 1.9-2.1l-2.5-24.5c-0.1-0.7-0.9-1.4-1.9-1.4h-11.9c-1 0-1.9 0.8-2 1.6z"/>
			<path id="path1354" class="s20" d="m65.5-283.2l-2.2-21.3c-0.1-0.4-0.4-0.8-0.7-1.1h6.2c1 0 1.8 0.7 1.9 1.4l2.2 21z"/>
			<path id="path1356" class="s19" d="m49.2-267.9c-0.2 1 0.6 1.8 1.6 1.8h54.1c1.1 0 1.9-0.8 1.9-1.8v-24.5c0-0.9-0.8-1.6-1.7-1.6h-50c-1 0-1.9 0.7-2.1 1.6z"/>
			<path id="path1358" class="s20" d="m95.7-294h9.4c0.9 0 1.7 0.7 1.7 1.6v24.5c0 1-0.8 1.8-1.9 1.8h-9.2z"/>
			<path id="path1360" class="s2" d="m48.1-257.7c-0.2 1.2 0.6 2.1 1.8 2.1h65.5c1.2 0 2-0.9 1.8-2.1l-3-23c-0.1-0.9-1-1.7-2.1-1.7h-59c-1 0-1.9 0.8-2 1.7z"/>
			<path id="path1362" class="s6" d="m107-282.4h5.1c1.1 0 2 0.8 2.1 1.7l3 23c0.2 1.2-0.6 2.1-1.8 2.1h-5.7z"/>
			<path id="path1364" class="s19" d="m108.1-266.1c0 1 0.8 1.8 1.8 1.8h13.4c1 0 1.9-0.8 1.9-1.8v-7.2c0-1.1-0.9-1.9-1.9-1.9h-13.4c-1 0-1.8 0.8-1.8 1.9z"/>
			<path id="path1366" class="s19" d="m76.6-261.2c0 1 0.8 1.9 1.8 1.9h13.4c1 0 1.9-0.9 1.9-1.9v-7.2c0-1-0.9-1.8-1.9-1.8h-13.4c-1 0-1.8 0.8-1.8 1.8z"/>
			<path id="path1368" class="s19" d="m37.9-261.4c0 1 0.8 1.8 1.8 1.8h13.4c1.1 0 1.9-0.8 1.9-1.8v-7.2c0-1-0.8-1.9-1.9-1.9h-13.4c-1 0-1.8 0.9-1.8 1.9z"/>
			<path id="path1370" class="s17" d="m60.9-282c0 0.7 0.7 1.4 1.4 1.4h33.5c0.7 0 1.3-0.7 1.3-1.4 0-0.8-0.6-1.4-1.3-1.4h-33.5c-0.7 0-1.4 0.6-1.4 1.4z"/>
			<path id="path1372" class="s0" d="m101.9-292.5h3.4v2.9h-3.4z"/>
			<path id="path1374" class="s0" d="m101.4-292.5v2.9h-5v-2.9z"/>
			<path id="path1376" class="s0" d="m95.9-292.5v2.9h-6.4v-2.9z"/>
			<path id="path1378" class="s0" d="m89-292.5v2.9h-6.7v-2.9z"/>
			<path id="path1380" class="s0" d="m64.4-290.3h13.2v-1.7h-13.2z"/>
			<path id="path1382" class="s0" d="m55.2-280.6h34.3v1.9h-34.3z"/>
			<path id="path1384" class="s2" d="m54.3-305.6c0 0.6 0.5 1.1 1.2 1.1h15.7c0.7 0 1.1-0.5 1.1-1.1 0-0.6-0.4-1.1-1.1-1.1h-15.7c-0.7 0-1.2 0.5-1.2 1.1z"/>
			<path id="path1386" class="s6" d="m4.7-281.8c0 1.1 0.8 1.9 1.8 1.9h10.4c1.1 0 1.9-0.8 1.9-1.9v-1.7c0-1-0.8-1.9-1.9-1.9h-10.4c-1 0-1.8 0.9-1.8 1.9z"/>
			<path id="path1388" class="s19" d="m12.1-266.1c0 1-0.8 1.8-1.9 1.8h-0.5c-1 0-1.8-0.8-1.8-1.8v-13.9c0-1 0.8-1.9 1.8-1.9h0.5c1.1 0 1.9 0.9 1.9 1.9z"/>
			<path id="path1390" class="s17" d="m22.3-272.5c0 1.1-0.9 1.9-2 1.8l-8.2-0.8c-1-0.1-1.7-1-1.7-2.1v-19.8c0-1 0.7-1.9 1.7-2l8.2-0.7c1.1-0.1 2 0.7 2 1.9z"/>
			<path id="path1392" class="s0" d="m-1.3-244.7h104.4c0.1-5.1 4.2-9.2 9.3-9.2h60.7c5.2 0 9.3 4.2 9.3 9.3 0 5.2-4.1 9.3-9.3 9.3h-35.8-24.9-113.7c-2.6 0-4.7-2.1-4.7-4.7 0-2.6 2.1-4.7 4.7-4.7z"/>
			<path id="path1394" class="s17" d="m5.7-244.2c0 0.3 0.4 0.5 1 0.5h91.9c12.4 0 46.1-0.5 72.9-9.9 11.4-4 27.4-8.1 16.4-10.4-1.2-0.3-50.2-3.7-53.6-3.7h-127.2c-0.8 0-1.4 0.9-1.4 2z"/>
			<path id="path1396" class="s0" d="m178.4-257.5c-26.8 9.4-60.5 9.9-72.9 9.9h-91.9c-0.6 0-1.1-0.2-1.1-0.5v-19.6h-5.4c-0.8 0-1.4 0.9-1.4 2v21.5c0 0.3 0.4 0.5 1 0.5h91.9c12.4 0 46.1-0.5 72.9-9.9 8.6-3 19.7-6.1 20.1-8.4-3.9 1.4-8.9 3-13.2 4.5z"/>
			<path id="path1398" class="s19" d="m159.9-256.8c5.4 0 14.6 2.1 11.6 3.2-26.8 9.4-60.5 9.9-72.9 9.9h-100.8c-0.6 0-1.1-0.2-1.1-0.5l9-12.6z"/>
			<path id="path1400" class="s6" d="m101.9-257.8c0 0.8 0.6 1.5 1.4 1.5h13.2c0.8 0 1.5-0.7 1.5-1.5 0-0.9-0.7-1.5-1.5-1.5h-13.2c-0.8 0-1.4 0.6-1.4 1.5z"/>
			<path id="path1402" class="s6" d="m51.9-257.8c0 0.8 0.7 1.5 1.5 1.5h13.1c0.8 0 1.5-0.7 1.5-1.5 0-0.9-0.7-1.5-1.5-1.5h-13.1c-0.8 0-1.5 0.6-1.5 1.5z"/>
			<path id="path1404" class="s6" d="m119.5-247.9h2.7v-5.7h-2.7z"/>
			<path id="path1406" class="s6" d="m115.5-247.9h2.7v-5.7h-2.7z"/>
			<path id="path1408" class="s6" d="m12.8-247.9h2.8v-5.7h-2.8z"/>
			<path id="path1410" class="s6" d="m8.9-247.9h2.7v-5.7h-2.7z"/>
			<path id="path1412" class="s21" d="m-5.1-242.7c0.4 2.1 2.3 3.7 4.6 3.7h113.6 25 35.8c3.8 0 7.1-2.3 8.5-5.6 0 5.2-4.1 9.3-9.3 9.3h-35.8-24.9-113.7c-2.6 0-4.7-2.1-4.7-4.7 0-1 0.3-1.9 0.9-2.7z"/>
			<path id="path1414" class="s17" d="m70.7-287.4h9.4v-0.9h-9.4z"/>
			<path id="path1416" class="s17" d="m89.9-284.8h4.6v-1.7h-4.6z"/>
			<path id="path1418" class="s17" d="m83.7-284.5h4.6v-1.7h-4.6z"/>
			<path id="path1420" class="s4" d="m189.6-262.5c-1.2-0.3-51.6-3.8-55.1-3.8h-128.8c0.2-0.8 0.8-1.4 1.4-1.4h127.2c3.4 0 52.4 3.4 53.6 3.7 2.7 0.5 3.8 1.2 3.7 2q-0.8-0.3-2-0.5z"/>
			<path id="path1422" class="s16" d="m117.2-277.8l8.1-3.9-0.1-0.2-8.1 4z"/>
			<path id="path1424" class="s2" d="m119.2-278.4l2.7-1.3-0.4-0.9-2.8 1.4z"/>
			<path id="path1426" class="s20" d="m112-275.2c-0.2-1 0.4-2 1.1-3.1 0.9-1.4 1.7-2.5 3-2.2l2.3 0.5c1.1 0.2 1.5 1.1 2 2.5 0.3 0.7 0.3 1.6 0.1 2.3z"/>
			<path id="path1428" class="s3" d="m171.5-253.6q-0.7 0.2-1.4 0.5c-2.7-0.7-6.3-1.1-9-1.1h-157.3l1.9-2.6h154.2c5.4 0 14.6 2.1 11.6 3.2z"/>
			<path id="path1430" class="s19" d="m21.2-290.5l-10.8 0.6v-3.5c0-1 0.7-1.9 1.7-2l8.2-0.7c1.1-0.1 2 0.7 2 1.9v3.8q-0.5-0.2-1.1-0.1z"/>
			<path id="path1432" class="s15" d="m22.1-275.6h0.2v3.1c0 1.1-0.9 1.9-2 1.8l-8.2-0.8c-1-0.1-1.7-1-1.7-2.1v-2.9z"/>
			<path id="path1434" class="s3" d="m66.8-62.9c0 1.5 1.2 2.7 2.7 2.7 1.5 0 2.8-1.2 2.8-2.7v-8.2c0-1.6-1.3-2.8-2.8-2.8-1.5 0-2.7 1.2-2.7 2.8z"/>
			<path id="path1436" class="s22" d="m52.5-25.4h34l-10.7-43.2h-12.5z"/>
			<path id="path1438" class="s0" d="m61.9-63l1.4-5.6h12.5l1.4 5.6z"/>
			<path id="path1440" class="s0" d="m79.5-53.7l2.2 8.8h-24.3l2.2-8.8z"/>
			<path id="path1442" class="s0" d="m84-35.6l2.5 10.2h-34l2.6-10.2z"/>
			<path id="path1444" class="s23" d="m86.5-25.4l-2.5-10.2h-13.9v-9.3h11.6zm-5.4-21.7l-1.7-6.6h-9.4v-9.3h7.1l-1.3-5.6z"/>
			<path id="path1446" class="s24" d="m77.2-63h-7.1v-5.6h5.7z"/>
			<path id="path1448" class="s24" d="m81.7-44.9h-11.6v-8.8h9.4l1.6 6.6z"/>
			<path id="path1450" class="s24" d="m86.5-25.4h-16.4v-10.2h13.9z"/>
			<path id="path1452" class="s22" d="m61.3-69.6c0 0.6 0.5 1.1 1.1 1.1h14c0.6 0 1.1-0.5 1.1-1.1 0-0.6-0.5-1.1-1.1-1.1h-14c-0.6 0-1.1 0.5-1.1 1.1z"/>
			<path id="path1454" class="s3" d="m474.3-151.6c0 1.5 1.2 2.8 2.7 2.8 1.5 0 2.7-1.3 2.7-2.8v-8.2c0-1.5-1.2-2.7-2.7-2.7-1.5 0-2.7 1.2-2.7 2.7z"/>
			<path id="path1456" class="s22" d="m460-114h34l-10.7-43.2h-12.6z"/>
			<path id="path1458" class="s4" d="m469.3-151.6l1.4-5.6h12.6l1.4 5.6z"/>
			<path id="path1460" class="s4" d="m486.9-142.3l2.2 8.8h-24.2l2.1-8.8z"/>
			<path id="path1462" class="s4" d="m491.4-124.3l2.6 10.3h-34l2.6-10.3z"/>
			<path id="path1464" class="s23" d="m494-114l-2.6-10.3h-13.9v-9.2h11.6l-2.2-8.8h-9.4v-9.3h7.2l-1.4-5.6z"/>
			<path id="path1466" class="s25" d="m484.7-151.6h-7.2v-5.6h5.8z"/>
			<path id="path1468" class="s25" d="m489.1-133.5h-11.6v-8.8h9.4z"/>
			<path id="path1470" class="s25" d="m494-114h-16.5v-10.3h13.9z"/>
			<path id="path1472" class="s22" d="m468.8-158.2c0 0.6 0.5 1.1 1.1 1.1h14c0.6 0 1-0.5 1-1.1 0-0.6-0.4-1.1-1-1.1h-14c-0.6 0-1.1 0.5-1.1 1.1z"/>
			<path id="path1474" fill-rule="evenodd" class="s4" d="m130.4-51.4c1.4 0 2.5 1.2 2.5 2.6 0 1.4-1.1 2.6-2.5 2.6-1.4 0-2.5-1.2-2.5-2.6 0-1.4 1.1-2.6 2.5-2.6zm0 4c0.7 0 1.3-0.6 1.3-1.4 0-0.7-0.6-1.3-1.3-1.3-0.7 0-1.3 0.6-1.3 1.3 0 0.8 0.6 1.4 1.3 1.4z"/>
			<path id="path1476" fill-rule="evenodd" class="s26" d="m130.5-47.4c0.7-0.1 1.2-0.6 1.2-1.3 0 0.7-0.5 1.2-1.2 1.3zm1.2-1.5c0-0.7-0.5-1.2-1.2-1.2 0.7 0 1.2 0.5 1.2 1.2zm1.2 0.4q0 0 0 0 0 0 0 0zm0-0.1zm0 0q0 0 0 0 0 0 0 0zm0 0q0 0 0 0 0 0 0 0zm0 0q0 0 0 0 0 0 0 0zm0 0q0 0 0 0 0 0 0 0zm0 0q0 0 0-0.1 0 0.1 0 0.1zm0-0.1q0 0 0 0 0 0 0 0zm0 0q0 0 0 0 0 0 0 0zm0 0q0 0 0 0 0 0 0 0zm0 0q0 0 0 0 0 0 0 0zm-1.2 0q0 0 0 0 0 0 0 0zm1.2 0q0 0 0 0 0 0 0 0zm-1.2 0q0 0 0 0 0 0 0 0zm1.2 0q0 0 0-0.1 0 0.1 0 0.1zm-1.2 0q0 0 0-0.1 0 0.1 0 0.1zm0-0.1q0 0 0 0 0 0 0 0zm1.2 0q0 0 0 0 0 0 0 0zm-1.2 0q0 0 0 0 0 0 0 0zm0 0q0 0 0 0 0 0 0 0zm1.2 0q0 0 0 0 0 0 0 0zm-1.2 0q0 0 0 0 0 0 0 0zm1.2 0q0 0 0 0 0 0 0 0zm-1.2 0q0 0 0 0 0 0 0 0zm0 0q0 0 0 0 0 0 0 0zm1.2 0q0 0 0 0 0 0 0 0zm-1.2 0q0 0 0 0 0 0 0 0zm0 0q0 0 0 0 0 0 0 0zm1.2 0q0 0 0 0 0 0 0 0zm-1.2 0q0 0 0 0 0 0 0 0zm0 0q0 0 0-0.1 0 0.1 0 0.1zm1.2-0.1q0 0 0 0 0 0 0 0zm-1.2 0q0 0 0 0 0 0 0 0zm1.2 0q0 0 0 0 0 0 0 0zm0 0q0 0 0 0 0 0 0 0zm0 0q0 0 0 0 0 0 0 0zm0 0q0 0 0 0 0 0 0 0zm0 0q0 0 0 0 0 0 0 0zm0-0.1q0 0 0 0 0 0 0 0zm0 0q0 0 0 0 0 0 0 0zm0 0q0 0 0 0 0 0 0 0zm0 0q0 0 0 0 0 0 0 0zm0 0q0 0 0 0 0 0 0 0zm0 0z"/>
			<path id="path1478" class="s27" d="m132.2-46.9q-0.8-0.2-1.6-0.2 0 0 0 0 0 0 0 0 0 0 0 0 0 0-0.1 0 0 0 0 0 0 0 0 0 0 0 0 0 0 0 0 0 0 0 0 0v-0.3c0.7-0.1 1.2-0.6 1.2-1.3q0 0 0 0 0 0 0 0 0 0 0 0 0 0 0-0.1 0 0 0 0 0 0 0 0 0 0 0 0 0 0 0 0 0 0 0 0 0 0 0 0 0 0 0 0 0 0 0 0 0 0 0 0 0 0 0 0 0 0 0 0 0 0 0 0 0 0 0 0 0 0 0 0 0 0 0 0 0 0 0 0 0 0 0 0 0 0 0 0 0 0 0 0 0 0 0-0.1 0 0 0 0 0 0 0 0c0-0.7-0.5-1.2-1.2-1.2v-1.3c1.3 0 2.3 1 2.4 2.3q0 0.1 0 0.1 0 0 0 0 0 0 0 0 0 0 0 0 0 0 0 0 0 0 0 0 0 0 0 0 0 0 0 0 0 0 0 0 0 0 0 0 0 0 0 0 0 0.1 0 0.1 0 0 0 0 0 0 0 0 0 0 0 0 0 0 0 0 0 0 0 0 0 0 0 0 0 0 0 0 0 0 0 0 0 0 0 0 0 0 0 0 0 0 0 0 0 0.1 0 0.1 0 0 0 0 0 0 0 0 0 0 0 0 0 0 0 0 0 0 0 0 0 0 0 0 0 0 0 0 0 0 0 0 0 0 0 0 0 0.1 0 0.1 0 0 0 0 0 0 0 0 0 0 0 0 0 0 0 0 0 0 0 0 0 0 0 0 0 0 0 0 0 0 0 0 0 0 0 0 0 0 0 0 0 0 0 0.1 0 0 0 0 0 0 0 0 0 0 0 0 0 0 0 0 0 0 0 0 0 0 0 0 0 0 0 0 0 0 0 0 0 0 0 0 0 0 0 0 0 0 0 0.1 0 0 0 0 0 0 0 0c0 0.6-0.3 1.1-0.7 1.6z"/>
			<path id="path1480" class="s22" d="m119.9-36.2c0 6 4.7 10.8 10.5 10.8 5.9 0 10.6-4.8 10.6-10.8 0-6-4.7-10.9-10.6-10.9-5.8 0-10.5 4.9-10.5 10.9z"/>
			<path id="path1482" class="s4" d="m125.7-45.9c1.4-0.8 3.1-1.2 4.7-1.2 1.7 0 3.3 0.4 4.8 1.2z"/>
			<path id="path1484" class="s4" d="m139.9-40.9c0.7 1.3 1 2.8 1.1 4.4h-21.1c0.1-1.6 0.4-3.1 1-4.4z"/>
			<path id="path1486" class="s4" d="m136.8-27.6h-12.7c-1.3-1-2.4-2.4-3.2-4h19.1c-0.8 1.6-1.9 3-3.2 4z"/>
			<path id="path1488" fill-rule="evenodd" class="s26" d="m141-35.4q0 0 0 0 0 0 0 0zm0 0q0 0 0 0zm0-0.1q0 0 0 0 0 0 0 0zm0 0zm0 0q0 0 0 0 0 0 0 0zm0-0.1q0 0 0 0 0 0 0 0zm0 0q0 0 0 0 0 0 0 0zm0 0q0 0 0 0 0 0 0 0zm0-0.1q0 0 0 0 0 0 0 0zm0 0q0 0 0 0 0 0 0 0zm0 0q0 0 0-0.1 0 0.1 0 0.1zm0-0.1q0 0 0 0 0 0 0 0zm0 0q0 0 0 0 0 0 0 0zm0 0q0-0.1 0-0.1 0 0 0 0.1zm0-0.1q0 0 0 0 0 0 0 0zm0 0q0 0 0 0 0 0 0 0zm0-0.1q0 0 0 0 0 0 0 0zm0 0q0 0 0 0 0 0 0 0zm0 0q0 0 0 0 0 0 0 0zm0-0.1q0 0 0 0 0 0 0 0zm0 0q0 0 0 0 0 0 0 0zm0 0q0 0 0 0 0 0 0 0zm0-0.1q0 0 0 0 0 0 0 0zm0 0q0 0 0 0 0 0 0 0zm0 0q0 0 0-0.1 0 0.1 0 0.1zm0-0.1q0 0 0 0 0 0 0 0zm0 0q0 0 0 0 0 0 0 0zm0 0q0-0.1 0-0.1 0 0 0 0.1zm0-0.1q0 0 0 0 0 0 0 0zm0 0q0 0 0 0 0 0 0 0zm0-0.1q0 0 0 0 0 0 0 0zm0 0q0 0 0 0 0 0 0 0zm0 0q0 0 0 0 0 0 0 0zm0-0.1q0 0 0 0 0 0 0 0zm0 0q0 0 0 0 0 0 0 0zm0 0q0 0 0-0.1 0 0.1 0 0.1zm0-0.1q0 0 0 0 0 0 0 0zm0 0q0 0 0 0 0 0 0 0zm0 0q0 0 0-0.1 0 0.1 0 0.1zm0-0.1q0 0 0 0 0 0 0 0zm0 0q0 0 0 0 0 0 0 0zm0 0q0-0.1 0-0.1 0 0 0 0.1zm0-0.1q0 0 0 0 0 0 0 0zm0 0q0 0 0 0 0 0 0 0zm0-0.1q0 0 0 0 0 0 0 0zm0 0q0 0 0 0 0 0 0 0zm0 0q0 0 0 0 0 0 0 0zm0-0.1q0 0 0 0 0 0 0 0zm0 0q0 0 0 0 0 0 0 0zm0 0q0 0 0 0 0 0 0 0zm-0.1-0.1q0 0 0 0 0 0 0 0zm0 0q0 0 0 0 0 0 0 0zm0 0q0 0 0 0 0 0 0 0zm0-0.1q0 0 0 0 0 0 0 0zm0 0q0 0 0 0 0 0 0 0zm0 0q0 0 0 0 0 0 0 0zm0-0.1q0 0 0 0 0 0 0 0zm0 0q0 0 0 0 0 0 0 0zm0 0q0 0 0 0 0 0 0 0zm0-0.1q0 0 0 0 0 0 0 0zm0 0q0 0 0 0 0 0 0 0zm0 0q0 0 0 0 0 0 0 0zm0-0.1q0 0 0 0 0 0 0 0zm0 0q0 0 0 0 0 0 0 0zm0 0q0 0 0 0zm0-0.1q0 0 0 0 0 0 0 0zm0 0q0 0 0 0 0 0 0 0zm0 0q0 0 0 0 0 0 0 0z"/>
			<path id="path1490" class="s22" d="m130.5-25.4v-2.2h6.3c1.3-1 2.4-2.4 3.2-4h-9.5v-4.9h10.5c-0.1-1.6-0.4-3.1-1.1-4.4h-9.4v-5h4.7q-1.3-0.7-2.7-1c4.3 0.9 7.7 4.5 8.4 9.1q0 0 0 0 0 0 0 0.1 0 0 0 0 0 0 0 0 0 0 0 0 0 0 0 0 0 0 0 0 0 0 0 0.1 0 0 0 0 0 0 0 0 0 0 0 0 0 0 0 0 0 0 0 0 0 0 0 0.1 0 0 0 0 0 0 0 0 0 0 0 0 0 0 0 0 0 0 0 0 0 0 0 0.1 0 0 0 0 0 0 0 0 0 0 0 0 0 0 0 0 0 0 0 0 0 0 0 0.1 0 0 0 0 0 0 0 0 0 0 0 0 0 0 0 0 0 0 0 0 0 0.1 0 0.1 0 0 0 0 0 0 0 0 0 0 0 0 0 0 0 0 0 0 0 0 0 0.1 0 0.1 0 0 0.1 0 0 0 0 0 0 0 0 0 0 0 0 0 0 0 0 0 0 0.1 0 0.1 0 0 0 0 0 0 0 0 0 0 0 0 0 0 0 0 0 0 0 0.1 0 0 0 0 0 0 0 0 0 0 0 0 0 0 0 0 0 0 0 0 0 0 0 0.1 0 0 0 0 0 0 0 0 0 0 0 0 0 0 0 0 0 0 0 0 0 0.1 0 0.1 0 0 0 0 0 0 0 0 0 0 0 0 0 0 0 0 0 0 0 0 0 0.1 0 0.1 0 0 0 0 0 0 0 0 0 0 0 0 0 0 0 0 0 0 0 0.1 0 0 0 0 0 0 0 0 0 0 0 0 0 0 0 0 0 0 0 0 0 0 0 0.1 0 0 0 0 0 0 0 0 0 0 0 0 0 0 0 0 0 0 0 0.1 0 0 0 0 0 0 0 0 0 0 0 0 0 0 0 0 0 0 0 0 0 0.1 0 0.1 0 0 0 0 0 0 0 0 0 0 0 0 0 0 0 0.1 0 0 0 0 0 0 0 0 0 0 0 0 0 0 0 0 0 0 0 0 0 0.1 0 0.1 0 0 0 0 0 0 0 0 0 0 0 0 0 0 0 0 0 0 0 0 0 0.1 0 0.1 0 0 0 0 0 0 0 0 0 0 0 0 0 0 0 0 0 0 0 0.1 0 0 0 0 0 0 0 0 0 0 0 0 0 0 0 0 0 0 0 0 0 0.1 0 0.1 0 0 0 0 0 0 0 0 0 0 0 0 0 0 0 0 0 0 0 0.1 0 0 0 0 0 0 0 0 0 0 0 0 0 0 0 0 0 0 0 0 0 0 0 0.1 0 0 0 0 0 0 0 0 0 0 0 0 0 0 0 0 0 0 0 0.1 0 0 0 0 0 0 0 0 0 0 0 0 0 0.1-0.1 0.1c-0.4 5.5-4.9 9.9-10.4 9.9z"/>
			<path id="path1492" class="s27" d="m135.2-45.9h-4.7v-1.2q1 0 2 0.2 1.4 0.3 2.7 1z"/>
			<path id="path1494" class="s27" d="m141-36.5h-10.5v-4.4h9.4c0.7 1.3 1 2.8 1.1 4.4z"/>
			<path id="path1496" class="s27" d="m136.8-27.6h-6.3v-4h9.5c-0.8 1.6-1.9 3-3.2 4z"/>
			<path id="path1498" fill-rule="evenodd" class="s0" d="m420.5-140c1.4 0 2.6 1.1 2.6 2.6 0 1.4-1.2 2.6-2.6 2.6-1.4 0-2.5-1.2-2.5-2.6 0-1.5 1.1-2.6 2.5-2.6zm0 3.9c0.8 0 1.3-0.6 1.3-1.3 0-0.8-0.5-1.4-1.3-1.4-0.7 0-1.3 0.6-1.3 1.4 0 0.7 0.6 1.3 1.3 1.3z"/>
			<path id="path1500" fill-rule="evenodd" class="s26" d="m420.6-136.1c0.7 0 1.2-0.6 1.2-1.3 0 0.7-0.5 1.3-1.2 1.3zm1.2-1.4c0-0.7-0.5-1.3-1.2-1.3 0.7 0 1.2 0.6 1.2 1.3zm1.2 0.4q0 0 0 0 0 0 0 0zm0-0.1q0 0 0 0 0 0 0 0zm0 0q0 0 0 0 0 0 0 0zm0.1 0q0 0 0 0 0 0 0 0zm0 0q0 0 0 0 0 0 0 0zm0 0q0 0 0 0 0 0 0 0zm0 0q0 0 0 0 0 0 0 0zm0-0.1q0 0 0 0 0 0 0 0zm0 0q0 0 0 0 0 0 0 0zm0 0q0 0 0 0 0 0 0 0zm0 0q0 0 0 0 0 0 0 0zm0 0q0 0 0 0 0 0 0 0zm0 0q0 0 0 0 0 0 0 0zm0-0.1q0 0 0 0 0 0 0 0zm-1.3 0q0 0 0 0 0 0 0 0zm0 0q0 0 0 0 0 0 0 0zm1.3 0q0 0 0 0 0 0 0 0zm-1.3 0q0 0 0 0 0 0 0 0zm1.3 0q0 0 0 0 0 0 0 0zm-1.3 0q0 0 0 0 0 0 0 0zm0 0q0 0 0 0 0 0 0 0zm1.3 0q0 0 0 0 0 0 0 0zm-1.3 0q0 0 0 0 0 0 0 0zm0 0q0 0 0 0 0 0 0 0zm1.3 0q0 0 0 0 0 0 0 0zm-1.3 0q0 0 0 0 0 0 0 0zm1.3 0q0 0 0-0.1 0 0.1 0 0.1zm-1.3 0q0 0 0-0.1 0 0.1 0 0.1zm0-0.1q0 0 0 0 0 0 0 0zm1.3 0q0 0 0 0 0 0 0 0zm-1.3 0q0 0 0 0 0 0 0 0zm0 0q0 0 0 0 0 0 0 0zm1.3 0q0 0 0 0 0 0 0 0zm-1.3 0q0 0 0 0 0 0 0 0zm0 0q0 0 0 0 0 0 0 0zm1.3 0q0 0 0 0 0 0 0 0zm-1.3 0q0 0 0 0 0 0 0 0zm0 0q0 0 0 0 0 0 0 0zm1.3 0q0 0 0 0 0 0 0 0zm0 0q0 0 0 0 0 0 0 0zm0 0q0-0.1 0-0.1 0 0 0 0.1zm0-0.1q0 0 0 0 0 0 0 0zm0 0q0 0 0 0 0 0 0 0zm0 0q0 0 0 0 0 0 0 0zm0 0q0 0 0 0 0 0 0 0zm0 0q0 0 0 0 0 0 0 0zm0-0.1q0 0 0 0 0 0 0 0zm0 0q0 0 0 0 0 0 0 0zm0 0q0 0 0 0 0 0 0 0z"/>
			<path id="path1502" class="s28" d="m422.3-135.6q-0.8-0.1-1.6-0.1 0 0 0 0 0 0 0 0 0 0 0 0 0 0 0 0-0.1 0-0.1 0 0 0 0 0 0 0 0 0 0 0 0 0v-0.4c0.7 0 1.2-0.6 1.2-1.3q0 0 0 0 0 0 0 0 0 0 0 0 0 0 0 0 0 0 0 0 0 0 0 0 0 0 0 0 0 0 0 0 0 0 0 0 0 0 0 0 0 0 0 0 0 0 0 0 0 0 0 0 0 0 0 0 0 0 0 0 0 0 0-0.1 0 0 0 0 0 0 0 0 0 0 0 0 0 0 0 0 0 0 0 0 0 0 0 0 0 0 0 0 0 0 0 0 0 0 0 0 0 0 0 0 0 0 0 0 0 0 0 0c0-0.7-0.5-1.3-1.2-1.3v-1.2c1.3 0 2.3 1 2.4 2.3q0 0 0.1 0 0 0 0 0 0 0 0 0 0 0 0 0 0 0 0 0 0 0 0 0 0 0.1 0 0.1 0 0 0 0 0 0 0 0 0 0 0 0 0 0 0 0 0 0 0 0 0 0 0 0 0 0 0 0 0 0 0 0 0 0 0 0 0 0 0 0 0 0 0 0.1 0 0 0 0 0 0 0 0 0 0 0 0 0 0 0 0 0 0 0 0 0 0 0 0 0 0 0 0 0 0 0 0 0 0 0 0 0 0 0 0 0 0 0 0 0 0.1 0 0.1 0 0 0 0 0 0 0 0 0 0 0 0 0 0 0 0 0 0 0 0 0 0 0 0 0 0 0 0 0 0 0 0 0 0 0 0 0 0 0 0.1 0 0 0 0 0 0 0 0 0 0 0 0 0 0 0 0 0 0 0 0 0 0 0 0 0 0 0 0 0 0 0 0 0 0 0 0 0 0 0 0 0 0 0 0 0 0 0 0.1 0 0 0 0 0 0 0 0 0 0 0 0 0 0 0 0 0 0 0 0 0 0 0 0 0 0 0 0-0.1 0-0.1 0 0 0 0 0 0 0 0 0 0 0 0 0 0 0 0 0.1 0 0 0 0c0 0.6-0.3 1.1-0.7 1.5z"/>
			<path id="path1504" class="s22" d="m410-124.9c0 6 4.7 10.9 10.6 10.9 5.8 0 10.5-4.9 10.5-10.9 0-6-4.7-10.8-10.5-10.8-5.9 0-10.6 4.8-10.6 10.8z"/>
			<path id="path1506" class="s0" d="m415.8-134.6c1.5-0.7 3.1-1.1 4.8-1.1 1.7 0 3.3 0.4 4.7 1.1z"/>
			<path id="path1508" class="s0" d="m430.1-129.6c0.6 1.4 1 2.9 1 4.4h-21.1c0.1-1.5 0.4-3 1.1-4.4z"/>
			<path id="path1510" class="s0" d="m426.9-116.2h-12.7c-1.3-1.1-2.4-2.4-3.1-4h19c-0.8 1.6-1.8 2.9-3.2 4z"/>
			<path id="path1512" fill-rule="evenodd" class="s26" d="m431.1-124q0 0 0 0zm0-0.2zm0-0.1q0 0 0 0 0 0 0 0zm0 0q0 0 0 0 0 0 0 0zm0 0q0 0 0 0 0 0 0 0zm0-0.1q0 0 0 0 0 0 0 0zm0 0q0 0 0 0 0 0 0 0zm0 0q0 0 0 0 0 0 0 0zm0-0.1q0 0 0 0 0 0 0 0zm0 0q0 0 0 0 0 0 0 0zm0 0q0 0 0 0 0 0 0 0zm0-0.1q0 0 0 0 0 0 0 0zm0 0q0 0 0 0 0 0 0 0zm0 0q0 0 0 0 0 0 0 0zm0-0.1q0 0 0 0 0 0 0 0zm0 0q0 0 0 0 0 0 0 0zm0 0q0 0 0-0.1 0 0.1 0 0.1zm0-0.1q0 0 0 0 0 0 0 0zm0 0q0 0 0 0 0 0 0 0zm0 0q0-0.1 0-0.1 0 0 0 0.1zm0-0.1q0 0 0 0 0 0 0 0zm0 0q0 0 0 0 0 0 0 0zm0-0.1q0 0 0 0 0 0 0 0zm0 0q0 0 0 0 0 0 0 0zm0 0q0 0 0-0.1 0 0.1 0 0.1zm0-0.1q0 0 0 0 0 0 0 0zm0 0q0 0 0 0 0 0 0 0zm0 0q0-0.1 0-0.1 0 0 0 0.1zm0-0.1q0 0 0 0 0 0 0 0zm0 0q0 0 0 0 0 0 0 0zm0 0q0-0.1 0-0.1 0 0 0 0.1zm0-0.1q0 0 0 0 0 0 0 0zm0 0q0 0 0 0 0 0 0 0zm0-0.1q0 0 0 0 0 0 0 0zm0 0q0 0 0 0 0 0 0 0zm0 0q0 0 0 0 0 0 0 0zm0-0.1q0 0 0 0 0 0 0 0zm0 0q0 0 0 0 0 0 0 0zm0 0q0 0 0 0 0 0 0 0zm0-0.1q0 0 0 0 0 0 0 0zm0 0q0 0 0 0 0 0 0 0zm0 0q0 0 0 0 0 0 0 0zm0-0.1q0 0 0 0 0 0 0 0zm0 0q0 0 0 0 0 0 0 0zm0 0q0 0 0 0 0 0 0 0zm0-0.1q0 0 0 0 0 0 0 0zm0 0q0 0 0 0 0 0 0 0zm0 0q0 0 0 0 0 0 0 0zm0-0.1q0 0 0 0 0 0 0 0zm0 0q0 0 0 0 0 0 0 0zm0 0q0 0 0-0.1 0 0.1 0 0.1zm-0.1-0.1q0 0 0 0 0 0 0 0zm0 0q0 0 0 0 0 0 0 0zm0 0q0-0.1 0-0.1 0 0 0 0.1zm0-0.1q0 0 0 0 0 0 0 0z"/>
			<path id="path1514" class="s22" d="m420.6-114v-2.2h6.3c1.4-1.1 2.4-2.4 3.2-4h-9.5v-5h10.5c0-1.5-0.4-3-1-4.4h-9.5v-5h4.7q-1.3-0.6-2.7-0.9c4.5 0.9 7.9 4.6 8.4 9.3q0 0 0 0 0 0.1 0 0.1 0 0 0 0 0 0 0 0 0 0 0 0 0 0.1 0 0.1 0 0 0 0 0 0 0 0 0 0 0 0 0 0 0 0 0 0 0.1 0.1 0 0 0 0 0 0 0 0 0 0 0 0 0 0 0 0 0 0 0 0 0 0 0 0.1 0 0 0 0 0 0 0 0 0 0 0 0 0 0 0 0 0 0 0 0 0 0 0 0.1 0 0 0 0 0 0 0 0 0 0 0 0 0 0 0 0 0 0 0 0 0 0 0 0.1 0 0 0 0 0 0 0 0 0 0 0 0 0 0 0 0 0 0 0 0 0 0.1 0 0.1 0 0 0 0 0 0 0 0 0 0 0 0 0 0 0 0 0 0 0 0 0 0.1 0 0.1 0 0 0 0 0 0 0 0 0 0 0 0 0 0 0 0 0 0 0 0 0 0.1 0 0.1 0 0 0 0 0 0 0 0 0 0 0 0 0 0 0 0 0 0 0 0.1 0 0 0 0 0 0 0 0 0 0 0 0 0 0 0 0 0 0 0 0 0 0 0 0.1 0 0 0 0 0 0 0 0 0 0 0 0 0 0 0 0 0 0 0 0 0 0.1 0 0.1 0 0 0 0 0 0 0 0 0 0 0 0 0 0 0 0 0 0 0 0.1 0 0 0 0 0 0 0 0 0 0 0 0 0 0 0 0.1 0 0 0 0 0 0 0 0 0 0 0 0 0 0 0 0 0 0 0 0 0 0.1 0 0.1 0 0 0 0 0 0 0 0 0 0 0 0 0 0 0 0 0 0 0 0.1 0 0 0 0 0 0 0 0 0 0 0 0 0 0 0 0 0 0 0 0 0 0 0 0.1 0 0 0 0 0 0 0 0 0 0 0 0 0 0 0 0 0 0 0 0 0 0.1 0 0.1 0 0 0 0 0 0 0 0 0 0 0 0 0 0 0 0 0 0 0 0 0 0.1 0 0.1 0 0 0 0 0 0 0 0 0 0 0 0 0 0 0 0 0 0 0 0 0 0.1 0 0.1 0 0 0 0 0 0.1 0 0.2c-0.4 5.5-5 9.9-10.5 10z"/>
			<path id="path1516" class="s28" d="m425.3-134.6h-4.7v-1.1q1.1 0 2 0.2 1.4 0.3 2.7 0.9z"/>
			<path id="path1518" class="s28" d="m431.1-125.2h-10.5v-4.4h9.5c0.6 1.4 1 2.9 1 4.4z"/>
			<path id="path1520" class="s28" d="m426.9-116.2h-6.3v-4h9.5c-0.8 1.6-1.8 2.9-3.2 4z"/>
		</g>
	</g>
</svg>