<svg version="1.2" xmlns="http://www.w3.org/2000/svg" viewBox="0 0 308 103" width="120" height="40">
	<title>44195-svg</title>
	<style>
		.s0 { fill: #254254 } 
		.s1 { fill: #008096 } 
		.s2 { fill: #29516a } 
		.s3 { fill: #f2736d } 
		.s4 { fill: #e4355c } 
		.s5 { fill: #162d38 } 
		.s6 { fill: #466480 } 
		.s7 { fill: #3b5972 } 
		.s8 { fill: #4f6d8c } 
		.s9 { fill: #36556e } 
		.s10 { fill: #5c789a } 
		.s11 { fill: #396384 } 
		.s12 { fill: #274152 } 
		.s13 { fill: #04090d } 
		.s14 { fill: #19313d } 
		.s15 { fill: #447284 } 
		.s16 { fill: #1e4559 } 
		.s17 { fill: #588399 } 
		.s18 { fill: #a5c1cc } 
		.s19 { fill: #6b99b5 } 
		.s20 { fill: #9dc0e1 } 
		.s21 { fill: #162b35 } 
		.s22 { fill: #e9f3f4 } 
		.s23 { fill: #f0f7f7 } 
		.s24 { fill: #677b88 } 
		.s25 { fill: #ec728d } 
		.s26 { fill: #f9fcfc } 
		.s27 { fill: #e66e8a } 
		.s28 { fill: #607784 } 
	</style>
	<g id="g10">
		<g id="g12">
			<path id="path14" class="s0" d="m-188.6 387.2c-0.1 0.2-0.4 0.4-0.7 0.4h-18.1c-0.3 0-0.5-0.2-0.5-0.4v-14.9c0-0.4 0.3-0.7 0.6-0.7h24.1c0.4 0 0.6 0.3 0.5 0.7z"/>
			<path id="path16" class="s0" d="m-176.4 366.8c0.6 2.4-1 4.4-3.5 4.4h-13.7c-2.5 0-4.6 3.1-4.6 0.7v-23.6c0-1.4 1.5-2.6 3.4-2.6h10.1c1.9 0 3.6 1.2 4 2.6z"/>
			<path id="path18" class="s1" d="m-195.7 347.4h10.1c1.9 0 3.7 1.2 4 2.6l4.4 18.5q0.2 0.9 0 1.6c0.8-0.8 1.1-2 0.8-3.3l-4.3-18.5c-0.4-1.4-2.1-2.6-4-2.6h-10.1c-1.9 0-3.4 1.2-3.4 2.6 0.6-0.5 1.5-0.9 2.5-0.9z"/>
			<path id="path20" class="s2" d="m-84.8 337.7c0 0.6-0.5 1.1-1.1 1.1-0.6 0-1.1-0.5-1.1-1.1v-9.4c0-0.6 0.5-1.1 1.1-1.1 0.6 0 1.1 0.5 1.1 1.1z"/>
			<path id="path22" class="s2" d="m-79.1 340.5c0 0.6-0.5 1.1-1.2 1.1-0.6 0-1.1-0.5-1.1-1.1v-9.4c0-0.6 0.5-1.1 1.1-1.1 0.7 0 1.2 0.5 1.2 1.1z"/>
			<path id="path24" class="s2" d="m-75 339.6c0 0.6-0.5 1.1-1.1 1.1-0.7 0-1.2-0.5-1.2-1.1v-9.4c0-0.6 0.5-1.1 1.2-1.1 0.6 0 1.1 0.5 1.1 1.1z"/>
			<path id="path26" class="s2" d="m-56.2 336.6c0 0.3-0.3 0.5-0.5 0.5-0.3 0-0.5-0.2-0.5-0.5v-9.3c0-0.3 0.2-0.5 0.5-0.5 0.2 0 0.5 0.2 0.5 0.5z"/>
			<path id="path28" class="s2" d="m-53.4 336.2c0 0.2-0.3 0.5-0.5 0.5-0.3 0-0.5-0.3-0.5-0.5v-9.3c0-0.3 0.2-0.5 0.5-0.5 0.2 0 0.5 0.2 0.5 0.5z"/>
			<path id="path30" class="s1" d="m-47.3 351.2c0 1.9-1.6 3.5-3.6 3.5h-45.3c-1.8 0-2.9-1.5-2.6-3.3l2-13.2c0.2-1.6 1.8-3 3.4-3l42.7-1.3c1.9-0.1 3.4 1.3 3.4 3.1z"/>
			<path id="path32" class="s1" d="m104.6 371.8c0 9.2-7.4 16.7-16.6 16.7h-206.1c-9.2 0-79.2-7.5-79.2-16.7 0-9.2 70-16.6 79.2-16.6h206.1c9.2 0 16.6 7.4 16.6 16.6z"/>
			<path id="path34" class="s0" d="m-111.9 355.2c3.9 4.5 13.6 7.8 24.9 7.8h20.8c11.3 0 21-3.3 24.9-7.8z"/>
			<path id="path36" class="s3" d="m-190.3 366.7c-2.8 1.1-4.9 2.2-6 3.3h300.8q-0.2-1.7-0.7-3.3z"/>
			<path id="path38" class="s3" d="m-42.7 355.2c-0.3-3.8-6.2-6.4-16.4-6.4h-20.6c-10.1 0-21.7 2.6-30.4 6.4z"/>
			<path id="path40" class="s2" d="m-195.2 369.1c-1.3 0.9-2.1 1.8-2.1 2.7 0 9.2 70 16.7 79.2 16.7h206.1c9.2 0 16.6-7.5 16.6-16.7q0-1.4-0.2-2.7z"/>
			<path id="path42" class="s3" d="m-47.8 335.3c-0.6-0.9-1.7-1.5-2.9-1.4l-42.7 1.3c-1.2 0-2.4 0.8-3 1.8z"/>
			<path id="path44" class="s0" d="m91.6 361.6c0 0.4-0.3 0.6-0.6 0.6h-26.4c-0.3 0-0.5-0.2-0.5-0.6v-0.6c0-0.4 0.2-0.6 0.5-0.6h26.4c0.3 0 0.6 0.2 0.6 0.6z"/>
			<path id="path46" class="s4" d="m88.7 362.3c0 0.3-0.3 0.5-0.6 0.5h-9.9c-0.3 0-0.6-0.2-0.6-0.5v-2c0-0.3 0.3-0.5 0.6-0.5h9.9c0.3 0 0.6 0.2 0.6 0.5z"/>
			<path id="path48" class="s0" d="m59.5 366.1c0 0.2 0.2 0.3 0.4 0.3h3.8c0.2 0 0.4-0.1 0.4-0.3v-1c0-0.2-0.2-0.4-0.4-0.4h-3.8c-0.2 0-0.4 0.2-0.4 0.4z"/>
			<path id="path50" class="s0" d="m54.2 366.1c0 0.2 0.2 0.3 0.4 0.3h3.8c0.2 0 0.4-0.1 0.4-0.3v-1c0-0.2-0.2-0.4-0.4-0.4h-3.8c-0.2 0-0.4 0.2-0.4 0.4z"/>
			<path id="path52" class="s0" d="m48.9 366.1c0 0.2 0.2 0.3 0.4 0.3h3.8c0.2 0 0.4-0.1 0.4-0.3v-1c0-0.2-0.2-0.4-0.4-0.4h-3.8c-0.2 0-0.4 0.2-0.4 0.4z"/>
			<path id="path54" class="s0" d="m43.6 366.1c0 0.2 0.2 0.3 0.4 0.3h3.8c0.2 0 0.4-0.1 0.4-0.3v-1c0-0.2-0.2-0.4-0.4-0.4h-3.8c-0.2 0-0.4 0.2-0.4 0.4z"/>
			<path id="path56" class="s0" d="m38.3 366.1c0 0.2 0.2 0.3 0.4 0.3h3.8c0.2 0 0.4-0.1 0.4-0.3v-1c0-0.2-0.2-0.4-0.4-0.4h-3.8c-0.2 0-0.4 0.2-0.4 0.4z"/>
			<path id="path58" class="s0" d="m33 366.1c0 0.2 0.2 0.3 0.4 0.3h3.8c0.2 0 0.4-0.1 0.4-0.3v-1c0-0.2-0.2-0.4-0.4-0.4h-3.8c-0.2 0-0.4 0.2-0.4 0.4z"/>
			<path id="path60" class="s0" d="m11.6 366.1c0 0.2 0.1 0.3 0.3 0.3h3.9c0.2 0 0.3-0.1 0.3-0.3v-1c0-0.2-0.1-0.4-0.3-0.4h-3.9c-0.2 0-0.3 0.2-0.3 0.4z"/>
			<path id="path62" class="s0" d="m6.3 366.1c0 0.2 0.1 0.3 0.3 0.3h3.9c0.2 0 0.3-0.1 0.3-0.3v-1c0-0.2-0.1-0.4-0.3-0.4h-3.9c-0.2 0-0.3 0.2-0.3 0.4z"/>
			<path id="path64" class="s0" d="m1 366.1c0 0.2 0.1 0.3 0.3 0.3h3.8c0.3 0 0.4-0.1 0.4-0.3v-1c0-0.2-0.1-0.4-0.4-0.4h-3.8c-0.2 0-0.3 0.2-0.3 0.4z"/>
			<path id="path66" class="s0" d="m-4.3 366.1c0 0.2 0.1 0.3 0.3 0.3h3.8c0.3 0 0.4-0.1 0.4-0.3v-1c0-0.2-0.1-0.4-0.4-0.4h-3.8c-0.2 0-0.3 0.2-0.3 0.4z"/>
			<path id="path68" class="s0" d="m-9.6 366.1c0 0.2 0.1 0.3 0.3 0.3h3.8c0.2 0 0.4-0.1 0.4-0.3v-1c0-0.2-0.2-0.4-0.4-0.4h-3.8c-0.2 0-0.3 0.2-0.3 0.4z"/>
			<path id="path70" class="s0" d="m-15 366.1c0 0.2 0.2 0.3 0.4 0.3h3.8c0.2 0 0.4-0.1 0.4-0.3v-1c0-0.2-0.2-0.4-0.4-0.4h-3.8c-0.2 0-0.4 0.2-0.4 0.4z"/>
			<path id="path72" class="s0" d="m-36.4 366.1c0 0.2 0.2 0.3 0.4 0.3h3.8c0.2 0 0.4-0.1 0.4-0.3v-1c0-0.2-0.2-0.4-0.4-0.4h-3.8c-0.2 0-0.4 0.2-0.4 0.4z"/>
			<path id="path74" class="s0" d="m-41.7 366.1c0 0.2 0.2 0.3 0.4 0.3h3.8c0.2 0 0.4-0.1 0.4-0.3v-1c0-0.2-0.2-0.4-0.4-0.4h-3.8c-0.2 0-0.4 0.2-0.4 0.4z"/>
			<path id="path76" class="s0" d="m-47 366.1c0 0.2 0.2 0.3 0.4 0.3h3.8c0.2 0 0.4-0.1 0.4-0.3v-1c0-0.2-0.2-0.4-0.4-0.4h-3.8c-0.2 0-0.4 0.2-0.4 0.4z"/>
			<path id="path78" class="s0" d="m-52.3 366.1c0 0.2 0.2 0.3 0.4 0.3h3.8c0.2 0 0.3-0.1 0.3-0.3v-1c0-0.2-0.1-0.4-0.3-0.4h-3.8c-0.2 0-0.4 0.2-0.4 0.4z"/>
			<path id="path80" class="s0" d="m-57.6 366.1c0 0.2 0.1 0.3 0.4 0.3h3.8c0.2 0 0.3-0.1 0.3-0.3v-1c0-0.2-0.1-0.4-0.3-0.4h-3.8c-0.3 0-0.4 0.2-0.4 0.4z"/>
			<path id="path82" class="s0" d="m-62.9 366.1c0 0.2 0.1 0.3 0.4 0.3h3.8c0.2 0 0.3-0.1 0.3-0.3v-1c0-0.2-0.1-0.4-0.3-0.4h-3.8c-0.3 0-0.4 0.2-0.4 0.4z"/>
			<path id="path84" class="s5" d="m7.7 370.8c0 0.2 0.2 0.4 0.4 0.4h3.8c0.2 0 0.4-0.2 0.4-0.4v-0.9c0-0.2-0.2-0.4-0.4-0.4h-3.8c-0.2 0-0.4 0.2-0.4 0.4z"/>
			<path id="path86" class="s5" d="m2.4 370.8c0 0.2 0.2 0.4 0.4 0.4h3.8c0.2 0 0.4-0.2 0.4-0.4v-0.9c0-0.2-0.2-0.4-0.4-0.4h-3.8c-0.2 0-0.4 0.2-0.4 0.4z"/>
			<path id="path88" class="s5" d="m-2.9 370.8c0 0.2 0.2 0.4 0.4 0.4h3.8c0.2 0 0.4-0.2 0.4-0.4v-0.9c0-0.2-0.2-0.4-0.4-0.4h-3.8c-0.2 0-0.4 0.2-0.4 0.4z"/>
			<path id="path90" class="s5" d="m-8.2 370.8c0 0.2 0.2 0.4 0.4 0.4h3.8c0.2 0 0.4-0.2 0.4-0.4v-0.9c0-0.2-0.2-0.4-0.4-0.4h-3.8c-0.2 0-0.4 0.2-0.4 0.4z"/>
			<path id="path92" class="s5" d="m-13.5 370.8c0 0.2 0.2 0.4 0.4 0.4h3.8c0.2 0 0.3-0.2 0.3-0.4v-0.9c0-0.2-0.1-0.4-0.3-0.4h-3.8c-0.2 0-0.4 0.2-0.4 0.4z"/>
			<path id="path94" class="s5" d="m-18.8 370.8c0 0.2 0.1 0.4 0.4 0.4h3.8c0.2 0 0.3-0.2 0.3-0.4v-0.9c0-0.2-0.1-0.4-0.3-0.4h-3.8c-0.3 0-0.4 0.2-0.4 0.4z"/>
			<path id="path96" class="s5" d="m-32 370.8c0 0.2 0.2 0.4 0.4 0.4h3.8c0.2 0 0.4-0.2 0.4-0.4v-0.9c0-0.2-0.2-0.4-0.4-0.4h-3.8c-0.2 0-0.4 0.2-0.4 0.4z"/>
			<path id="path98" class="s5" d="m-37.3 370.8c0 0.2 0.2 0.4 0.4 0.4h3.8c0.2 0 0.4-0.2 0.4-0.4v-0.9c0-0.2-0.2-0.4-0.4-0.4h-3.8c-0.2 0-0.4 0.2-0.4 0.4z"/>
			<path id="path100" class="s5" d="m-42.6 370.8c0 0.2 0.2 0.4 0.4 0.4h3.8c0.2 0 0.4-0.2 0.4-0.4v-0.9c0-0.2-0.2-0.4-0.4-0.4h-3.8c-0.2 0-0.4 0.2-0.4 0.4z"/>
			<path id="path102" class="s5" d="m-47.9 370.8c0 0.2 0.2 0.4 0.4 0.4h3.8c0.2 0 0.4-0.2 0.4-0.4v-0.9c0-0.2-0.2-0.4-0.4-0.4h-3.8c-0.2 0-0.4 0.2-0.4 0.4z"/>
			<path id="path104" class="s5" d="m-53.2 370.8c0 0.2 0.2 0.4 0.4 0.4h3.8c0.2 0 0.4-0.2 0.4-0.4v-0.9c0-0.2-0.2-0.4-0.4-0.4h-3.8c-0.2 0-0.4 0.2-0.4 0.4z"/>
			<path id="path106" class="s5" d="m-58.5 370.8c0 0.2 0.2 0.4 0.4 0.4h3.8c0.2 0 0.4-0.2 0.4-0.4v-0.9c0-0.2-0.2-0.4-0.4-0.4h-3.8c-0.2 0-0.4 0.2-0.4 0.4z"/>
			<path id="path108" class="s5" d="m-71.7 370.8c0 0.2 0.2 0.4 0.4 0.4h3.8c0.2 0 0.4-0.2 0.4-0.4v-0.9c0-0.2-0.2-0.4-0.4-0.4h-3.8c-0.2 0-0.4 0.2-0.4 0.4z"/>
			<path id="path110" class="s5" d="m-77 370.8c0 0.2 0.2 0.4 0.4 0.4h3.8c0.2 0 0.4-0.2 0.4-0.4v-0.9c0-0.2-0.2-0.4-0.4-0.4h-3.8c-0.2 0-0.4 0.2-0.4 0.4z"/>
			<path id="path112" class="s5" d="m-82.3 370.8c0 0.2 0.2 0.4 0.4 0.4h3.8c0.2 0 0.4-0.2 0.4-0.4v-0.9c0-0.2-0.2-0.4-0.4-0.4h-3.8c-0.2 0-0.4 0.2-0.4 0.4z"/>
			<path id="path114" class="s5" d="m-87.6 370.8c0 0.2 0.2 0.4 0.4 0.4h3.8c0.2 0 0.4-0.2 0.4-0.4v-0.9c0-0.2-0.2-0.4-0.4-0.4h-3.8c-0.2 0-0.4 0.2-0.4 0.4z"/>
			<path id="path116" class="s5" d="m-92.9 370.8c0 0.2 0.2 0.4 0.4 0.4h3.8c0.2 0 0.4-0.2 0.4-0.4v-0.9c0-0.2-0.2-0.4-0.4-0.4h-3.8c-0.2 0-0.4 0.2-0.4 0.4z"/>
			<path id="path118" class="s5" d="m-98.2 370.8c0 0.2 0.2 0.4 0.4 0.4h3.8c0.2 0 0.4-0.2 0.4-0.4v-0.9c0-0.2-0.2-0.4-0.4-0.4h-3.8c-0.2 0-0.4 0.2-0.4 0.4z"/>
			<path id="path120" class="s0" d="m91 380.9h-225.4c-6.4 0-38.9-3-62.3-7.6 6.7 8.5 69.9 15.2 78.6 15.2h206.1c7.9 0 14.5-5.5 16.2-13-3.3 3.4-8 5.4-13.2 5.4z"/>
			<path id="path122" class="s5" d="m-109.4 370.8c0 0.2 0.2 0.4 0.4 0.4h3.8c0.2 0 0.4-0.2 0.4-0.4v-0.9c0-0.2-0.2-0.4-0.4-0.4h-3.8c-0.2 0-0.4 0.2-0.4 0.4z"/>
			<path id="path124" class="s5" d="m-114.7 370.8c0 0.2 0.2 0.4 0.4 0.4h3.8c0.2 0 0.4-0.2 0.4-0.4v-0.9c0-0.2-0.2-0.4-0.4-0.4h-3.8c-0.2 0-0.4 0.2-0.4 0.4z"/>
			<path id="path126" class="s5" d="m-120 370.8c0 0.2 0.1 0.4 0.4 0.4h3.8c0.2 0 0.3-0.2 0.3-0.4v-0.9c0-0.2-0.1-0.4-0.3-0.4h-3.8c-0.3 0-0.4 0.2-0.4 0.4z"/>
			<path id="path128" class="s5" d="m-125.3 370.8c0 0.2 0.1 0.4 0.4 0.4h3.8c0.2 0 0.3-0.2 0.3-0.4v-0.9c0-0.2-0.1-0.4-0.3-0.4h-3.8c-0.3 0-0.4 0.2-0.4 0.4z"/>
			<path id="path130" class="s5" d="m-130.6 370.8c0 0.2 0.1 0.4 0.4 0.4h3.8c0.2 0 0.3-0.2 0.3-0.4v-0.9c0-0.2-0.1-0.4-0.3-0.4h-3.8c-0.3 0-0.4 0.2-0.4 0.4z"/>
			<path id="path132" class="s5" d="m-135.9 370.8c0 0.2 0.1 0.4 0.3 0.4h3.9c0.2 0 0.3-0.2 0.3-0.4v-0.9c0-0.2-0.1-0.4-0.3-0.4h-3.9c-0.2 0-0.3 0.2-0.3 0.4z"/>
			<path id="path134" class="s5" d="m-148.3 370.8c0 0.2 0.1 0.4 0.3 0.4h3.8c0.3 0 0.4-0.2 0.4-0.4v-0.9c0-0.2-0.1-0.4-0.4-0.4h-3.8c-0.2 0-0.3 0.2-0.3 0.4z"/>
			<path id="path136" class="s5" d="m-153.6 370.8c0 0.2 0.1 0.4 0.3 0.4h3.8c0.2 0 0.4-0.2 0.4-0.4v-0.9c0-0.2-0.2-0.4-0.4-0.4h-3.8c-0.2 0-0.3 0.2-0.3 0.4z"/>
			<path id="path138" class="s5" d="m-159 370.8c0 0.2 0.2 0.4 0.4 0.4h3.8c0.2 0 0.4-0.2 0.4-0.4v-0.9c0-0.2-0.2-0.4-0.4-0.4h-3.8c-0.2 0-0.4 0.2-0.4 0.4z"/>
			<path id="path140" class="s5" d="m-164.3 370.8c0 0.2 0.2 0.4 0.4 0.4h3.8c0.2 0 0.4-0.2 0.4-0.4v-0.9c0-0.2-0.2-0.4-0.4-0.4h-3.8c-0.2 0-0.4 0.2-0.4 0.4z"/>
			<path id="path142" class="s5" d="m-169.6 370.8c0 0.2 0.2 0.4 0.4 0.4h3.8c0.2 0 0.4-0.2 0.4-0.4v-0.9c0-0.2-0.2-0.4-0.4-0.4h-3.8c-0.2 0-0.4 0.2-0.4 0.4z"/>
			<path id="path144" class="s5" d="m-174.9 370.8c0 0.2 0.2 0.4 0.4 0.4h3.8c0.2 0 0.4-0.2 0.4-0.4v-0.9c0-0.2-0.2-0.4-0.4-0.4h-3.8c-0.2 0-0.4 0.2-0.4 0.4z"/>
			<path id="path146" class="s1" d="m-181.7 370h-23.6c-1.2 0-9.4 0.9-9.4 2.1 0 1.2 8.2 2.2 9.4 2.2h23.6z"/>
			<path id="path148" class="s4" d="m-111.7 356.6c0 0.3-0.3 0.6-0.6 0.6h-7.1c-0.3 0-0.6-0.3-0.6-0.6v-0.3c0-0.3 0.3-0.6 0.6-0.6h7.1c0.3 0 0.6 0.3 0.6 0.6z"/>
			<path id="path150" class="s4" d="m-120.5 356.6c0 0.4-0.2 0.6-0.5 0.6h-2.1c-0.3 0-0.6-0.2-0.6-0.6v-0.2c0-0.4 0.3-0.6 0.6-0.6h2.1c0.3 0 0.5 0.2 0.5 0.6z"/>
			<path id="path152" class="s4" d="m-28.6 356.6c0 0.3-0.3 0.6-0.6 0.6h-7.1c-0.3 0-0.6-0.3-0.6-0.6v-0.3c0-0.3 0.3-0.6 0.6-0.6h7.1c0.3 0 0.6 0.3 0.6 0.6z"/>
			<path id="path154" class="s4" d="m-37.4 356.6c0 0.4-0.2 0.6-0.5 0.6h-2.1c-0.3 0-0.6-0.2-0.6-0.6v-0.2c0-0.4 0.3-0.6 0.6-0.6h2.1c0.3 0 0.5 0.2 0.5 0.6z"/>
			<path id="path156" class="s4" d="m-15.7 356.6c0 0.3-0.3 0.6-0.6 0.6h-7.1c-0.3 0-0.6-0.3-0.6-0.6v-0.3c0-0.3 0.3-0.6 0.6-0.6h7.1c0.3 0 0.6 0.3 0.6 0.6z"/>
			<path id="path158" class="s4" d="m-24.4 356.6c0 0.4-0.3 0.6-0.6 0.6h-2.1c-0.3 0-0.5-0.2-0.5-0.6v-0.2c0-0.4 0.2-0.6 0.5-0.6h2.1c0.3 0 0.6 0.2 0.6 0.6z"/>
			<path id="path160" class="s4" d="m-2.8 356.6c0 0.3-0.2 0.6-0.5 0.6h-7.2c-0.3 0-0.6-0.3-0.6-0.6v-0.3c0-0.3 0.3-0.6 0.6-0.6h7.2c0.3 0 0.5 0.3 0.5 0.6z"/>
			<path id="path162" class="s4" d="m-11.5 356.6c0 0.4-0.3 0.6-0.6 0.6h-2.1c-0.3 0-0.5-0.2-0.5-0.6v-0.2c0-0.4 0.2-0.6 0.5-0.6h2.1c0.3 0 0.6 0.2 0.6 0.6z"/>
			<path id="path164" class="s4" d="m10.1 356.6c0 0.3-0.2 0.6-0.5 0.6h-7.2c-0.3 0-0.5-0.3-0.5-0.6v-0.3c0-0.3 0.2-0.6 0.5-0.6h7.2c0.3 0 0.5 0.3 0.5 0.6z"/>
			<path id="path166" class="s4" d="m1.4 356.6c0 0.4-0.3 0.6-0.6 0.6h-2c-0.4 0-0.6-0.2-0.6-0.6v-0.2c0-0.4 0.2-0.6 0.6-0.6h2c0.3 0 0.6 0.2 0.6 0.6z"/>
			<path id="path168" class="s0" d="m-46.3-103c0 0.8-0.6 1.5-1.4 1.5h-5.1c-0.8 0-1.4-0.7-1.4-1.5v-7.2c0-0.8 0.6-1.5 1.4-1.5h5.1c0.8 0 1.4 0.7 1.4 1.5z"/>
			<path id="path170" class="s0" d="m-49.9-99.2h-2.9v-5.1h2.9z"/>
			<path id="path172" class="s0" d="m-84.5-88.2h-5.1l1.3-20.7h2.5z"/>
			<path id="path174" class="s0" d="m-65.7-99.6h-9.9l3.7-30.3h2.5z"/>
			<path id="path176" class="s6" d="m-43.8-59h-47.7v-31.7h47.7z"/>
			<path id="path178" class="s0" d="m-73.7-66.5h-14.7v-5.5h14.7z"/>
			<path id="path180" class="s0" d="m-57-83.4v9.2h-34.5v9.6h0.9v-8.9h34.5v-9.2h12.3v-0.7z"/>
			<path id="path182" class="s7" d="m-39.1-90.5h-47v-3.5h47z"/>
			<path id="path184" class="s0" d="m-39.1-93.8h-47v-1.4h47z"/>
			<path id="path186" class="s7" d="m-33.9-98.5h-46.4v-1.1h46.4z"/>
			<path id="path188" class="s0" d="m-33.9-99.5h-46.4v-0.4h46.4z"/>
			<path id="path190" class="s7" d="m-36.6-95.2h-43.7v-2.5h43.7z"/>
			<path id="path192" class="s0" d="m-36.6-97.5h-43.7v-1.1h43.7z"/>
			<path id="path194" class="s7" d="m-36.1-78.8l-8.3 6.7v-8.6h8.3z"/>
			<path id="path196" class="s7" d="m-96.5-90l5.5 2.5v-3.2h-5.5z"/>
			<path id="path198" class="s7" d="m-96.5-87.6l5.5 2.4v-3.1h-5.5z"/>
			<path id="path200" class="s7" d="m-96.5-85.3l5.5 2.5v-3.1h-5.5z"/>
			<path id="path202" fill-rule="evenodd" class="s0" d="m-81.6-108.1l-3.6 3.7h-4.2l-3.6-3.7zm-0.5 0.2h-10.4l3.3 3.3h3.8z"/>
			<path id="path204" class="s0" d="m-86-109.3c0 0.4-0.3 0.7-0.7 0.7-0.4 0-0.7-0.3-0.7-0.7v-3.7c0-0.4 0.3-0.7 0.7-0.7 0.4 0 0.7 0.3 0.7 0.7z"/>
			<path id="path206" class="s0" d="m-76.1-127.6v-2.8h-0.9v3.7h11.3v-0.9z"/>
			<path id="path208" fill-rule="evenodd" class="s0" d="m-68.2-131.2v1.3c0 0.5-0.4 0.8-0.8 0.8h-4.9c-0.5 0-0.8-0.3-0.8-0.8v-1.3c0-0.4 0.3-0.8 0.8-0.8h4.9c0.4 0 0.8 0.4 0.8 0.8zm-0.3 0c0-0.3-0.2-0.5-0.5-0.5h-4.9c-0.3 0-0.6 0.2-0.6 0.5v1.3c0 0.3 0.3 0.5 0.6 0.5h4.9c0.3 0 0.5-0.2 0.5-0.5z"/>
			<path id="path210" class="s0" d="m-66.5-127h0.6v-1.5h-0.6z"/>
			<path id="path212" class="s7" d="m-64-129.3c0-0.2-0.2-0.4-0.4-0.4h-3.5c-0.2 0-0.3 0.2-0.3 0.4v0.9c0 0.2 0.1 0.4 0.3 0.4h3.5c0.2 0 0.4-0.2 0.4-0.4z"/>
			<path id="path214" class="s6" d="m-88.7-108.4c-0.3 0-0.6-0.3-0.6-0.7 0-0.4 0.3-0.7 0.6-0.7h3.7c0.4 0 0.7 0.3 0.7 0.7 0 0.4-0.3 0.7-0.7 0.7z"/>
			<path id="path216" class="s6" d="m-92.8-107.5c-0.2 0-0.4-0.2-0.4-0.4 0-0.3 0.2-0.4 0.4-0.4h4.1c0.3 0 0.4 0.1 0.4 0.4 0 0.2-0.1 0.4-0.4 0.4z"/>
			<path id="path218" class="s6" d="m-60.1-119.4h-20.9v-1.1h20.9z"/>
			<path id="path220" fill-rule="evenodd" class="s0" d="m-60.2-119.4l-5.9 4.4h-9l-5.8-4.4zm-0.8 0.3h-19.1l5.1 3.8h8.8z"/>
			<path id="path222" class="s6" d="m-57.2-110.8h-26.7v-1.6h26.7z"/>
			<path id="path224" fill-rule="evenodd" class="s0" d="m-57.3-110.9l-7.5 5.6h-11.5l-7.5-5.6zm-1 0.3h-24.5l6.6 5h11.3z"/>
			<path id="path226" class="s6" d="m-45.4-105.2c0 1-0.8 1.8-1.8 1.8h-6.4c-1.1 0-1.9-0.8-1.9-1.8v-9.2c0-1 0.8-1.8 1.9-1.8h6.4c1 0 1.8 0.8 1.8 1.8z"/>
			<path id="path228" class="s0" d="m-41.3-99.5c0 0.2-0.1 0.4-0.4 0.4-0.2 0-0.3-0.2-0.3-0.4v-13.2c0-0.2 0.1-0.4 0.3-0.4 0.3 0 0.4 0.2 0.4 0.4z"/>
			<path id="path230" class="s0" d="m-38.6-99.4c0 0.2-0.1 0.3-0.4 0.3-0.2 0-0.4-0.1-0.4-0.3v-10c0-0.2 0.2-0.3 0.4-0.3 0.3 0 0.4 0.1 0.4 0.3z"/>
			<path id="path232" class="s6" d="m-37.4-89.1h-11.4v-3.9h11.4z"/>
			<path id="path234" class="s0" d="m-37.4-89.8h-11.4v-1.6h11.4z"/>
			<path id="path236" class="s6" d="m-37.4-85.3h-11.4v-3.9h11.4z"/>
			<path id="path238" class="s0" d="m-37.4-86h-11.4v-1.5h11.4z"/>
			<path id="path240" class="s6" d="m-37.4-81.5h-11.4v-3.9h11.4z"/>
			<path id="path242" class="s0" d="m-37.4-82.2h-11.4v-1.5h11.4z"/>
			<path id="path244" class="s6" d="m261.1-45.3c-6.2 5.5-3.9 9-6.8 9h-463.5c-2.9 0-5.3-2.4-5.3-5.3v-19.5c1.5-0.8 2.4-0.5 5.3-0.5h485c0.5 0 1.1 4.1-1.2 6.6-2.9 3.1-5.8 2.9-13.5 9.7z"/>
			<path id="path246" class="s4" d="m264.8-36.1h-467.5c-4.7 0-8.5 3.7-8.8 8.3h9.4v2.4c0 1.9 1.6 3.5 3.6 3.5h4.1c2 0 3.6-1.6 3.6-3.5v-2.4h28.9c2 0 5.2 1.6 7.1 3.6l6 5.9h413.6c4.9 0 8.9-4 8.9-8.9 0-4.9-4-8.9-8.9-8.9z"/>
			<path id="path248" class="s3" d="m273.3-29.7c-1.1-3.7-4.5-6.4-8.5-6.4h-467.5c-4 0-7.4 2.7-8.5 6.4z"/>
			<path id="path250" class="s7" d="m-62.4-61.6v22.6h76.9v-22.6z"/>
			<path id="path252" class="s7" d="m128.4-64.8v20.9h37.1v-20.9z"/>
			<path id="path254" class="s7" d="m-147.1-61.6v22.6h30.8v-22.6z"/>
			<path id="path256" class="s7" d="m-190.8-44.9h-7.1v-15.4h7.1z"/>
			<path id="path258" class="s7" d="m-181.4-44.9h-7.1v-15.4h7.1z"/>
			<path id="path260" class="s7" d="m-171.9-44.9h-7.1v-15.4h7.1z"/>
			<path id="path262" class="s7" d="m-162.4-44.9h-7.1v-15.4h7.1z"/>
			<path id="path264" class="s7" d="m-153-44.9h-7.1v-15.4h7.1z"/>
			<path id="path266" class="s0" d="m15.7-39.1c0 1.5-1.2 2.8-2.8 2.8h-224.6c-1.6 0-2.8-1.3-2.8-2.8v-0.5c0-1.5 1.2-2.7 2.8-2.7h224.6c1.6 0 2.8 1.2 2.8 2.7z"/>
			<path id="path268" class="s0" d="m-62.2-46.6c0 1.2-1 2.1-2.1 2.1h-50.5c-1.1 0-2.1-0.9-2.1-2.1v-0.3c0-1.2 1-2.1 2.1-2.1h50.5c1.1 0 2.1 0.9 2.1 2.1z"/>
			<path id="path270" class="s0" d="m-145.1-43.6c0 1.2-0.9 2.1-2.1 2.1h-50.4c-1.2 0-2.1-0.9-2.1-2.1v-0.3c0-1.2 0.9-2.1 2.1-2.1h50.4c1.2 0 2.1 0.9 2.1 2.1z"/>
			<path id="path272" class="s6" d="m-141.7-50.3h-3v-8.3h3z"/>
			<path id="path274" class="s6" d="m-136.1-50.3h-3v-8.3h3z"/>
			<path id="path276" class="s6" d="m-130.5-50.3h-2.9v-8.3h2.9z"/>
			<path id="path278" class="s6" d="m-124.9-50.3h-2.9v-8.3h2.9z"/>
			<path id="path280" class="s6" d="m-119.2-50.3h-3v-8.3h3z"/>
			<path id="path282" class="s0" d="m14.2-54.1h-76.7v-4.5h76.7z"/>
			<path id="path284" class="s0" d="m-57.2-48.1c0 0.7-0.7 1.4-1.4 1.4-0.8 0-1.4-0.7-1.4-1.4 0-0.8 0.6-1.4 1.4-1.4 0.7 0 1.4 0.6 1.4 1.4z"/>
			<path id="path286" class="s0" d="m-50.8-48.1c0 0.7-0.6 1.4-1.4 1.4-0.8 0-1.4-0.7-1.4-1.4 0-0.8 0.6-1.4 1.4-1.4 0.8 0 1.4 0.6 1.4 1.4z"/>
			<path id="path288" class="s0" d="m-44.4-48.1c0 0.7-0.6 1.4-1.4 1.4-0.8 0-1.4-0.7-1.4-1.4 0-0.8 0.6-1.4 1.4-1.4 0.8 0 1.4 0.6 1.4 1.4z"/>
			<path id="path290" class="s0" d="m-38-48.1c0 0.7-0.6 1.4-1.4 1.4-0.8 0-1.4-0.7-1.4-1.4 0-0.8 0.6-1.4 1.4-1.4 0.8 0 1.4 0.6 1.4 1.4z"/>
			<path id="path292" class="s0" d="m-31.6-48.1c0 0.7-0.6 1.4-1.4 1.4-0.8 0-1.4-0.7-1.4-1.4 0-0.8 0.6-1.4 1.4-1.4 0.8 0 1.4 0.6 1.4 1.4z"/>
			<path id="path294" class="s0" d="m-25.1-48.1c0 0.7-0.7 1.4-1.5 1.4-0.7 0-1.4-0.7-1.4-1.4 0-0.8 0.7-1.4 1.4-1.4 0.8 0 1.5 0.6 1.5 1.4z"/>
			<path id="path296" class="s0" d="m-18.7-48.1c0 0.7-0.7 1.4-1.4 1.4-0.8 0-1.5-0.7-1.5-1.4 0-0.8 0.7-1.4 1.5-1.4 0.7 0 1.4 0.6 1.4 1.4z"/>
			<path id="path298" class="s0" d="m-12.3-48.1c0 0.7-0.7 1.4-1.4 1.4-0.8 0-1.4-0.7-1.4-1.4 0-0.8 0.6-1.4 1.4-1.4 0.7 0 1.4 0.6 1.4 1.4z"/>
			<path id="path300" class="s0" d="m-5.9-48.1c0 0.7-0.6 1.4-1.4 1.4-0.8 0-1.4-0.7-1.4-1.4 0-0.8 0.6-1.4 1.4-1.4 0.8 0 1.4 0.6 1.4 1.4z"/>
			<path id="path302" class="s0" d="m0.5-48.1c0 0.7-0.6 1.4-1.4 1.4-0.8 0-1.4-0.7-1.4-1.4 0-0.8 0.6-1.4 1.4-1.4 0.8 0 1.4 0.6 1.4 1.4z"/>
			<path id="path304" class="s0" d="m6.9-48.1c0 0.7-0.6 1.4-1.4 1.4-0.8 0-1.4-0.7-1.4-1.4 0-0.8 0.6-1.4 1.4-1.4 0.8 0 1.4 0.6 1.4 1.4z"/>
			<path id="path306" class="s0" d="m21.6-42.3c0 0.8-0.7 1.4-1.4 1.4-0.8 0-1.4-0.6-1.4-1.4 0-0.8 0.6-1.4 1.4-1.4 0.7 0 1.4 0.6 1.4 1.4z"/>
			<path id="path308" class="s0" d="m28-42.3c0 0.8-0.6 1.4-1.4 1.4-0.8 0-1.4-0.6-1.4-1.4 0-0.8 0.6-1.4 1.4-1.4 0.8 0 1.4 0.6 1.4 1.4z"/>
			<path id="path310" class="s0" d="m34.4-42.3c0 0.8-0.6 1.4-1.4 1.4-0.8 0-1.4-0.6-1.4-1.4 0-0.8 0.6-1.4 1.4-1.4 0.8 0 1.4 0.6 1.4 1.4z"/>
			<path id="path312" class="s0" d="m40.8-42.3c0 0.8-0.6 1.4-1.4 1.4-0.8 0-1.4-0.6-1.4-1.4 0-0.8 0.6-1.4 1.4-1.4 0.8 0 1.4 0.6 1.4 1.4z"/>
			<path id="path314" class="s0" d="m47.2-42.3c0 0.8-0.6 1.4-1.4 1.4-0.8 0-1.4-0.6-1.4-1.4 0-0.8 0.6-1.4 1.4-1.4 0.8 0 1.4 0.6 1.4 1.4z"/>
			<path id="path316" class="s0" d="m53.7-42.3c0 0.8-0.7 1.4-1.5 1.4-0.7 0-1.4-0.6-1.4-1.4 0-0.8 0.7-1.4 1.4-1.4 0.8 0 1.5 0.6 1.5 1.4z"/>
			<path id="path318" class="s0" d="m60.1-42.3c0 0.8-0.7 1.4-1.4 1.4-0.8 0-1.5-0.6-1.5-1.4 0-0.8 0.7-1.4 1.5-1.4 0.7 0 1.4 0.6 1.4 1.4z"/>
			<path id="path320" class="s0" d="m66.5-42.3c0 0.8-0.6 1.4-1.4 1.4-0.8 0-1.4-0.6-1.4-1.4 0-0.8 0.6-1.4 1.4-1.4 0.8 0 1.4 0.6 1.4 1.4z"/>
			<path id="path322" class="s0" d="m72.9-42.3c0 0.8-0.6 1.4-1.4 1.4-0.8 0-1.4-0.6-1.4-1.4 0-0.8 0.6-1.4 1.4-1.4 0.8 0 1.4 0.6 1.4 1.4z"/>
			<path id="path324" class="s0" d="m79.3-42.3c0 0.8-0.6 1.4-1.4 1.4-0.8 0-1.4-0.6-1.4-1.4 0-0.8 0.6-1.4 1.4-1.4 0.8 0 1.4 0.6 1.4 1.4z"/>
			<path id="path326" class="s0" d="m85.7-42.3c0 0.8-0.6 1.4-1.4 1.4-0.8 0-1.4-0.6-1.4-1.4 0-0.8 0.6-1.4 1.4-1.4 0.8 0 1.4 0.6 1.4 1.4z"/>
			<path id="path328" class="s0" d="m276-61.1c0.6-2.1 0.2-4.1-0.2-4.1h-485c-2.5 0-4.6 1.8-5.1 4.1z"/>
			<path id="path330" class="s0" d="m-62.9-57.7h-53.2v-1.7h53.2z"/>
			<path id="path332" class="s0" d="m-62.9-55.3h-53.2v-1.8h53.2z"/>
			<path id="path334" class="s7" d="m136.7-45.2h-123.4v-6.3h123.4z"/>
			<path id="path336" class="s0" d="m32.6-54h-14.7v-3.7h14.7z"/>
			<path id="path338" class="s0" d="m48.5-54h-14.7v-3.7h14.7z"/>
			<path id="path340" class="s0" d="m64.4-54h-14.7v-3.7h14.7z"/>
			<path id="path342" class="s0" d="m80.3-54h-14.7v-3.7h14.7z"/>
			<path id="path344" class="s0" d="m95.6-54h-14.7v-3.7h14.7z"/>
			<path id="path346" class="s0" d="m111.5-54h-14.7v-3.7h14.7z"/>
			<path id="path348" class="s0" d="m128.1-54h-14.7v-3.7h14.7z"/>
			<path id="path350" class="s0" d="m217.6-44.4c0 1.5-1.3 2.8-2.8 2.8h-122.5c-1.6 0-2.8-1.3-2.8-2.8v-0.5c0-1.5 1.2-2.8 2.8-2.8h122.5c1.5 0 2.8 1.3 2.8 2.8z"/>
			<path id="path352" class="s0" d="m242-55.9c0 0.9-0.8 1.7-1.8 1.7h-76.2c-0.9 0-1.7-0.8-1.7-1.7v-0.3c0-1 0.8-1.7 1.7-1.7h76.2c1 0 1.8 0.7 1.8 1.7z"/>
			<path id="path354" class="s0" d="m21.6-48.2c0 0.8-0.7 1.4-1.4 1.4-0.8 0-1.4-0.6-1.4-1.4 0-0.8 0.6-1.4 1.4-1.4 0.7 0 1.4 0.6 1.4 1.4z"/>
			<path id="path356" class="s0" d="m28-48.2c0 0.8-0.6 1.4-1.4 1.4-0.8 0-1.4-0.6-1.4-1.4 0-0.8 0.6-1.4 1.4-1.4 0.8 0 1.4 0.6 1.4 1.4z"/>
			<path id="path358" class="s0" d="m34.4-48.2c0 0.8-0.6 1.4-1.4 1.4-0.8 0-1.4-0.6-1.4-1.4 0-0.8 0.6-1.4 1.4-1.4 0.8 0 1.4 0.6 1.4 1.4z"/>
			<path id="path360" class="s0" d="m40.8-48.2c0 0.8-0.6 1.4-1.4 1.4-0.8 0-1.4-0.6-1.4-1.4 0-0.8 0.6-1.4 1.4-1.4 0.8 0 1.4 0.6 1.4 1.4z"/>
			<path id="path362" class="s0" d="m47.2-48.2c0 0.8-0.6 1.4-1.4 1.4-0.8 0-1.4-0.6-1.4-1.4 0-0.8 0.6-1.4 1.4-1.4 0.8 0 1.4 0.6 1.4 1.4z"/>
			<path id="path364" class="s0" d="m53.7-48.2c0 0.8-0.7 1.4-1.5 1.4-0.7 0-1.4-0.6-1.4-1.4 0-0.8 0.7-1.4 1.4-1.4 0.8 0 1.5 0.6 1.5 1.4z"/>
			<path id="path366" class="s0" d="m60.1-48.2c0 0.8-0.7 1.4-1.4 1.4-0.8 0-1.5-0.6-1.5-1.4 0-0.8 0.7-1.4 1.5-1.4 0.7 0 1.4 0.6 1.4 1.4z"/>
			<path id="path368" class="s0" d="m66.5-48.2c0 0.8-0.6 1.4-1.4 1.4-0.8 0-1.4-0.6-1.4-1.4 0-0.8 0.6-1.4 1.4-1.4 0.8 0 1.4 0.6 1.4 1.4z"/>
			<path id="path370" class="s0" d="m72.9-48.2c0 0.8-0.6 1.4-1.4 1.4-0.8 0-1.4-0.6-1.4-1.4 0-0.8 0.6-1.4 1.4-1.4 0.8 0 1.4 0.6 1.4 1.4z"/>
			<path id="path372" class="s0" d="m79.3-48.2c0 0.8-0.6 1.4-1.4 1.4-0.8 0-1.4-0.6-1.4-1.4 0-0.8 0.6-1.4 1.4-1.4 0.8 0 1.4 0.6 1.4 1.4z"/>
			<path id="path374" class="s0" d="m85.7-48.2c0 0.8-0.6 1.4-1.4 1.4-0.8 0-1.4-0.6-1.4-1.4 0-0.8 0.6-1.4 1.4-1.4 0.8 0 1.4 0.6 1.4 1.4z"/>
			<path id="path376" class="s0" d="m-5.7-65.8h1.2l0.9-1.1-5.1 0.2z"/>
			<path id="path378" class="s0" d="m-1.4-67.4c-2.5 0.1-12.7 0.4-18.5 0.4l-8.8-0.4v-0.2c-0.2-0.2-0.5-0.6-0.7-1l-1.6-3.2v0.2l1.5 3.7c0.2 0.4 0.4 0.8 0.7 1l-0.1 0.2 8.8 0.4c6.6 0 19.1-0.4 19.1-0.4q0-0.4-0.4-0.7z"/>
			<path id="path380" class="s7" d="m-1-67c0-1.2-3-1.8-7.6-2.7-3.1-0.6-7.1-0.1-10.1 0.4-0.7 0.1-6.6 0.9-7.5 0.9l-2.9-3.3c-0.1-0.1-0.3-0.3-0.5-0.3h-1.3c-0.1 0-0.2 0.2-0.1 0.3l1.5 3.4c0.2 0.4 0.4 0.8 0.7 1l-0.1 0.3 8.8 0.4c6.6 0 19.1-0.4 19.1-0.4z"/>
			<path id="path382" class="s6" d="m-10.3-66.1c0 0.1-0.1 0.2-0.3 0.2h-13.4c-0.1 0-0.2-0.1-0.2-0.2 0-0.1 0.1-0.2 0.2-0.2 0 0 7-2.2 9.1-2.1l4.3 2.1c0.2 0 0.3 0.1 0.3 0.2z"/>
			<path id="path384" class="s0" d="m-10.3-66.1c0 0.1-0.1 0.2-0.3 0.2h-13.4c-0.1 0-0.2-0.1-0.2-0.2 0-0.1 0.1-0.2 0.2-0.2h13.4c0.2 0 0.3 0.1 0.3 0.2z"/>
			<path id="path386" class="s0" d="m-10.7-69.9l1.2 1.4c0.2 0.4 0.7 0.6 1 0.6h6.9c-1.2-0.7-3.7-1.2-7-1.8-0.6-0.1-1.3-0.2-2.1-0.2z"/>
			<path id="path388" class="s7" d="m-17-65.8c0 0.4-0.2 0.6-0.6 0.6h-0.2c-0.4 0-0.6-0.2-0.6-0.6 0-0.3 0.2-0.5 0.6-0.5h0.2c0.4 0 0.6 0.2 0.6 0.5z"/>
			<path id="path390" class="s0" d="m-17.7-65.8c0 0.4-0.3 0.6-0.6 0.6h-0.3c-0.3 0-0.5-0.2-0.5-0.6 0-0.3 0.2-0.5 0.5-0.5h0.3c0.3 0 0.6 0.2 0.6 0.5z"/>
			<path id="path392" class="s7" d="m-4.1-65.8c0 0.4-0.2 0.6-0.6 0.6h-0.2c-0.4 0-0.6-0.2-0.6-0.6 0-0.3 0.2-0.5 0.6-0.5h0.2c0.4 0 0.6 0.2 0.6 0.5z"/>
			<path id="path394" class="s0" d="m-4.8-65.8c0 0.4-0.3 0.6-0.6 0.6h-0.3c-0.3 0-0.5-0.2-0.5-0.6 0-0.3 0.2-0.5 0.5-0.5h0.3c0.3 0 0.6 0.2 0.6 0.5z"/>
			<path id="path396" class="s0" d="m25.2-65.8h1.1l0.9-1.1-5 0.2z"/>
			<path id="path398" class="s0" d="m29.5-67.4c-2.5 0.1-12.8 0.4-18.6 0.4l-8.8-0.4 0.1-0.2c-0.3-0.2-0.6-0.6-0.8-1l-1.6-3.2v0.2l1.6 3.7c0.1 0.4 0.4 0.8 0.6 1v0.2l8.7 0.4c6.7 0 19.1-0.4 19.1-0.4q0-0.4-0.3-0.7z"/>
			<path id="path400" class="s7" d="m29.8-67c0-1.2-2.9-1.8-7.6-2.7-3-0.6-7-0.1-10.1 0.4-0.6 0.1-6.6 0.9-7.5 0.9l-2.8-3.3c-0.2-0.1-0.4-0.3-0.5-0.3h-1.4c-0.1 0-0.1 0.2 0 0.3l1.5 3.4c0.1 0.4 0.4 0.8 0.6 1v0.3l8.7 0.4c6.7 0 19.1-0.4 19.1-0.4z"/>
			<path id="path402" class="s6" d="m20.5-66.1c0 0.1-0.1 0.2-0.2 0.2h-13.4c-0.1 0-0.2-0.1-0.2-0.2 0-0.1 0.1-0.2 0.2-0.2 0 0 7-2.2 9-2.1l4.4 2.1c0.1 0 0.2 0.1 0.2 0.2z"/>
			<path id="path404" class="s0" d="m20.5-66.1c0 0.1-0.1 0.2-0.2 0.2h-13.4c-0.1 0-0.2-0.1-0.2-0.2 0-0.1 0.1-0.2 0.2-0.2h13.4c0.1 0 0.2 0.1 0.2 0.2z"/>
			<path id="path406" class="s0" d="m20.1-69.9l1.2 1.4c0.3 0.4 0.8 0.6 1.1 0.6h6.8c-1.1-0.7-3.6-1.2-7-1.8-0.5-0.1-1.2-0.2-2.1-0.2z"/>
			<path id="path408" class="s7" d="m13.9-65.8c0 0.4-0.3 0.6-0.6 0.6h-0.3c-0.3 0-0.6-0.2-0.6-0.6 0-0.3 0.3-0.5 0.6-0.5h0.3c0.3 0 0.6 0.2 0.6 0.5z"/>
			<path id="path410" class="s0" d="m13.2-65.8c0 0.4-0.3 0.6-0.6 0.6h-0.3c-0.3 0-0.6-0.2-0.6-0.6 0-0.3 0.3-0.5 0.6-0.5h0.3c0.3 0 0.6 0.2 0.6 0.5z"/>
			<path id="path412" class="s7" d="m26.8-65.8c0 0.4-0.3 0.6-0.6 0.6h-0.3c-0.3 0-0.6-0.2-0.6-0.6 0-0.3 0.3-0.5 0.6-0.5h0.3c0.3 0 0.6 0.2 0.6 0.5z"/>
			<path id="path414" class="s0" d="m26.1-65.8c0 0.4-0.3 0.6-0.6 0.6h-0.3c-0.3 0-0.6-0.2-0.6-0.6 0-0.3 0.3-0.5 0.6-0.5h0.3c0.3 0 0.6 0.2 0.6 0.5z"/>
			<path id="path416" class="s0" d="m56-65.8h1.2l0.9-1.1-5.1 0.2z"/>
			<path id="path418" class="s0" d="m60.3-67.4c-2.5 0.1-12.7 0.4-18.5 0.4l-8.8-0.4v-0.2c-0.2-0.2-0.5-0.6-0.7-1l-1.6-3.2v0.2l1.5 3.7c0.2 0.4 0.4 0.8 0.6 1v0.2l8.8 0.4c6.6 0 19.1-0.4 19.1-0.4q0-0.4-0.4-0.7z"/>
			<path id="path420" class="s7" d="m60.7-67c0-1.2-3-1.8-7.6-2.7-3.1-0.6-7.1-0.1-10.1 0.4-0.7 0.1-6.6 0.9-7.6 0.9l-2.8-3.3c-0.2-0.1-0.4-0.3-0.5-0.3h-1.3c-0.1 0-0.2 0.2-0.1 0.3l1.5 3.4c0.2 0.4 0.4 0.8 0.6 1v0.3l8.8 0.4c6.6 0 19.1-0.4 19.1-0.4z"/>
			<path id="path422" class="s6" d="m51.4-66.1c0 0.1-0.1 0.2-0.3 0.2h-13.4c-0.1 0-0.2-0.1-0.2-0.2 0-0.1 0.1-0.2 0.2-0.2 0 0 7-2.2 9.1-2.1l4.3 2.1c0.2 0 0.3 0.1 0.3 0.2z"/>
			<path id="path424" class="s0" d="m51.4-66.1c0 0.1-0.1 0.2-0.3 0.2h-13.4c-0.1 0-0.2-0.1-0.2-0.2 0-0.1 0.1-0.2 0.2-0.2h13.4c0.2 0 0.3 0.1 0.3 0.2z"/>
			<path id="path426" class="s0" d="m51-69.9l1.1 1.4c0.3 0.4 0.8 0.6 1.1 0.6h6.8c-1.1-0.7-3.6-1.2-6.9-1.8-0.6-0.1-1.3-0.2-2.1-0.2z"/>
			<path id="path428" class="s7" d="m44.7-65.8c0 0.4-0.3 0.6-0.6 0.6h-0.3c-0.3 0-0.5-0.2-0.5-0.6 0-0.3 0.2-0.5 0.5-0.5h0.3c0.3 0 0.6 0.2 0.6 0.5z"/>
			<path id="path430" class="s0" d="m44-65.8c0 0.4-0.3 0.6-0.6 0.6h-0.3c-0.3 0-0.6-0.2-0.6-0.6 0-0.3 0.3-0.5 0.6-0.5h0.3c0.3 0 0.6 0.2 0.6 0.5z"/>
			<path id="path432" class="s7" d="m57.6-65.8c0 0.4-0.3 0.6-0.6 0.6h-0.3c-0.3 0-0.5-0.2-0.5-0.6 0-0.3 0.2-0.5 0.5-0.5h0.3c0.3 0 0.6 0.2 0.6 0.5z"/>
			<path id="path434" class="s0" d="m56.9-65.8c0 0.4-0.3 0.6-0.6 0.6h-0.3c-0.3 0-0.6-0.2-0.6-0.6 0-0.3 0.3-0.5 0.6-0.5h0.3c0.3 0 0.6 0.2 0.6 0.5z"/>
			<path id="path436" class="s0" d="m86.9-65.8h1.1l0.9-1.1-5 0.2z"/>
			<path id="path438" class="s0" d="m91.2-67.4c-2.5 0.1-12.8 0.4-18.6 0.4l-8.8-0.4 0.1-0.2c-0.3-0.2-0.6-0.6-0.8-1l-1.6-3.2v0.2l1.6 3.7c0.1 0.4 0.4 0.8 0.6 1v0.2l8.7 0.4c6.7 0 19.1-0.4 19.1-0.4q0-0.4-0.3-0.7z"/>
			<path id="path440" class="s7" d="m91.5-67c0-1.2-3-1.8-7.6-2.7-3-0.6-7-0.1-10.1 0.4-0.6 0.1-6.6 0.9-7.5 0.9l-2.9-3.3c-0.1-0.1-0.3-0.3-0.4-0.3h-1.4c-0.1 0-0.1 0.2 0 0.3l1.5 3.4c0.1 0.4 0.4 0.8 0.6 1v0.3l8.7 0.4c6.7 0 19.1-0.4 19.1-0.4z"/>
			<path id="path442" class="s6" d="m82.2-66.1c0 0.1-0.1 0.2-0.2 0.2h-13.4c-0.1 0-0.2-0.1-0.2-0.2 0-0.1 0.1-0.2 0.2-0.2 0 0 6.9-2.2 9-2.1l4.4 2.1c0.1 0 0.2 0.1 0.2 0.2z"/>
			<path id="path444" class="s0" d="m82.2-66.1c0 0.1-0.1 0.2-0.2 0.2h-13.4c-0.1 0-0.2-0.1-0.2-0.2 0-0.1 0.1-0.2 0.2-0.2h13.4c0.1 0 0.2 0.1 0.2 0.2z"/>
			<path id="path446" class="s0" d="m81.8-69.9l1.2 1.4c0.3 0.4 0.7 0.6 1.1 0.6h6.8c-1.1-0.7-3.6-1.2-7-1.8-0.5-0.1-1.2-0.2-2.1-0.2z"/>
			<path id="path448" class="s7" d="m75.6-65.8c0 0.4-0.3 0.6-0.6 0.6h-0.3c-0.3 0-0.6-0.2-0.6-0.6 0-0.3 0.3-0.5 0.6-0.5h0.3c0.3 0 0.6 0.2 0.6 0.5z"/>
			<path id="path450" class="s0" d="m74.8-65.8c0 0.4-0.2 0.6-0.5 0.6h-0.3c-0.3 0-0.6-0.2-0.6-0.6 0-0.3 0.3-0.5 0.6-0.5h0.3c0.3 0 0.5 0.2 0.5 0.5z"/>
			<path id="path452" class="s7" d="m88.5-65.8c0 0.4-0.3 0.6-0.6 0.6h-0.3c-0.3 0-0.6-0.2-0.6-0.6 0-0.3 0.3-0.5 0.6-0.5h0.3c0.3 0 0.6 0.2 0.6 0.5z"/>
			<path id="path454" class="s0" d="m87.7-65.8c0 0.4-0.2 0.6-0.5 0.6h-0.3c-0.3 0-0.6-0.2-0.6-0.6 0-0.3 0.3-0.5 0.6-0.5h0.3c0.3 0 0.5 0.2 0.5 0.5z"/>
			<path id="path456" class="s0" d="m148.6-65.8h1.1l0.9-1.1-5 0.2z"/>
			<path id="path458" class="s0" d="m152.8-67.4c-2.4 0.1-12.7 0.4-18.5 0.4l-8.8-0.4v-0.2c-0.2-0.2-0.5-0.6-0.7-1l-1.6-3.2v0.2l1.5 3.7c0.2 0.4 0.5 0.8 0.7 1l-0.1 0.2 8.8 0.4c6.6 0 19.1-0.4 19.1-0.4q0-0.4-0.4-0.7z"/>
			<path id="path460" class="s7" d="m153.2-67c0-1.2-3-1.8-7.6-2.7-3.1-0.6-7-0.1-10.1 0.4-0.6 0.1-6.6 0.9-7.5 0.9l-2.9-3.3c-0.1-0.1-0.3-0.3-0.4-0.3h-1.4c-0.1 0-0.1 0.2-0.1 0.3l1.5 3.4c0.2 0.4 0.5 0.8 0.7 1l-0.1 0.3 8.8 0.4c6.6 0 19.1-0.4 19.1-0.4z"/>
			<path id="path462" class="s6" d="m143.9-66.1c0 0.1-0.1 0.2-0.2 0.2h-13.4c-0.2 0-0.3-0.1-0.3-0.2 0-0.1 0.1-0.2 0.3-0.2 0 0 6.9-2.2 9-2.1l4.4 2.1c0.1 0 0.2 0.1 0.2 0.2z"/>
			<path id="path464" class="s0" d="m143.9-66.1c0 0.1-0.1 0.2-0.2 0.2h-13.4c-0.2 0-0.3-0.1-0.3-0.2 0-0.1 0.1-0.2 0.3-0.2h13.4c0.1 0 0.2 0.1 0.2 0.2z"/>
			<path id="path466" class="s0" d="m143.5-69.9l1.2 1.4c0.3 0.4 0.7 0.6 1.1 0.6h6.8c-1.1-0.7-3.6-1.2-7-1.8-0.5-0.1-1.2-0.2-2.1-0.2z"/>
			<path id="path468" class="s7" d="m137.2-65.8c0 0.4-0.2 0.6-0.5 0.6h-0.3c-0.4 0-0.6-0.2-0.6-0.6 0-0.3 0.2-0.5 0.6-0.5h0.3c0.3 0 0.5 0.2 0.5 0.5z"/>
			<path id="path470" class="s0" d="m136.5-65.8c0 0.4-0.2 0.6-0.6 0.6h-0.2c-0.4 0-0.6-0.2-0.6-0.6 0-0.3 0.2-0.5 0.6-0.5h0.2c0.4 0 0.6 0.2 0.6 0.5z"/>
			<path id="path472" class="s7" d="m150.1-65.8c0 0.4-0.2 0.6-0.5 0.6h-0.3c-0.3 0-0.6-0.2-0.6-0.6 0-0.3 0.3-0.5 0.6-0.5h0.3c0.3 0 0.5 0.2 0.5 0.5z"/>
			<path id="path474" class="s0" d="m149.4-65.8c0 0.4-0.2 0.6-0.6 0.6h-0.2c-0.4 0-0.6-0.2-0.6-0.6 0-0.3 0.2-0.5 0.6-0.5h0.2c0.4 0 0.6 0.2 0.6 0.5z"/>
			<path id="path476" class="s0" d="m179.4-65.8h1.2l0.9-1.1-5.1 0.2z"/>
			<path id="path478" class="s0" d="m183.7-67.4c-2.5 0.1-12.7 0.4-18.5 0.4l-8.8-0.4v-0.2c-0.3-0.2-0.5-0.6-0.7-1l-1.7-3.2 0.1 0.2 1.5 3.7c0.2 0.4 0.4 0.8 0.6 1v0.2l8.7 0.4c6.7 0 19.2-0.4 19.2-0.4q0-0.4-0.4-0.7z"/>
			<path id="path480" class="s7" d="m184.1-67c0-1.2-3-1.8-7.7-2.7-3-0.6-7-0.1-10 0.4-0.7 0.1-6.7 0.9-7.6 0.9l-2.8-3.3c-0.2-0.1-0.4-0.3-0.5-0.3h-1.3c-0.2 0-0.2 0.2-0.1 0.3l1.5 3.4c0.2 0.4 0.4 0.8 0.6 1v0.3l8.7 0.4c6.7 0 19.2-0.4 19.2-0.4z"/>
			<path id="path482" class="s6" d="m174.7-66.1c0 0.1-0.1 0.2-0.2 0.2h-13.4c-0.1 0-0.2-0.1-0.2-0.2 0-0.1 0.1-0.2 0.2-0.2 0 0 7-2.2 9.1-2.1l4.3 2.1c0.1 0 0.2 0.1 0.2 0.2z"/>
			<path id="path484" class="s0" d="m174.7-66.1c0 0.1-0.1 0.2-0.2 0.2h-13.4c-0.1 0-0.2-0.1-0.2-0.2 0-0.1 0.1-0.2 0.2-0.2h13.4c0.1 0 0.2 0.1 0.2 0.2z"/>
			<path id="path486" class="s0" d="m174.3-69.9l1.2 1.4c0.3 0.4 0.8 0.6 1.1 0.6h6.8c-1.1-0.7-3.6-1.2-7-1.8-0.5-0.1-1.2-0.2-2.1-0.2z"/>
			<path id="path488" class="s7" d="m168.1-65.8c0 0.4-0.3 0.6-0.6 0.6h-0.3c-0.3 0-0.6-0.2-0.6-0.6 0-0.3 0.3-0.5 0.6-0.5h0.3c0.3 0 0.6 0.2 0.6 0.5z"/>
			<path id="path490" class="s0" d="m167.4-65.8c0 0.4-0.3 0.6-0.6 0.6h-0.3c-0.3 0-0.6-0.2-0.6-0.6 0-0.3 0.3-0.5 0.6-0.5h0.3c0.3 0 0.6 0.2 0.6 0.5z"/>
			<path id="path492" class="s7" d="m181-65.8c0 0.4-0.3 0.6-0.6 0.6h-0.3c-0.3 0-0.6-0.2-0.6-0.6 0-0.3 0.3-0.5 0.6-0.5h0.3c0.3 0 0.6 0.2 0.6 0.5z"/>
			<path id="path494" class="s0" d="m180.3-65.8c0 0.4-0.3 0.6-0.6 0.6h-0.3c-0.3 0-0.6-0.2-0.6-0.6 0-0.3 0.3-0.5 0.6-0.5h0.3c0.3 0 0.6 0.2 0.6 0.5z"/>
			<path id="path496" class="s0" d="m241.1-65.8h1.1l1-1.1-5.1 0.2z"/>
			<path id="path498" class="s0" d="m245.4-67.4c-2.5 0.1-12.7 0.4-18.5 0.4l-8.8-0.4v-0.2c-0.3-0.2-0.5-0.6-0.8-1l-1.6-3.2 0.1 0.2 1.5 3.7c0.2 0.4 0.4 0.8 0.6 1v0.2l8.7 0.4c6.7 0 19.2-0.4 19.2-0.4q0-0.4-0.4-0.7z"/>
			<path id="path500" class="s7" d="m245.8-67c0-1.2-3-1.8-7.7-2.7-3-0.6-7-0.1-10.1 0.4-0.6 0.1-6.6 0.9-7.5 0.9l-2.8-3.3c-0.2-0.1-0.4-0.3-0.5-0.3h-1.4c-0.1 0-0.1 0.2 0 0.3l1.5 3.4c0.2 0.4 0.4 0.8 0.6 1v0.3l8.7 0.4c6.7 0 19.2-0.4 19.2-0.4z"/>
			<path id="path502" class="s6" d="m236.4-66.1c0 0.1-0.1 0.2-0.2 0.2h-13.4c-0.1 0-0.2-0.1-0.2-0.2 0-0.1 0.1-0.2 0.2-0.2 0 0 7-2.2 9-2.1l4.4 2.1c0.1 0 0.2 0.1 0.2 0.2z"/>
			<path id="path504" class="s0" d="m236.4-66.1c0 0.1-0.1 0.2-0.2 0.2h-13.4c-0.1 0-0.2-0.1-0.2-0.2 0-0.1 0.1-0.2 0.2-0.2h13.4c0.1 0 0.2 0.1 0.2 0.2z"/>
			<path id="path506" class="s0" d="m236-69.9l1.2 1.4c0.3 0.4 0.8 0.6 1.1 0.6h6.8c-1.1-0.7-3.6-1.2-7-1.8-0.5-0.1-1.2-0.2-2.1-0.2z"/>
			<path id="path508" class="s7" d="m229.8-65.8c0 0.4-0.3 0.6-0.6 0.6h-0.3c-0.3 0-0.6-0.2-0.6-0.6 0-0.3 0.3-0.5 0.6-0.5h0.3c0.3 0 0.6 0.2 0.6 0.5z"/>
			<path id="path510" class="s0" d="m229.1-65.8c0 0.4-0.3 0.6-0.6 0.6h-0.3c-0.3 0-0.6-0.2-0.6-0.6 0-0.3 0.3-0.5 0.6-0.5h0.3c0.3 0 0.6 0.2 0.6 0.5z"/>
			<path id="path512" class="s7" d="m242.7-65.8c0 0.4-0.3 0.6-0.6 0.6h-0.3c-0.3 0-0.6-0.2-0.6-0.6 0-0.3 0.3-0.5 0.6-0.5h0.3c0.3 0 0.6 0.2 0.6 0.5z"/>
			<path id="path514" class="s0" d="m242-65.8c0 0.4-0.3 0.6-0.6 0.6h-0.3c-0.3 0-0.6-0.2-0.6-0.6 0-0.3 0.3-0.5 0.6-0.5h0.3c0.3 0 0.6 0.2 0.6 0.5z"/>
			<path id="path516" class="s7" d="m-208.4-67.6h-0.8v-1.6h0.3z"/>
			<path id="path518" class="s7" d="m-187.6-67.6h0.7v-1.6h-0.2z"/>
			<path id="path520" class="s0" d="m-197.6-65.5c0 0.2-0.1 0.4-0.3 0.4-0.2 0-0.3-0.2-0.3-0.4v-0.8c0-0.2 0.1-0.3 0.3-0.3 0.2 0 0.3 0.1 0.3 0.3z"/>
			<path id="path522" class="s0" d="m-205.5-65.5c0 0.2-0.2 0.4-0.3 0.4-0.2 0-0.3-0.2-0.3-0.4v-0.8c0-0.2 0.1-0.3 0.3-0.3 0.1 0 0.3 0.1 0.3 0.3z"/>
			<path id="path524" class="s0" d="m-197.2-68.3c-0.2-2-0.5-2.9-0.7-2.9-0.2 0-0.5 0.9-0.8 2.9z"/>
			<path id="path526" class="s0" d="m-209.3-67.6l0.2-0.2h22.3l0.2 0.2-0.2 0.1c0 0-8.4 1.4-11.2 1.4-2.8 0-11.1-1.4-11.1-1.4z"/>
			<path id="path528" class="s7" d="m-193.9-66.5c-0.3-1.6-2-2.9-4-2.9-2 0-3.7 1.3-4 2.9z"/>
			<path id="path530" class="s0" d="m-209.3-67.6l0.2-0.2h22.3l0.2 0.2-0.2 0.1h-22.3z"/>
			<path id="path532" class="s7" d="m-193.9-66.5c-0.3-1.6-2-2.9-4-2.9-2 0-3.7 1.3-4 2.9 0 0 3 0.7 4 0.7 1 0 4-0.7 4-0.7z"/>
			<path id="path534" class="s0" d="m-195.6-68.5c-0.6-0.4-1.4-0.7-2.3-0.7-0.9 0-1.7 0.3-2.3 0.7 0.5 0.9 1.3 1.5 2.3 1.5 1 0 1.8-0.6 2.3-1.5z"/>
			<path id="path536" class="s0" d="m-205.4-65.7h-0.3v-1.5h0.3z"/>
			<path id="path538" class="s0" d="m-190.3-65.5c0 0.2 0.1 0.4 0.3 0.4 0.2 0 0.3-0.2 0.3-0.4v-0.8c0-0.2-0.1-0.3-0.3-0.3-0.2 0-0.3 0.1-0.3 0.3z"/>
			<path id="path540" class="s0" d="m-190.4-65.7h0.2v-1.5h-0.2z"/>
			<path id="path542" class="s7" d="m-183.9-67.6h-0.8v-1.6h0.3z"/>
			<path id="path544" class="s7" d="m-163.1-67.6h0.7v-1.6h-0.2z"/>
			<path id="path546" class="s0" d="m-173.1-65.5c0 0.2-0.1 0.4-0.3 0.4-0.1 0-0.3-0.2-0.3-0.4v-0.8c0-0.2 0.2-0.3 0.3-0.3 0.2 0 0.3 0.1 0.3 0.3z"/>
			<path id="path548" class="s0" d="m-181-65.5c0 0.2-0.1 0.4-0.3 0.4-0.2 0-0.3-0.2-0.3-0.4v-0.8c0-0.2 0.1-0.3 0.3-0.3 0.2 0 0.3 0.1 0.3 0.3z"/>
			<path id="path550" class="s0" d="m-172.6-68.3c-0.3-2-0.6-2.9-0.8-2.9-0.2 0-0.5 0.9-0.7 2.9z"/>
			<path id="path552" class="s0" d="m-184.8-67.6l0.2-0.2h22.4l0.1 0.2-0.1 0.1c0 0-8.4 1.4-11.2 1.4-2.8 0-11.2-1.4-11.2-1.4z"/>
			<path id="path554" class="s7" d="m-169.4-66.5c-0.3-1.6-2-2.9-4-2.9-2 0-3.7 1.3-4 2.9z"/>
			<path id="path556" class="s0" d="m-184.8-67.6l0.2-0.2h22.4l0.1 0.2-0.1 0.1h-22.4z"/>
			<path id="path558" class="s7" d="m-169.4-66.5c-0.3-1.6-2-2.9-4-2.9-2 0-3.7 1.3-4 2.9 0 0 3 0.7 4 0.7 1 0 4-0.7 4-0.7z"/>
			<path id="path560" class="s0" d="m-171.1-68.5c-0.6-0.4-1.4-0.7-2.3-0.7-0.9 0-1.7 0.3-2.3 0.7 0.5 0.9 1.4 1.5 2.3 1.5 1 0 1.8-0.6 2.3-1.5z"/>
			<path id="path562" class="s0" d="m-180.9-65.7h-0.2v-1.5h0.2z"/>
			<path id="path564" class="s0" d="m-165.8-65.5c0 0.2 0.1 0.4 0.3 0.4 0.2 0 0.3-0.2 0.3-0.4v-0.8c0-0.2-0.1-0.3-0.3-0.3-0.2 0-0.3 0.1-0.3 0.3z"/>
			<path id="path566" class="s0" d="m-165.9-65.7h0.3v-1.5h-0.3z"/>
			<path id="path568" class="s7" d="m-159.6-67.6h-0.8v-1.6h0.3z"/>
			<path id="path570" class="s7" d="m-138.8-67.6h0.7v-1.6h-0.2z"/>
			<path id="path572" class="s0" d="m-148.8-65.5c0 0.2-0.1 0.4-0.3 0.4-0.1 0-0.3-0.2-0.3-0.4v-0.8c0-0.2 0.2-0.3 0.3-0.3 0.2 0 0.3 0.1 0.3 0.3z"/>
			<path id="path574" class="s0" d="m-156.7-65.5c0 0.2-0.1 0.4-0.3 0.4-0.2 0-0.3-0.2-0.3-0.4v-0.8c0-0.2 0.1-0.3 0.3-0.3 0.2 0 0.3 0.1 0.3 0.3z"/>
			<path id="path576" class="s0" d="m-148.3-68.3c-0.3-2-0.6-2.9-0.8-2.9-0.2 0-0.5 0.9-0.7 2.9z"/>
			<path id="path578" class="s0" d="m-160.5-67.6l0.2-0.2h22.4l0.1 0.2-0.1 0.1c0 0-8.4 1.4-11.2 1.4-2.8 0-11.2-1.4-11.2-1.4z"/>
			<path id="path580" class="s7" d="m-145.1-66.5c-0.3-1.6-2-2.9-4-2.9-2 0-3.7 1.3-4 2.9z"/>
			<path id="path582" class="s0" d="m-160.5-67.6l0.2-0.2h22.4l0.1 0.2-0.1 0.1h-22.4z"/>
			<path id="path584" class="s7" d="m-145.1-66.5c-0.3-1.6-2-2.9-4-2.9-2 0-3.7 1.3-4 2.9 0 0 3 0.7 4 0.7 1 0 4-0.7 4-0.7z"/>
			<path id="path586" class="s0" d="m-146.8-68.5c-0.6-0.4-1.4-0.7-2.3-0.7-0.9 0-1.7 0.3-2.3 0.7 0.5 0.9 1.4 1.5 2.3 1.5 1 0 1.8-0.6 2.3-1.5z"/>
			<path id="path588" class="s0" d="m-156.6-65.7h-0.2v-1.5h0.2z"/>
			<path id="path590" class="s0" d="m-141.5-65.5c0 0.2 0.1 0.4 0.3 0.4 0.2 0 0.3-0.2 0.3-0.4v-0.8c0-0.2-0.1-0.3-0.3-0.3-0.2 0-0.3 0.1-0.3 0.3z"/>
			<path id="path592" class="s0" d="m-141.6-65.7h0.3v-1.5h-0.3z"/>
			<path id="path594" class="s0" d="m-1.6 165.3l-0.2 0.1-30.7-35.9 0.1-0.1z"/>
			<path id="path596" class="s0" d="m-6.1 168.7l-0.1 0.1-26.6-39.2 0.2-0.1z"/>
			<path id="path598" class="s0" d="m25 145.6c0 1.5-1.2 2.8-2.7 2.8-1.5 0-2.8-1.3-2.8-2.8 0-1.5 1.3-2.7 2.8-2.7 1.5 0 2.7 1.2 2.7 2.7z"/>
			<path id="path600" class="s6" d="m-2.6 156.7h-4v-12h4z"/>
			<path id="path602" class="s0" d="m0.7 152h-0.3v-19.9h0.3z"/>
			<path id="path604" class="s0" d="m6.6 152h-0.4v-19.9h0.4z"/>
			<path id="path606" class="s6" d="m3.3 156.7h-4.8v-12h4.8z"/>
			<path id="path608" class="s6" d="m9.3 156.7h-4.8v-12h4.8z"/>
			<path id="path610" class="s0" d="m12.8 174.6h-20.1v-20.4h18.4z"/>
			<path id="path612" class="s0" d="m-12.7 179.3h-20.1v-20.4h18.4z"/>
			<path id="path614" class="s0" d="m-74.1 173h19.4v-15.5h-19.4z"/>
			<path id="path616" class="s0" d="m-79.7 162.5h1.3v-15.5h-1.3z"/>
			<path id="path618" class="s0" d="m-73.4 163.1h5.3v-15.5h-5.3z"/>
			<path id="path620" class="s0" d="m-71.6 155.5h1.8v-13.9h-1.8z"/>
			<path id="path622" class="s6" d="m-91.4 169.5h26.2v-17.1h-21.1z"/>
			<path id="path624" class="s7" d="m34.4 178.5h-20.1v-20.4h18.4z"/>
			<path id="path626" class="s0" d="m43.1 173.6h-20.1v-20.5h18.4z"/>
			<path id="path628" class="s0" d="m-57.7 179.3h-20v-20.4h18.3z"/>
			<path id="path630" class="s7" d="m-48.1 191.9h-43.9v-26.5h43.9z"/>
			<path id="path632" class="s7" d="m44.8 191.9h-69.5v-26.5h69.5z"/>
			<path id="path634" class="s6" d="m48.2 173.2l-26.9 10.6v-24.9h24.1z"/>
			<path id="path636" class="s6" d="m24 171.2h-78.3v5.1h-34.3v18.7h78.2v-5.1h34.4z"/>
			<path id="path638" class="s0" d="m48.2 199.8h-71.8v-26.6h71.8z"/>
			<path id="path640" class="s0" d="m-42.7 196l-0.3-14.6h-14.9l-3.2-3.1h-78.2v14.7h18v3z"/>
			<path id="path642" class="s0" d="m-79.6 157.5h-5.8v-1.5h5.8z"/>
			<path id="path644" class="s0" d="m-73 157.5h-5.8v-1.5h5.8z"/>
			<path id="path646" class="s0" d="m-66.4 157.5h-5.8v-1.5h5.8z"/>
			<path id="path648" class="s0" d="m-79.4 153.8h-5.9v-0.6h5.9z"/>
			<path id="path650" class="s0" d="m-72.9 153.8h-5.8v-0.6h5.8z"/>
			<path id="path652" class="s0" d="m-66.3 153.8h-5.8v-0.6h5.8z"/>
			<path id="path654" class="s7" d="m-69.4 158.9v-7.8h-2.9v7.8z"/>
			<path id="path656" class="s7" d="m-65.1 158.9v-7.8h-3.5v7.8z"/>
			<path id="path658" class="s7" d="m-60.7 158.9v-7.8h-3.5v7.8z"/>
			<path id="path660" class="s0" d="m-74.8 176.9c0 0.5-0.2 0.9-0.4 0.9h-2.3c-0.3 0-0.5-0.4-0.5-0.9 0-0.6 0.2-1 0.5-1h2.3c0.2 0 0.4 0.4 0.4 1z"/>
			<path id="path662" class="s0" d="m-71.3 176.9c0 0.5-0.2 0.9-0.5 0.9h-2.3c-0.3 0-0.5-0.4-0.5-0.9 0-0.6 0.2-1 0.5-1h2.3c0.3 0 0.5 0.4 0.5 1z"/>
			<path id="path664" class="s0" d="m-67.9 176.9c0 0.5-0.2 0.9-0.4 0.9h-2.3c-0.3 0-0.5-0.4-0.5-0.9 0-0.6 0.2-1 0.5-1h2.3c0.2 0 0.4 0.4 0.4 1z"/>
			<path id="path666" class="s0" d="m-64.4 176.9c0 0.5-0.2 0.9-0.5 0.9h-2.3c-0.3 0-0.5-0.4-0.5-0.9 0-0.6 0.2-1 0.5-1h2.3c0.3 0 0.5 0.4 0.5 1z"/>
			<path id="path668" class="s0" d="m-61 176.9c0 0.5-0.2 0.9-0.4 0.9h-2.3c-0.3 0-0.5-0.4-0.5-0.9 0-0.6 0.2-1 0.5-1h2.3c0.2 0 0.4 0.4 0.4 1z"/>
			<path id="path670" class="s0" d="m-74.8 174.7c0 0.5-0.2 0.9-0.4 0.9h-2.3c-0.3 0-0.5-0.4-0.5-0.9 0-0.6 0.2-1 0.5-1h2.3c0.2 0 0.4 0.4 0.4 1z"/>
			<path id="path672" class="s0" d="m-71.3 174.7c0 0.5-0.2 0.9-0.5 0.9h-2.3c-0.3 0-0.5-0.4-0.5-0.9 0-0.6 0.2-1 0.5-1h2.3c0.3 0 0.5 0.4 0.5 1z"/>
			<path id="path674" class="s0" d="m-67.9 174.7c0 0.5-0.2 0.9-0.4 0.9h-2.3c-0.3 0-0.5-0.4-0.5-0.9 0-0.6 0.2-1 0.5-1h2.3c0.2 0 0.4 0.4 0.4 1z"/>
			<path id="path676" class="s0" d="m-64.4 174.7c0 0.5-0.2 0.9-0.5 0.9h-2.3c-0.3 0-0.5-0.4-0.5-0.9 0-0.6 0.2-1 0.5-1h2.3c0.3 0 0.5 0.4 0.5 1z"/>
			<path id="path678" class="s0" d="m-61 174.7c0 0.5-0.2 0.9-0.4 0.9h-2.3c-0.3 0-0.5-0.4-0.5-0.9 0-0.6 0.2-1 0.5-1h2.3c0.2 0 0.4 0.4 0.4 1z"/>
			<path id="path680" class="s0" d="m-58.2 175.3c0.2 1.9 1.2 3.3 2.3 3.3h16.1c1.1 0 2.1-1.4 2.3-3.3z"/>
			<path id="path682" class="s7" d="m-105.7 182.9h-1.9v-3.5h1.9z"/>
			<path id="path684" class="s7" d="m-102.4 182.9h-1.9v-3.5h1.9z"/>
			<path id="path686" class="s7" d="m-99.1 182.9h-1.9v-3.5h1.9z"/>
			<path id="path688" class="s7" d="m-95.8 182.9h-1.9v-3.5h1.9z"/>
			<path id="path690" class="s7" d="m-92.5 182.9h-1.9v-3.5h1.9z"/>
			<path id="path692" class="s7" d="m-89.2 182.9h-1.9v-3.5h1.9z"/>
			<path id="path694" class="s7" d="m-85.9 182.9h-1.9v-3.5h1.9z"/>
			<path id="path696" class="s7" d="m-82.6 182.9h-2v-3.5h2z"/>
			<path id="path698" class="s7" d="m-79.3 182.9h-2v-3.5h2z"/>
			<path id="path700" class="s7" d="m-76 182.9h-2v-3.5h2z"/>
			<path id="path702" class="s7" d="m-72.7 182.9h-2v-3.5h2z"/>
			<path id="path704" class="s7" d="m-69.4 182.9h-2v-3.5h2z"/>
			<path id="path706" class="s7" d="m-66.1 182.9h-2v-3.5h2z"/>
			<path id="path708" class="s7" d="m-62.8 182.9h-2v-3.5h2z"/>
			<path id="path710" class="s0" d="m-74.5 167.2h-16.8v-1h16.8z"/>
			<path id="path712" class="s0" d="m-80.1 172.6h-3.5v-3.9h3.5z"/>
			<path id="path714" class="s0" d="m-85.3 178h-1v-6h1z"/>
			<path id="path716" class="s0" d="m-83 163.7h-1.7v-4.7h1.7z"/>
			<path id="path718" class="s0" d="m-80.5 163.7h-1.7v-4.7h1.7z"/>
			<path id="path720" class="s0" d="m-78 163.7h-1.7v-4.7h1.7z"/>
			<path id="path722" class="s0" d="m-75.4 163.7h-1.8v-4.7h1.8z"/>
			<path id="path724" class="s0" d="m-71.4 164.1h-1.7v-2.8h1.7z"/>
			<path id="path726" class="s0" d="m-68.5 164.1h-1.7v-2.8h1.7z"/>
			<path id="path728" class="s0" d="m-65.6 164.1h-1.7v-2.8h1.7z"/>
			<path id="path730" class="s7" d="m-102.9 175.8h-36.3v2.5h0.3v-2.2h3.3v2.2h0.3v-2.2h3.3v2.2h0.3v-2.2h3.4v2.2h0.3v-2.2h0.3v2.1h0.9v-2.1h2.1v2.2h0.3v-2.2h3.4v2.2h0.2v-2.2h1v2.1h0.8v-2.1h1.6v2.2h0.3v-2.2h3.3v2.2h0.3v-2.2h3.4v2.2h0.2v-2.2h3.4v2.2h0.3v-2.2h3.3v2.2h0.3v-2.5z"/>
			<path id="path732" class="s6" d="m-73.3 164.8h-1.8v-3.9h1.8z"/>
			<path id="path734" class="s6" d="m-69.3 164.8h-1.8v-3.9h1.8z"/>
			<path id="path736" class="s6" d="m-65.2 164.8h-1.9v-3.9h1.9z"/>
			<path id="path738" class="s6" d="m-61.2 164.8h-1.9v-3.9h1.9z"/>
			<path id="path740" class="s0" d="m-56 157.5h-1.6v-2h1.6z"/>
			<path id="path742" class="s0" d="m-58.5 157.5h-1.6v-2h1.6z"/>
			<path id="path744" class="s6" d="m-17.9 171.1h-2.4v-16.8h2.4z"/>
			<path id="path746" class="s6" d="m-16.6 166.2h-5.2v-4h5.2z"/>
			<path id="path748" class="s0" d="m-15.5 168h-7.6v-2.8h7.6z"/>
			<path id="path750" class="s6" d="m-14.3 171h-9.7v-3.5h9.7z"/>
			<path id="path752" class="s6" d="m10.2 184.1h-0.5v-11.9h0.5z"/>
			<path id="path754" class="s6" d="m13.8 184.1h-0.5v-11.9h0.5z"/>
			<path id="path756" class="s0" d="m-30.7 183.8h-0.6v-12.5h0.6z"/>
			<path id="path758" class="s0" d="m-26.8 183.8h-0.6v-12.5h0.6z"/>
			<path id="path760" class="s6" d="m21.3 163.6h-36.9v-0.6h36.9z"/>
			<path id="path762" class="s6" d="m-13.8 165.4h-0.4v-2.4h0.4z"/>
			<path id="path764" class="s6" d="m-9.4 165.4h-0.4v-2.4h0.4z"/>
			<path id="path766" class="s6" d="m-5.1 165.4h-0.4v-2.4h0.4z"/>
			<path id="path768" class="s6" d="m-0.8 165.4h-0.3v-2.4h0.3z"/>
			<path id="path770" class="s6" d="m3.6 165.4h-0.4v-2.4h0.4z"/>
			<path id="path772" class="s6" d="m7.9 165.4h-0.3v-2.4h0.3z"/>
			<path id="path774" class="s6" d="m12.3 165.4h-0.4v-2.4h0.4z"/>
			<path id="path776" class="s6" d="m16.6 165.4h-0.3v-2.4h0.3z"/>
			<path id="path778" class="s6" d="m-24.3 183.9v-0.5h72.4v0.5z"/>
			<path id="path780" class="s0" d="m91.6 179.5h23.6v-0.4h-23.6z"/>
			<path id="path782" class="s7" d="m95.1 180h5.3v-1.6h-5.3z"/>
			<path id="path784" class="s6" d="m97.6 183.5h-5.7c-1.2-0.6-2.2-1.7-2.5-3.1-0.4-1.9 0.9-3.5 2.9-3.5h3.6c2 0 2.5 1.6 2.9 3.5 0.3 1.4-0.2 2.5-1.2 3.1z"/>
			<path id="path786" class="s6" d="m-34.3 200.7h-145v-18.6h145z"/>
			<path id="path788" class="s2" d="m94.9 180.9l-2.9 3.1h-256.3c-1.5 3.7-9 6.5-17.9 6.5h-31.3l1.2 9h355.1l19.4-21.7z"/>
			<path id="path790" fill-rule="evenodd" class="s4" d="m138.3 214.4c3.4 6.1 2.1 5.8-11.5 5.8-10 0-19.2-6.2-26.2-6.2-82.3 0-213.7 0-213.7 0 0 0-2.6-1.5-15.8-3h-64.9v-1.7h4.8v-3.1c-4.5-0.3-8.6-0.6-12-0.8l-1.9 9.3h-6.2l-2-9.8q-0.6 0-1 0l-0.4-5.8h355.2c0 0-7.8 9.2-4.4 15.3zm-323.6-5.1h36.9c-12.8-1-25.8-2-36.9-2.8z"/>
			<path id="path792" class="s0" d="m-162.5 182.1v-3.6h-6.9v3.6z"/>
			<path id="path794" class="s0" d="m-163.7 177.4v-2.2h-4.5v2.2z"/>
			<path id="path796" class="s7" d="m-161.3 180v-1.6h-9.1v1.6z"/>
			<path id="path798" class="s6" d="m-206.8 190.6h-4.6v-6.6h4.6z"/>
			<path id="path800" class="s6" d="m-198.9 190.6h-4.7v-6.6h4.7z"/>
			<path id="path802" class="s0" d="m-206.8 186h-4.6v-1.4h4.6z"/>
			<path id="path804" class="s0" d="m-184.8 186.4h-13.3v-0.4h13.3z"/>
			<path id="path806" class="s7" d="m-188.3 187h-5.2v-1.7h5.2z"/>
			<path id="path808" class="s6" d="m-190.8 190.5h5.7c1.2-0.6 2.2-1.8 2.5-3.1 0.4-2-0.8-3.6-2.8-3.6h-3.7c-1.9 0-2.4 1.6-2.8 3.6-0.3 1.3 0.2 2.5 1.1 3.1z"/>
			<path id="path810" class="s0" d="m-198.9 186h-4.7v-1.4h4.7z"/>
			<path id="path812" class="s0" d="m-170.4 189.1h-43.1v-1.2h43.1z"/>
			<path id="path814" class="s6" d="m-161 179c-4.4 0-9.2 0-13.1 0-2.7 0 0.3-2.9 6.3-2.9 5.5 0 7.1 0.2 9.2 0.2 0.7 0 1.7 2.7-2.4 2.7z"/>
			<path id="path816" class="s0" d="m15.7 160.4h-1.2v-24.4h1.2z"/>
			<path id="path818" class="s6" d="m21.9 143h-8.9v-3h8.9z"/>
			<path id="path820" class="s0" d="m13 142.6v0.4h8.9v-0.4z"/>
			<path id="path822" class="s0" d="m15.1 146.5v0.4l6.8-3.9v-0.4z"/>
			<path id="path824" class="s6" d="m25.6 149.1h-12.8v-2.1h12.8z"/>
			<path id="path826" class="s0" d="m25.6 149.2h-12.8v-0.5h12.8z"/>
			<path id="path828" class="s0" d="m24.4 159h-0.8l-2.3-10.1h0.8z"/>
			<path id="path830" class="s0" d="m22.8 154h-7.7v-0.4h7.7z"/>
			<path id="path832" class="s0" d="m23.4 154.2l-8.3-4.9v-0.4l8.3 4.9z"/>
			<path id="path834" class="s0" d="m23.9 158.9l-8.3-4.8v-0.4l8.3 4.8z"/>
			<path id="path836" class="s0" d="m23.5 153.7l-8.3 4.8v0.4l8.3-4.8z"/>
			<path id="path838" class="s0" d="m21.9 148.9l-6.8 4.9v0.4l6.8-4.9z"/>
			<path id="path840" class="s0" d="m28.3 157.4l-0.4-0.5 15.2-12.7 0.3 0.5z"/>
			<path id="path842" class="s7" d="m38.4 170.5h-7v-9.2h7z"/>
			<path id="path844" class="s0" d="m-33.1 112.2h0.7v58.8h-0.7z"/>
			<path id="path846" class="s0" d="m-41.5 128.8h0.7l-4.1 42.2h-0.6z"/>
			<path id="path848" class="s0" d="m-25.3 129.4h-18.2v-0.6h18.2z"/>
			<path id="path850" class="s0" d="m-25.9 124.2h-10.1v-2.2h10.1z"/>
			<path id="path852" class="s0" d="m-32.5 135.2h-9.2v-0.6h9.2z"/>
			<path id="path854" class="s0" d="m-32.5 140.9h-23.2v-0.6h23.2z"/>
			<path id="path856" class="s0" d="m-32.5 146.7h-17l-0.2-0.6h17.2z"/>
			<path id="path858" class="s0" d="m-32.5 153.2h-14.5v-0.6h14.5z"/>
			<path id="path860" class="s0" d="m-32.5 160.1h-11.8v-0.6h11.8z"/>
			<path id="path862" class="s0" d="m-32.5 166.2h-12.2v-0.7h12.2z"/>
			<path id="path864" class="s0" d="m-32.5 171.2l-12.2-4.5v-0.7l12.2 4.6z"/>
			<path id="path866" class="s0" d="m-32.7 165.1l-11.3-4.6v-0.6l11.3 4.5z"/>
			<path id="path868" class="s0" d="m-32.6 153.1l-10.1-6.1v-0.7l10.1 6.1z"/>
			<path id="path870" class="s0" d="m-32.8 159.7l-10.6-6.1v-0.6l10.6 6.1z"/>
			<path id="path872" class="s0" d="m-32.9 146.6l-9.2-5.3v-0.7l9.2 5.4z"/>
			<path id="path874" class="s0" d="m-32.8 140.9l-8.7-5.2v-0.7l8.7 5.2z"/>
			<path id="path876" class="s0" d="m-32.4 135l-8.7-5.2v-0.7l8.7 5.2z"/>
			<path id="path878" class="s0" d="m-41.5 135l8.7-5.2v-0.7l-8.7 5.2z"/>
			<path id="path880" class="s0" d="m-32.6 135l4.3-5.2v-0.7l-4.3 5.3z"/>
			<path id="path882" class="s0" d="m-42.4 140.7l9.4-5.2v-0.7l-9.4 5.2z"/>
			<path id="path884" class="s0" d="m-42.9 146.6l10-5.7v-0.6l-10 5.7z"/>
			<path id="path886" class="s0" d="m-43.5 152.7l10.8-5.7v-0.6l-10.8 5.7z"/>
			<path id="path888" class="s0" d="m-44.3 159.8l11.3-6.4v-0.6l-11.3 6.3z"/>
			<path id="path890" class="s0" d="m-44.9 166l11.9-5.8v-0.6l-11.9 5.7z"/>
			<path id="path892" class="s0" d="m-45.5 171.1l12.6-5.1v-0.7l-12.6 5.1z"/>
			<path id="path894" class="s0" d="m-44.2 159.9l-7.8-18.7 0.1-0.7 7.9 18.8z"/>
			<path id="path896" class="s0" d="m-30.5 113.5h-4.6v-0.7h4.6z"/>
			<path id="path898" class="s0" d="m-31.3 112.2h-3.2v-0.9h3.2z"/>
			<path id="path900" class="s0" d="m-32 119.2h-1.8v-1.6h1.8z"/>
			<path id="path902" class="s0" d="m-32.7 129h-1.6v-7.7h1.6z"/>
			<path id="path904" class="s0" d="m-43.5 126.3v2.9h0.5v-2.6h16.9v2.6h0.5v-2.9z"/>
			<path id="path906" class="s0" d="m-25.9 127.8h-17.4v-0.2h17.4z"/>
			<path id="path908" class="s0" d="m-29.3 129.4h-0.3v-3h0.3z"/>
			<path id="path910" class="s0" d="m-38.4 129.4h-0.2v-3h0.2z"/>
			<path id="path912" class="s0" d="m-34.2 128.8h-0.3l-1.1-4.7h0.2z"/>
			<path id="path914" class="s0" d="m-33.2 128.5h-0.3l5.7-5h0.2z"/>
			<path id="path916" fill-rule="evenodd" class="s0" d="m-42.4 134.8c0 1.7-1.4 3.1-3.1 3.1h-8c-1.7 0-3.1-1.4-3.1-3.1 0-1.7 1.4-3.1 3.1-3.1h8c1.7 0 3.1 1.4 3.1 3.1zm-0.2 0c0-1.6-1.3-2.9-2.9-2.9h-8c-1.6 0-2.9 1.3-2.9 2.9 0 1.6 1.3 2.9 2.9 2.9h8c1.6 0 2.9-1.3 2.9-2.9z"/>
			<path id="path918" class="s0" d="m-42.7 134h-13.6v-0.3h13.6z"/>
			<path id="path920" class="s0" d="m-42.7 135.6h-13.6v-0.3h13.6z"/>
			<path id="path922" class="s0" d="m-43.4 137.1h-12.3v-0.3h12.3z"/>
			<path id="path924" class="s0" d="m-43.4 132.9h-12.3v-0.3h12.3z"/>
			<path id="path926" class="s0" d="m-54.2 137.7h-0.1v-5.8h0.1z"/>
			<path id="path928" class="s0" d="m-52.8 137.7h-0.1v-5.8h0.1z"/>
			<path id="path930" class="s0" d="m-51.4 137.7h-0.1v-5.8h0.1z"/>
			<path id="path932" class="s0" d="m-50 137.7h-0.1v-5.8h0.1z"/>
			<path id="path934" class="s0" d="m-48.6 137.7h-0.1v-5.8h0.1z"/>
			<path id="path936" class="s0" d="m-47.2 137.7h-0.1v-5.8h0.1z"/>
			<path id="path938" class="s0" d="m-45.8 137.7h-0.1v-5.8h0.1z"/>
			<path id="path940" class="s0" d="m-44.4 137.7h-0.1v-5.8h0.1z"/>
			<path id="path942" class="s0" d="m-43 136.2h-0.1v-2.9h0.1z"/>
			<path id="path944" class="s0" d="m-55.5 136.9h-0.1v-4.2h0.1z"/>
			<path id="path946" class="s0" d="m-49 137.7h-0.8v-4.4h0.8z"/>
			<path id="path948" class="s0" d="m-51.6 136.4v-0.8h4.5v0.8z"/>
			<path id="path950" class="s0" d="m-47.5 140.4h-3.6v-1.4h3.6z"/>
			<path id="path952" class="s0" d="m-50.2 139.4h-0.5v-3.5h0.5z"/>
			<path id="path954" class="s0" d="m-47.9 139.4h-0.5v-3.5h0.5z"/>
			<path id="path956" class="s3" d="m-183 211q-1.3-0.1-2.5-0.2v0.2z"/>
			<path id="path958" class="s3" d="m137.5 210.6c0.1-5.5 5.2-11.5 5.2-11.5h-355.2l0.2 3.6z"/>
			<path id="path960" class="s0" d="m-213.2 192.5l0.9 7h355.1l9.5-10.6z"/>
			<path id="path962" class="s8" d="m11.3 290.3c0 0.6-0.5 1.1-1.3 1.1h-7.4c-0.8 0-1-0.5-0.6-1.1l2.3-3.1c0.2-0.3 0.8-0.5 1.2-0.5h5c0.5 0 0.8 0.2 0.8 0.5z"/>
			<path id="path964" class="s8" d="m-10.3 297.7h-20.3v-3.6h20.3z"/>
			<path id="path966" class="s9" d="m89.8 253.9h-4.3v-3.5h4.3z"/>
			<path id="path968" class="s8" d="m91.5 250.5l-0.2 0.2h-7.1l-0.2-0.2v-2.6l0.2-0.2h7.1l0.2 0.2z"/>
			<path id="path970" class="s9" d="m150.7 281.6h-3.6v-2.9h3.6z"/>
			<path id="path972" class="s8" d="m152.1 278.8l-0.2 0.2h-5.9l-0.1-0.2v-2.1l0.1-0.2h5.9l0.2 0.2z"/>
			<path id="path974" class="s9" d="m25.1 281.4h-1.9v-1.6h1.9z"/>
			<path id="path976" class="s8" d="m25.8 279.9v0.1h-3.2l-0.1-0.1v-1.1l0.1-0.1h3.2v0.1z"/>
			<path id="path978" class="s8" d="m114.5 268.9h2.4v-5.1h-1.1z"/>
			<path id="path980" class="s8" d="m119.8 268.9h-2.5v-5.1h1.1z"/>
			<path id="path982" class="s8" d="m168.9 291.3h5.3v-7.1h-2.4z"/>
			<path id="path984" class="s9" d="m179 291.3h-5.3v-7.1h2.3z"/>
			<path id="path986" class="s9" d="m60.1 253.9h-4.3v-3.5h4.3z"/>
			<path id="path988" class="s10" d="m107 282.7l-14.1-29c-0.2-0.3-1.2-0.5-2.3-0.5h-36.2c-1.1 0-2.1 0.2-2.3 0.5l-18.1 29z"/>
			<path id="path990" class="s11" d="m106.1 280.8l-13.2-27.1c-0.1-0.2-6.5-0.3-7.1-0.4l11.4 27.5z"/>
			<path id="path992" class="s8" d="m136.8 296.3l-11.4-27c-0.2-0.3-1.2-0.6-2.2-0.6h-31.3l11.7 27.6z"/>
			<path id="path994" class="s9" d="m160.6 292.3l-6.7-10.5c-0.2-0.3-1.2-0.6-2.2-0.6h-127.3c-1.1 0-2.1 0.3-2.3 0.6l-6.6 10.5z"/>
			<path id="path996" class="s9" d="m219.4 289.9l9.8-7.5-0.2-0.2-9.8 7.5z"/>
			<path id="path998" class="s8" d="m221.9 288.6l3.3-2.6-0.7-1-3.4 2.5z"/>
			<path id="path1000" class="s10" d="m224 294.2l-9.8 1.6c-1.9-1.3-1.2-3.3-0.4-5.5 0.8-2.2 1.5-3.8 3.4-3.8h3.2c1.6 0 2.4 1.1 3.4 2.8 0.9 1.6 1.1 3.5 0.2 4.9z"/>
			<path id="path1002" class="s9" d="m191.9 287.1l9.8-7.4-0.2-0.3-9.8 7.5z"/>
			<path id="path1004" class="s8" d="m194.4 285.8l3.3-2.5-0.8-1.1-3.3 2.6z"/>
			<path id="path1006" class="s10" d="m196.5 291.5l-9.9 1.6c-1.9-1.3-1.2-3.4-0.4-5.6 0.8-2.2 1.6-3.8 3.5-3.8h3.2c1.6 0 2.3 1.1 3.4 2.9 0.9 1.5 1 3.4 0.2 4.9z"/>
			<path id="path1008" class="s8" d="m211.4 305.5h-211v-14.8h211z"/>
			<path id="path1010" class="s12" d="m219.5 289.7l-2.2 2.5h-204.9c-1.2 2.9-7.2 5.2-14.3 5.2h-30.1l2.5 7.2h287.4l15.5-17.4z"/>
			<path id="path1012" fill-rule="evenodd" class="s4" d="m254.3 316.5c2.7 4.9 1.6 4.6-9.3 4.6-8 0-15.3-4.9-20.9-4.9-65.7 0-170.8 0-170.8 0 0 0-2-1.2-12.6-2.5h-51.9v-1.3h3.9v-2.4c-3.6-0.3-6.9-0.5-9.7-0.7l-1.5 7.4h-4.9l-1.6-7.8c-0.3 0-3.2 0-3.4 0l-1.3-4.7h287.5c0 0-6.2 7.4-3.5 12.3zm-258.7-4.1h29.5c-10.2-0.8-20.7-1.6-29.5-2.2z"/>
			<path id="path1014" class="s13" d="m7.5 296.2h-39.7l-0.2-0.9h39.9z"/>
			<path id="path1016" class="s3" d="m253.6 313.5c0.1-4.5 4.2-9.3 4.2-9.3h-287.5l0.8 2.9z"/>
			<path id="path1018" class="s14" d="m-31.4 299l1.9 5.6h287.4l14.3-16-80.6 10.6z"/>
			<path id="path1020" class="s8" d="m94.2 252.9c0 0.3-0.3 0.6-0.7 0.6h-43c-0.4 0-0.7-0.3-0.7-0.6 0-0.4 0.3-0.7 0.7-0.7h43c0.4 0 0.7 0.3 0.7 0.7z"/>
			<path id="path1022" class="s9" d="m126.4 268.8c0 0.3-0.3 0.6-0.6 0.6h-34.1c-0.4 0-0.7-0.3-0.7-0.6 0-0.4 0.3-0.7 0.7-0.7h34.1c0.3 0 0.6 0.3 0.6 0.7z"/>
			<path id="path1024" class="s8" d="m154.7 281.6c0 0.3-0.3 0.6-0.7 0.6h-131.9c-0.3 0-0.6-0.3-0.6-0.6 0-0.4 0.3-0.7 0.6-0.7h131.9c0.4 0 0.7 0.3 0.7 0.7z"/>
			<path id="path1026" class="s8" d="m84.5 260.4c0 0.2-0.2 0.5-0.5 0.5h-24.4c-0.2 0-0.5-0.3-0.5-0.5v-3.7c0-0.3 0.3-0.5 0.5-0.5h24.4c0.3 0 0.5 0.2 0.5 0.5z"/>
			<path id="path1028" class="s8" d="m84.5 269.2c0 0.3-0.2 0.5-0.5 0.5h-24.4c-0.2 0-0.5-0.2-0.5-0.5v-6.2c0-0.2 0.3-0.5 0.5-0.5h24.4c0.3 0 0.5 0.3 0.5 0.5z"/>
			<path id="path1030" class="s8" d="m61.8 250.5l-0.2 0.2h-7.1l-0.2-0.2v-2.6l0.2-0.2h7.1l0.2 0.2z"/>
			<path id="path1032" class="s8" d="m56.8 260.5h-4.7v-3.6h4.7z"/>
			<path id="path1034" class="s8" d="m56.8 265.9h-4.7v-3.7h4.7z"/>
			<path id="path1036" class="s8" d="m54.8 271.8h-2.7v-4.8h2.7z"/>
			<path id="path1038" class="s9" d="m94.2 260.9h-2.7l-1.4-4.9h2.7z"/>
			<path id="path1040" class="s9" d="m96.2 266.6h-2.7l-1.3-4.8h2.6z"/>
			<path id="path1042" class="s9" d="m123.9 272.5h-20.7v-1h20.7z"/>
			<path id="path1044" class="s8" d="m67.8 252.5h3.4v-7h-1.5z"/>
			<path id="path1046" class="s8" d="m75.2 252.5h-3.4v-7h1.5z"/>
			<path id="path1048" class="s9" d="m177.3 280.5q0.1 0.4 0.1 0.8c0 1.5-0.9 2.6-2.2 2.6h-2.5c-1.3 0-2.3-1.1-2.3-2.6q0-0.4 0.2-0.8c-0.5 0.5-0.8 1.1-0.8 1.8 0 1.4 1.2 2.6 2.6 2.6h3c1.5 0 2.6-1.2 2.6-2.6 0-0.7-0.2-1.3-0.7-1.8z"/>
			<path id="path1050" class="s10" d="m177.3 280.8c0 1.7-1.5 3.2-3.3 3.2-1.8 0-3.2-1.5-3.2-3.2 0-1.8 1.4-3.3 3.2-3.3 1.8 0 3.3 1.5 3.3 3.3z"/>
			<path id="path1052" class="s9" d="m82.2 273.9h-9.4v-2h9.4z"/>
			<path id="path1054" class="s9" d="m69.8 275.9h-7.3v-1.3h7.3z"/>
			<path id="path1056" class="s9" d="m91.2 278.2h-15v-1.3h15z"/>
			<path id="path1058" class="s9" d="m56.5 272.5h-12.4v-3h12.4z"/>
			<path id="path1060" class="s13" d="m18.5 294.6h-4.2v-1.4h4.2z"/>
			<path id="path1062" class="s13" d="m24.9 294.6h-4.2v-1.4h4.2z"/>
			<path id="path1064" class="s13" d="m31.2 294.6h-4.2v-1.4h4.2z"/>
			<path id="path1066" class="s13" d="m37.5 294.6h-4.2v-1.4h4.2z"/>
			<path id="path1068" class="s13" d="m43.9 294.6h-4.2v-1.4h4.2z"/>
			<path id="path1070" class="s13" d="m50.2 294.6h-4.2v-1.4h4.2z"/>
			<path id="path1072" class="s9" d="m65.5 299.1v-4.2h-14.7v4.2z"/>
			<path id="path1074" class="s10" d="m67.3 295h-18.7v-0.7h18.7z"/>
			<path id="path1076" class="s9" d="m87.5 299.1v-4.2h-14.7v4.2z"/>
			<path id="path1078" class="s10" d="m89.4 295h-18.7v-0.7h18.7z"/>
			<path id="path1080" class="s15" d="m7.4 81.4c0 0.7-0.6 1.3-1.3 1.3-0.7 0-1.3-0.6-1.3-1.3v-16.3c0-0.7 0.6-1.3 1.3-1.3 0.7 0 1.3 0.6 1.3 1.3z"/>
			<path id="path1082" class="s15" d="m11.3 75.7c0.2 0.3 0.1 0.7-0.3 0.9-0.3 0.1-0.6 0-0.8-0.3l-4-6.8c-0.2-0.3-0.1-0.7 0.2-0.9 0.3-0.2 0.7-0.1 0.9 0.2z"/>
			<path id="path1084" class="s15" d="m13.3 83.4c0 0.5-0.5 1-1 1-0.6 0-1-0.5-1-1v-12.5c0-0.5 0.4-1 1-1 0.5 0 1 0.5 1 1z"/>
			<path id="path1086" class="s15" d="m16.9 83.4c0 0.5-0.5 1-1 1-0.6 0-1-0.5-1-1v-12.5c0-0.5 0.4-1 1-1 0.5 0 1 0.5 1 1z"/>
			<path id="path1088" class="s15" d="m255.4 73.5c0 3.7-3 6.7-6.6 6.7h-21.4c-3.7 0-6.6-3-6.6-6.7 0-3.6 2.9-6.6 6.6-6.6h21.4c3.6 0 6.6 3 6.6 6.6z"/>
			<path id="path1090" class="s16" d="m203.7 60.3l9.4-4.6-0.1-0.2-9.4 4.6z"/>
			<path id="path1092" class="s2" d="m206 59.6l3.2-1.6-0.4-1-3.2 1.6z"/>
			<path id="path1094" class="s15" d="m207.5 60.5c-0.6-1.6-1-2.6-2.3-2.9l-2.7-0.5c-1.6-0.3-2.5 0.9-3.5 2.6-1 1.7-2 3.3-0.6 4.7l8.5 0.2c0.9-1 1.1-2.6 0.6-4.1z"/>
			<path id="path1096" class="s17" d="m216.1 73.4c0 1.6-1.3 2.9-2.9 2.9h-21.6c-1.6 0-2.9-1.3-2.9-2.9v-8.4c0-1.6 1.3-2.9 2.9-2.9h21.6c1.6 0 2.9 1.3 2.9 2.9z"/>
			<path id="path1098" class="s2" d="m130.7 52.9h-0.5v-26.5h0.5z"/>
			<path id="path1100" class="s2" d="m136.2 47.3h-0.4v-26.5h0.4z"/>
			<path id="path1102" class="s2" d="m118.9 47.3h-1.4v-7.2h1.4z"/>
			<path id="path1104" class="s2" d="m118.9 43h-2.6v-4.7h2.6z"/>
			<path id="path1106" class="s2" d="m121.9 44.3h-1v-4.8h1z"/>
			<path id="path1108" class="s2" d="m121.9 41.4h-1.7v-3h1.7z"/>
			<path id="path1110" class="s2" d="m125.5 45.1h-1.3v-6.9h1.3z"/>
			<path id="path1112" class="s2" d="m144.3 47.6h-3.2v-23.4h0.9z"/>
			<path id="path1114" class="s2" d="m107.7 21.3h-8.3v0.2h8.3z"/>
			<path id="path1116" class="s2" d="m108.4 24.7h-9.6v0.3h9.6z"/>
			<path id="path1118" class="s2" d="m108.6 28.6h-10.4v0.2h10.4z"/>
			<path id="path1120" class="s2" d="m109.2 32.7h-11.4v0.2h11.4z"/>
			<path id="path1122" class="s2" d="m108.7 33l-12.1 4.2 0.1 0.2 12.1-4.2z"/>
			<path id="path1124" class="s2" d="m109.2 28.7l-12.1 4.2 0.1 0.2 12.1-4.2z"/>
			<path id="path1126" class="s2" d="m108.2 25l-10 3.6 0.1 0.2 10-3.6z"/>
			<path id="path1128" class="s2" d="m107.2 21.8l-8.4 3.2 0.1 0.2 8.3-3.2z"/>
			<path id="path1130" class="s2" d="m99.3 21.8l8.3 3.2v0.2l-8.4-3.2z"/>
			<path id="path1132" class="s2" d="m98.8 25.6l9.9 2.8v0.3l-9.9-2.9z"/>
			<path id="path1134" class="s2" d="m98.6 28.8l11.3 4.1-0.1 0.3-11.3-4.2z"/>
			<path id="path1136" class="s2" d="m97.9 32.7l12.3 4-0.1 0.2-12.3-3.9z"/>
			<path id="path1138" class="s2" d="m97.1 40h-1.4l3.1-22.3h1.5z"/>
			<path id="path1140" class="s2" d="m110 40h1.4l-3.1-22.3h-1.5z"/>
			<path id="path1142" class="s18" d="m108.5 17.8v-2.3c0-2.6-2.2-4.8-4.8-4.8-2.7 0-4.9 2.2-4.9 4.8v2.3z"/>
			<path id="path1144" class="s2" d="m110.2 17.5h-19.4v0.7h19.4z"/>
			<path id="path1146" class="s6" d="m114.3 49.4h-19.1v-10.9h19.1z"/>
			<path id="path1148" class="s2" d="m149.4 54.1c0 0.3-0.3 0.6-0.6 0.6h-54.8c-0.3 0-0.6-0.3-0.6-0.6v-9.2c0-0.3 0.3-0.6 0.6-0.6h54.8c0.3 0 0.6 0.3 0.6 0.6z"/>
			<path id="path1150" class="s6" d="m147.1 44.8h-37.9c-0.3 0-0.5 0.3-0.5 0.6v9.2c0 0.3 0.2 0.6 0.5 0.6h37.9z"/>
			<path id="path1152" class="s2" d="m91.8 51.2c1.2 2.3 0.1 4.5-2.7 4.5h-10.5c-2.8 0-5-2.2-5-4.5v-10.5c0-1 1.3-1.8 2.9-1.8h6.1c1.5 0 3.2 0.8 3.8 1.8z"/>
			<path id="path1154" class="s16" d="m59.5 47.9h1.7v-10.7h-1.7z"/>
			<path id="path1156" class="s6" d="m64.1 47.6h-12.1v-3.5h12.1z"/>
			<path id="path1158" class="s16" d="m65.5 55.1h-8.6v-13.3h8.6z"/>
			<path id="path1160" class="s6" d="m50.8 58.8c0 0.3-0.2 0.6-0.6 0.6h-7.2c-0.3 0-0.6-0.3-0.6-0.6v-3.1c0-0.4 0.3-0.6 0.6-0.6h7.2c0.4 0 0.6 0.2 0.6 0.6z"/>
			<path id="path1162" class="s7" d="m51.4 69.2h-9v-9.2h9z"/>
			<path id="path1164" class="s16" d="m52.8 60.3h-11.8v-1.5h11.8z"/>
			<path id="path1166" class="s6" d="m50.7 75.3c-0.2 0.6 0 1 0.4 1h120.1c0.3 0 0.5-0.4 0.4-1l-4.9-23.1c-0.1-0.5-0.4-0.9-0.8-0.9h-109.6c-0.3 0-0.7 0.4-0.8 0.9z"/>
			<path id="path1168" class="s2" d="m65.1 72.2c-0.1 0.4 0 0.7 0.4 0.7h113.4c0.3 0 0.5-0.3 0.4-0.7l-4.6-13.4c-0.1-0.3-0.5-0.5-0.8-0.5h-103.5c-0.3 0-0.6 0.2-0.7 0.5z"/>
			<path id="path1170" class="s7" d="m119.5 80.1h-98.6l10.3-11.3h88.3z"/>
			<path id="path1172" class="s16" d="m156.2 78.6h-98.7l10.3-11.2h88.4z"/>
			<path id="path1174" class="s15" d="m210.2 80.5l-11.7 2.3-132.8-2.3c0 0 15.4-5.5 15.4-13.5h108z"/>
			<path id="path1176" class="s17" d="m219.1 75c-37.7 0-216 0-216 0-0.8-0.8-0.6 7.9-0.6 7.9l0.9 7.1c0 0 255.8 0.9 279.9 0.9 9.6-14.3 18.9-26.2 24.5-30.5 2.9-2.2-71.5 14.6-88.7 14.6z"/>
			<path id="path1178" class="s18" d="m219.1 76.5c15.3 0 75.7-13.2 87-14.6q0.9-0.9 1.7-1.5c2.9-2.2-71.5 14.6-88.7 14.6-37.7 0-216 0-216 0-0.3-0.3-0.4 0.4-0.5 1.5 24.9 0 181.8 0 216.5 0z"/>
			<path id="path1180" class="s2" d="m86 69.1h-2.9v-0.9h2.9z"/>
			<path id="path1182" class="s2" d="m90 69.1h-2.9v-0.9h2.9z"/>
			<path id="path1184" class="s2" d="m94 69.1h-2.9v-0.9h2.9z"/>
			<path id="path1186" class="s2" d="m98 69.1h-2.9v-0.9h2.9z"/>
			<path id="path1188" class="s2" d="m102 69.1h-2.8v-0.9h2.8z"/>
			<path id="path1190" class="s2" d="m106 69.1h-2.8v-0.9h2.8z"/>
			<path id="path1192" class="s2" d="m110.1 69.1h-2.9v-0.9h2.9z"/>
			<path id="path1194" class="s2" d="m114.1 69.1h-2.9v-0.9h2.9z"/>
			<path id="path1196" class="s2" d="m118.1 69.1h-2.9v-0.9h2.9z"/>
			<path id="path1198" class="s2" d="m122.1 69.1h-2.9v-0.9h2.9z"/>
			<path id="path1200" class="s2" d="m126.1 69.1h-2.8v-0.9h2.8z"/>
			<path id="path1202" class="s2" d="m130.1 69.1h-2.8v-0.9h2.8z"/>
			<path id="path1204" class="s2" d="m134.2 69.1h-2.9v-0.9h2.9z"/>
			<path id="path1206" class="s2" d="m138.2 69.1h-2.9v-0.9h2.9z"/>
			<path id="path1208" class="s2" d="m142.2 69.1h-2.9v-0.9h2.9z"/>
			<path id="path1210" class="s2" d="m146.2 69.1h-2.9v-0.9h2.9z"/>
			<path id="path1212" class="s2" d="m150.2 69.1h-2.8v-0.9h2.8z"/>
			<path id="path1214" class="s2" d="m154.2 69.1h-2.8v-0.9h2.8z"/>
			<path id="path1216" class="s2" d="m158.3 69.1h-2.9v-0.9h2.9z"/>
			<path id="path1218" class="s2" d="m162.3 69.1h-2.9v-0.9h2.9z"/>
			<path id="path1220" class="s2" d="m166.3 69.1h-2.9v-0.9h2.9z"/>
			<path id="path1222" class="s2" d="m170.3 69.1h-2.9v-0.9h2.9z"/>
			<path id="path1224" class="s2" d="m174.3 69.1h-2.8v-0.9h2.8z"/>
			<path id="path1226" class="s2" d="m178.3 69.1h-2.8v-0.9h2.8z"/>
			<path id="path1228" class="s2" d="m182.4 69.1h-2.9v-0.9h2.9z"/>
			<path id="path1230" class="s2" d="m186.4 69.1h-2.9v-0.9h2.9z"/>
			<path id="path1232" class="s15" d="m300.6 61.2c-11.7 5.9-27.5 14.4-44.6 23.9-19.4 0-188.1-0.5-253.3-0.8l0.7 5.7c0 0 255.8 0.9 279.9 0.9 9.6-14.3 18.9-26.2 24.5-30.5 0.6-0.5-2.2-0.1-7.2 0.8z"/>
			<path id="path1234" class="s2" d="m271.6 82.5l-4.4 3.4-5.2-6.1 4.4-3.4z"/>
			<path id="path1236" fill-rule="evenodd" class="s4" d="m282 95.2c5.1 2.1 4.7 5.9-0.6 5.9-65.1 0-244.9 0.3-244.9 0.3 0 0-2-1.2-12.5-2.4l-11.1 0.1v-1.3h3.7v-2.5c-3.5-0.2-1.5-0.4-4.3-0.6l-1.5 7.4h-4.8l-1.6-7.8q-0.5-0.1-0.9-0.1l-0.2-4.5h281.3c0 0-4.3 4.7-2.6 5.5zm-258.1 2.6h11.6c-2.4-0.7-6.3-1.9-11.6-2.2zm13.9 0h-2.3c1.5 0.3 2.3 0.5 2.3 0z"/>
			<path id="path1238" class="s3" d="m3.5 94.2v-0.1h278.2c-0.1 0.5-0.1 0.9 0.3 1.1q0.8 0.3 1.3 0.6h-256.6q-1.3-0.1-2.8-0.2v0.2h-7.3v-0.5c-3.5-0.2-1.5-0.4-4.3-0.6l-0.2 1.1h-7.4l-0.3-1.5q-0.5-0.1-0.9-0.1z"/>
			<path id="path1240" class="s16" d="m126.1 67.2h-26.8v-7.5h26.8z"/>
			<path id="path1242" class="s16" d="m139.1 59.7v3.7h12.4v3.8h14.4v-7.5z"/>
			<path id="path1244" class="s18" d="m75.4 59.2c0 0.8-0.6 1.5-1.5 1.5h-2.8c-0.9 0-1.5-0.7-1.5-1.5 0-0.8 0.6-1.5 1.5-1.5h2.8c0.9 0 1.5 0.7 1.5 1.5z"/>
			<path id="path1246" class="s18" d="m82.4 59.2c0 0.8-0.7 1.5-1.5 1.5h-2.9c-0.8 0-1.5-0.7-1.5-1.5 0-0.8 0.7-1.5 1.5-1.5h2.9c0.8 0 1.5 0.7 1.5 1.5z"/>
			<path id="path1248" class="s18" d="m89.3 59.2c0 0.8-0.7 1.5-1.5 1.5h-2.9c-0.8 0-1.5-0.7-1.5-1.5 0-0.8 0.7-1.5 1.5-1.5h2.9c0.8 0 1.5 0.7 1.5 1.5z"/>
			<path id="path1250" class="s18" d="m96.2 59.2c0 0.8-0.7 1.5-1.5 1.5h-2.9c-0.8 0-1.5-0.7-1.5-1.5 0-0.8 0.7-1.5 1.5-1.5h2.9c0.8 0 1.5 0.7 1.5 1.5z"/>
			<path id="path1252" class="s18" d="m103.1 59.2c0 0.8-0.6 1.5-1.5 1.5h-2.8c-0.9 0-1.5-0.7-1.5-1.5 0-0.8 0.6-1.5 1.5-1.5h2.8c0.9 0 1.5 0.7 1.5 1.5z"/>
			<path id="path1254" class="s18" d="m110.1 59.2c0 0.8-0.7 1.5-1.5 1.5h-2.9c-0.8 0-1.5-0.7-1.5-1.5 0-0.8 0.7-1.5 1.5-1.5h2.9c0.8 0 1.5 0.7 1.5 1.5z"/>
			<path id="path1256" class="s18" d="m117 59.2c0 0.8-0.7 1.5-1.5 1.5h-2.9c-0.8 0-1.5-0.7-1.5-1.5 0-0.8 0.7-1.5 1.5-1.5h2.9c0.8 0 1.5 0.7 1.5 1.5z"/>
			<path id="path1258" class="s18" d="m123.9 59.2c0 0.8-0.7 1.5-1.5 1.5h-2.9c-0.8 0-1.5-0.7-1.5-1.5 0-0.8 0.7-1.5 1.5-1.5h2.9c0.8 0 1.5 0.7 1.5 1.5z"/>
			<path id="path1260" class="s18" d="m144.6 59.2c0 0.8-0.6 1.5-1.5 1.5h-2.8c-0.9 0-1.5-0.7-1.5-1.5 0-0.8 0.6-1.5 1.5-1.5h2.8c0.9 0 1.5 0.7 1.5 1.5z"/>
			<path id="path1262" class="s18" d="m151.6 59.2c0 0.8-0.7 1.5-1.5 1.5h-2.9c-0.8 0-1.5-0.7-1.5-1.5 0-0.8 0.7-1.5 1.5-1.5h2.9c0.8 0 1.5 0.7 1.5 1.5z"/>
			<path id="path1264" class="s18" d="m158.5 59.2c0 0.8-0.7 1.5-1.5 1.5h-2.9c-0.8 0-1.5-0.7-1.5-1.5 0-0.8 0.7-1.5 1.5-1.5h2.9c0.8 0 1.5 0.7 1.5 1.5z"/>
			<path id="path1266" class="s18" d="m165.4 59.2c0 0.8-0.7 1.5-1.5 1.5h-2.8c-0.9 0-1.5-0.7-1.5-1.5 0-0.8 0.6-1.5 1.5-1.5h2.8c0.8 0 1.5 0.7 1.5 1.5z"/>
			<path id="path1268" class="s18" d="m172.3 59.2c0 0.8-0.6 1.5-1.5 1.5h-2.8c-0.9 0-1.5-0.7-1.5-1.5 0-0.8 0.6-1.5 1.5-1.5h2.8c0.9 0 1.5 0.7 1.5 1.5z"/>
			<path id="path1270" class="s16" d="m113.3 52.2h-9v4.6h9z"/>
			<path id="path1272" class="s16" d="m124 52.2h-9.9v4.6h9.9z"/>
			<path id="path1274" class="s16" d="m134.7 52.2h-9.9v4.6h9.9z"/>
			<path id="path1276" class="s16" d="m143.6 52.2h-8.2v4.6h8.2z"/>
			<path id="path1278" class="s16" d="m144.4 52.2v4.6h8.6v-4.6z"/>
			<path id="path1280" class="s16" d="m103.5 52.2h-11.7v4.6h11.7z"/>
			<path id="path1282" class="s6" d="m63.2 38.8c0 1.2-0.9 2.1-2.1 2.1h-3.2c-1.2 0-2.2-0.9-2.2-2.1 0-1.2 1-2.2 2.2-2.2h3.2c1.2 0 2.1 1 2.1 2.2z"/>
			<path id="path1284" class="s6" d="m74.8 42.1h6c1.6 0 3.6 0.8 4.6 1.8l6 6.5-5-9.7c-0.6-1-2.3-1.8-3.8-1.8h-6.1c-1.6 0-2.9 0.8-2.9 1.8v1.6q0.5-0.2 1.2-0.2z"/>
			<path id="path1286" class="s2" d="m95.3 5.9h-1.6v0.1h1.6z"/>
			<path id="path1288" class="s2" d="m95.4 8h-1.9v0.1h1.9z"/>
			<path id="path1290" class="s2" d="m95.6 10.8h-2.3v0.1h2.3z"/>
			<path id="path1292" class="s2" d="m95.6 11l-2.7 3.6v0.3l2.7-3.7z"/>
			<path id="path1294" class="s2" d="m95.5 8.1l-2.3 2.8v0.2l2.3-2.9z"/>
			<path id="path1296" class="s2" d="m95.3 6l-1.7 2v0.1l1.7-2z"/>
			<path id="path1298" class="s2" d="m95 4.5l-1.3 1.5v0.1l1.4-1.5z"/>
			<path id="path1300" class="s2" d="m93.9 4.5l1.3 1.5v0.1l-1.4-1.5z"/>
			<path id="path1302" class="s2" d="m93.7 6.3l1.7 1.6v0.1l-1.7-1.6z"/>
			<path id="path1304" class="s2" d="m93.6 8.1l2.2 2.8v0.2l-2.2-2.9z"/>
			<path id="path1306" class="s2" d="m93.4 10.8l2.6 3.3v0.2l-2.7-3.4z"/>
			<path id="path1308" class="s2" d="m92.9 17.8h-0.4l1.3-14.8h0.2z"/>
			<path id="path1310" class="s2" d="m96.1 17.8h0.4l-1.3-14.8h-0.2z"/>
			<path id="path1312" class="s2" d="m97.4 3.4h-11.2v-0.4h11.2z"/>
			<path id="path1314" class="s2" d="m95.7 3.2h-2l0.5-2.9z"/>
			<path id="path1316" class="s2" d="m114.6 23.5h-6.6l0.7 3.4 5.5-2.2 0.4-0.1z"/>
			<path id="path1318" class="s2" d="m116.4 28.1h-7.7l0.9 3.4 6.7-2.2h0.1z"/>
			<path id="path1320" class="s2" d="m125.5 40.9h-2.4v-4.3h2.4z"/>
			<path id="path1322" class="s15" d="m206.6 73.5l-12.4-7.5v-1.1l12.4 7.5z"/>
			<path id="path1324" class="s15" d="m214.6 64.9h-12.7v-1.2h12.7z"/>
			<path id="path1326" class="s2" d="m-83.1 67h-0.4v-19.3h0.4z"/>
			<path id="path1328" class="s2" d="m-40.7 59.4h-0.4v-6.3h0.4z"/>
			<path id="path1330" class="s2" d="m-42.9 62h-0.4v-6.3h0.4z"/>
			<path id="path1332" class="s2" d="m-65.2 58.7h-0.4v-6.4h0.4z"/>
			<path id="path1334" class="s2" d="m-73.8 59.8h-0.4v-6.3h0.4z"/>
			<path id="path1336" class="s2" d="m-79 58.3h-0.4v-6.3h0.4z"/>
			<path id="path1338" class="s2" d="m-183.9 58.3h-0.3v-6.3h0.3z"/>
			<path id="path1340" class="s2" d="m-188 57.9h-0.3v-6.3h0.3z"/>
			<path id="path1342" class="s2" d="m-182.9 61.1h2.2v-8.6h-2.2z"/>
			<path id="path1344" class="s2" d="m-69.5 62.2h2.2v-8.6h-2.2z"/>
			<path id="path1346" class="s2" d="m-56.1 64.2h10.4v-8.5h-10.4z"/>
			<path id="path1348" class="s2" d="m-38.7 61.7h4.5v-4.9h-4.5z"/>
			<path id="path1350" class="s19" d="m-151.6 14.7c0 1.7 1.4 3.1 3.1 3.1 1.7 0 3.1-1.4 3.1-3.1 0-1.7-1.4-3.1-3.1-3.1-1.7 0-3.1 1.4-3.1 3.1z"/>
			<path id="path1352" class="s19" d="m-163.9 44.6c-0.2 1 0.5 1.8 1.6 1.8h18.6c1.2 0 2.1-0.9 1.9-2.1l-2.5-24.5c-0.1-0.7-0.9-1.4-1.9-1.4h-11.9c-1 0-1.9 0.8-2 1.6z"/>
			<path id="path1354" class="s20" d="m-149.5 40.8l-2.2-21.3c-0.1-0.4-0.4-0.8-0.7-1.1h6.2c1 0 1.8 0.7 1.9 1.4l2.2 21z"/>
			<path id="path1356" class="s19" d="m-165.8 56.1c-0.2 1 0.6 1.8 1.6 1.8h54.1c1.1 0 1.9-0.8 1.9-1.8v-24.5c0-0.9-0.8-1.6-1.7-1.6h-50c-1 0-1.9 0.7-2.1 1.6z"/>
			<path id="path1358" class="s20" d="m-119.3 30h9.4c0.9 0 1.7 0.7 1.7 1.6v24.5c0 1-0.8 1.8-1.9 1.8h-9.2z"/>
			<path id="path1360" class="s2" d="m-166.9 66.3c-0.2 1.2 0.6 2.1 1.8 2.1h65.5c1.2 0 2-0.9 1.8-2.1l-3-23c-0.1-0.9-1-1.7-2.1-1.7h-59c-1 0-1.9 0.8-2 1.7z"/>
			<path id="path1362" class="s6" d="m-108 41.6h5.1c1.1 0 2 0.8 2.1 1.7l3 23c0.2 1.2-0.6 2.1-1.8 2.1h-5.7z"/>
			<path id="path1364" class="s19" d="m-106.9 57.9c0 1 0.8 1.8 1.8 1.8h13.4c1 0 1.9-0.8 1.9-1.8v-7.2c0-1.1-0.9-1.9-1.9-1.9h-13.4c-1 0-1.8 0.8-1.8 1.9z"/>
			<path id="path1366" class="s19" d="m-138.4 62.8c0 1 0.8 1.9 1.8 1.9h13.4c1 0 1.9-0.9 1.9-1.9v-7.2c0-1-0.9-1.8-1.9-1.8h-13.4c-1 0-1.8 0.8-1.8 1.8z"/>
			<path id="path1368" class="s19" d="m-177.1 62.6c0 1 0.8 1.8 1.8 1.8h13.4c1.1 0 1.9-0.8 1.9-1.8v-7.2c0-1-0.8-1.9-1.9-1.9h-13.4c-1 0-1.8 0.9-1.8 1.9z"/>
			<path id="path1370" class="s17" d="m-154.1 42c0 0.7 0.7 1.4 1.4 1.4h33.5c0.7 0 1.3-0.7 1.3-1.4 0-0.8-0.6-1.4-1.3-1.4h-33.5c-0.7 0-1.4 0.6-1.4 1.4z"/>
			<path id="path1372" class="s0" d="m-113.1 31.5h3.4v2.9h-3.4z"/>
			<path id="path1374" class="s0" d="m-113.6 31.5v2.9h-5v-2.9z"/>
			<path id="path1376" class="s0" d="m-119.1 31.5v2.9h-6.4v-2.9z"/>
			<path id="path1378" class="s0" d="m-126 31.5v2.9h-6.7v-2.9z"/>
			<path id="path1380" class="s0" d="m-150.6 33.7h13.2v-1.7h-13.2z"/>
			<path id="path1382" class="s0" d="m-159.8 43.4h34.3v1.9h-34.3z"/>
			<path id="path1384" class="s2" d="m-160.7 18.4c0 0.6 0.5 1.1 1.2 1.1h15.7c0.7 0 1.1-0.5 1.1-1.1 0-0.6-0.4-1.1-1.1-1.1h-15.7c-0.7 0-1.2 0.5-1.2 1.1z"/>
			<path id="path1386" class="s6" d="m-210.3 42.2c0 1.1 0.8 1.9 1.8 1.9h10.4c1.1 0 1.9-0.8 1.9-1.9v-1.7c0-1-0.8-1.9-1.9-1.9h-10.4c-1 0-1.8 0.9-1.8 1.9z"/>
			<path id="path1388" class="s19" d="m-202.9 57.9c0 1-0.8 1.8-1.9 1.8h-0.5c-1 0-1.8-0.8-1.8-1.8v-13.9c0-1 0.8-1.9 1.8-1.9h0.5c1.1 0 1.9 0.9 1.9 1.9z"/>
			<path id="path1390" class="s17" d="m-192.7 51.5c0 1.1-0.9 1.9-2 1.8l-8.2-0.8c-1-0.1-1.7-1-1.7-2.1v-19.8c0-1 0.7-1.9 1.7-2l8.2-0.7c1.1-0.1 2 0.7 2 1.9z"/>
			<path id="path1392" class="s0" d="m-216.3 79.3h104.4c0.1-5.1 4.2-9.2 9.3-9.2h60.7c5.2 0 9.3 4.2 9.3 9.3 0 5.2-4.1 9.3-9.3 9.3h-35.8-24.9-113.7c-2.6 0-4.7-2.1-4.7-4.7 0-2.6 2.1-4.7 4.7-4.7z"/>
			<path id="path1394" class="s17" d="m-209.3 79.8c0 0.3 0.4 0.5 1 0.5h91.9c12.4 0 46.1-0.5 72.9-9.9 11.4-4 27.4-8.1 16.4-10.4-1.2-0.3-50.2-3.7-53.6-3.7h-127.2c-0.8 0-1.4 0.9-1.4 2z"/>
			<path id="path1396" class="s0" d="m-36.6 66.5c-26.8 9.4-60.5 9.9-72.9 9.9h-91.9c-0.6 0-1.1-0.2-1.1-0.5v-19.6h-5.4c-0.8 0-1.4 0.9-1.4 2v21.5c0 0.3 0.4 0.5 1 0.5h91.9c12.4 0 46.1-0.5 72.9-9.9 8.6-3 19.7-6.1 20.1-8.4-3.9 1.4-8.9 3-13.2 4.5z"/>
			<path id="path1398" class="s19" d="m-55.1 67.2c5.4 0 14.6 2.1 11.6 3.2-26.8 9.4-60.5 9.9-72.9 9.9h-100.8c-0.6 0-1.1-0.2-1.1-0.5l9-12.6z"/>
			<path id="path1400" class="s6" d="m-113.1 66.2c0 0.8 0.6 1.5 1.4 1.5h13.2c0.8 0 1.5-0.7 1.5-1.5 0-0.9-0.7-1.5-1.5-1.5h-13.2c-0.8 0-1.4 0.6-1.4 1.5z"/>
			<path id="path1402" class="s6" d="m-163.1 66.2c0 0.8 0.7 1.5 1.5 1.5h13.1c0.8 0 1.5-0.7 1.5-1.5 0-0.9-0.7-1.5-1.5-1.5h-13.1c-0.8 0-1.5 0.6-1.5 1.5z"/>
			<path id="path1404" class="s6" d="m-95.5 76.1h2.7v-5.7h-2.7z"/>
			<path id="path1406" class="s6" d="m-99.5 76.1h2.7v-5.7h-2.7z"/>
			<path id="path1408" class="s6" d="m-202.2 76.1h2.8v-5.7h-2.8z"/>
			<path id="path1410" class="s6" d="m-206.1 76.1h2.7v-5.7h-2.7z"/>
			<path id="path1412" class="s21" d="m-220.1 81.3c0.4 2.1 2.3 3.7 4.6 3.7h113.6 25 35.8c3.8 0 7.1-2.3 8.5-5.6 0 5.2-4.1 9.3-9.3 9.3h-35.8-24.9-113.7c-2.6 0-4.7-2.1-4.7-4.7 0-1 0.3-1.9 0.9-2.7z"/>
			<path id="path1414" class="s17" d="m-144.3 36.6h9.4v-0.9h-9.4z"/>
			<path id="path1416" class="s17" d="m-125.1 39.2h4.6v-1.7h-4.6z"/>
			<path id="path1418" class="s17" d="m-131.3 39.5h4.6v-1.7h-4.6z"/>
			<path id="path1420" class="s4" d="m-25.4 61.5c-1.2-0.3-51.6-3.8-55.1-3.8h-128.8c0.2-0.8 0.8-1.4 1.4-1.4h127.2c3.4 0 52.4 3.4 53.6 3.7 2.7 0.5 3.8 1.2 3.7 2q-0.8-0.3-2-0.5z"/>
			<path id="path1422" class="s16" d="m-97.8 46.2l8.1-3.9-0.1-0.2-8.1 4z"/>
			<path id="path1424" class="s2" d="m-95.8 45.6l2.7-1.3-0.4-0.9-2.8 1.4z"/>
			<path id="path1426" class="s20" d="m-103 48.8c-0.2-1 0.4-2 1.1-3.1 0.9-1.4 1.7-2.5 3-2.2l2.3 0.5c1.1 0.2 1.5 1.1 2 2.5 0.3 0.7 0.3 1.6 0.1 2.3z"/>
			<path id="path1428" class="s3" d="m-43.5 70.4q-0.7 0.2-1.4 0.5c-2.7-0.7-6.3-1.1-9-1.1h-157.3l1.9-2.6h154.2c5.4 0 14.6 2.1 11.6 3.2z"/>
			<path id="path1430" class="s19" d="m-193.8 33.5l-10.8 0.6v-3.5c0-1 0.7-1.9 1.7-2l8.2-0.7c1.1-0.1 2 0.7 2 1.9v3.8q-0.5-0.2-1.1-0.1z"/>
			<path id="path1432" class="s15" d="m-192.9 48.4h0.2v3.1c0 1.1-0.9 1.9-2 1.8l-8.2-0.8c-1-0.1-1.7-1-1.7-2.1v-2.9z"/>
			<path id="path1434" class="s3" d="m-148.2 261.1c0 1.5 1.2 2.7 2.7 2.7 1.5 0 2.8-1.2 2.8-2.7v-8.2c0-1.6-1.3-2.8-2.8-2.8-1.5 0-2.7 1.2-2.7 2.8z"/>
			<path id="path1436" class="s22" d="m-162.5 298.6h34l-10.7-43.2h-12.5z"/>
			<path id="path1438" class="s0" d="m-153.1 261l1.4-5.6h12.5l1.4 5.6z"/>
			<path id="path1440" class="s0" d="m-135.5 270.3l2.2 8.8h-24.3l2.2-8.8z"/>
			<path id="path1442" class="s0" d="m-131 288.4l2.5 10.2h-34l2.6-10.2z"/>
			<path id="path1444" class="s23" d="m-128.5 298.6l-2.5-10.2h-13.9v-9.3h11.6zm-5.4-21.7l-1.7-6.6h-9.4v-9.3h7.1l-1.3-5.6z"/>
			<path id="path1446" class="s24" d="m-137.8 261h-7.1v-5.6h5.7z"/>
			<path id="path1448" class="s24" d="m-133.3 279.1h-11.6v-8.8h9.4l1.6 6.6z"/>
			<path id="path1450" class="s24" d="m-128.5 298.6h-16.4v-10.2h13.9z"/>
			<path id="path1452" class="s22" d="m-153.7 254.4c0 0.6 0.5 1.1 1.1 1.1h14c0.6 0 1.1-0.5 1.1-1.1 0-0.6-0.5-1.1-1.1-1.1h-14c-0.6 0-1.1 0.5-1.1 1.1z"/>
			<path id="path1454" class="s3" d="m259.3 172.4c0 1.5 1.2 2.8 2.7 2.8 1.5 0 2.7-1.3 2.7-2.8v-8.2c0-1.5-1.2-2.7-2.7-2.7-1.5 0-2.7 1.2-2.7 2.7z"/>
			<path id="path1456" class="s22" d="m245 210h34l-10.7-43.2h-12.6z"/>
			<path id="path1458" class="s4" d="m254.3 172.4l1.4-5.6h12.6l1.4 5.6z"/>
			<path id="path1460" class="s4" d="m271.9 181.7l2.2 8.8h-24.2l2.1-8.8z"/>
			<path id="path1462" class="s4" d="m276.4 199.7l2.6 10.3h-34l2.6-10.3z"/>
			<path id="path1464" class="s23" d="m279 210l-2.6-10.3h-13.9v-9.2h11.6l-2.2-8.8h-9.4v-9.3h7.2l-1.4-5.6z"/>
			<path id="path1466" class="s25" d="m269.7 172.4h-7.2v-5.6h5.8z"/>
			<path id="path1468" class="s25" d="m274.1 190.5h-11.6v-8.8h9.4z"/>
			<path id="path1470" class="s25" d="m279 210h-16.5v-10.3h13.9z"/>
			<path id="path1472" class="s22" d="m253.8 165.8c0 0.6 0.5 1.1 1.1 1.1h14c0.6 0 1-0.5 1-1.1 0-0.6-0.4-1.1-1-1.1h-14c-0.6 0-1.1 0.5-1.1 1.1z"/>
			<path id="path1474" fill-rule="evenodd" class="s4" d="m-84.6 272.6c1.4 0 2.5 1.2 2.5 2.6 0 1.4-1.1 2.6-2.5 2.6-1.4 0-2.5-1.2-2.5-2.6 0-1.4 1.1-2.6 2.5-2.6zm0 4c0.7 0 1.3-0.6 1.3-1.4 0-0.7-0.6-1.3-1.3-1.3-0.7 0-1.3 0.6-1.3 1.3 0 0.8 0.6 1.4 1.3 1.4z"/>
			<path id="path1476" fill-rule="evenodd" class="s26" d="m-84.5 276.6c0.7-0.1 1.2-0.6 1.2-1.3 0 0.7-0.5 1.2-1.2 1.3zm1.2-1.5c0-0.7-0.5-1.2-1.2-1.2 0.7 0 1.2 0.5 1.2 1.2zm1.2 0.4q0 0 0 0 0 0 0 0zm0-0.1zm0 0q0 0 0 0 0 0 0 0zm0 0q0 0 0 0 0 0 0 0zm0 0q0 0 0 0 0 0 0 0zm0 0q0 0 0 0 0 0 0 0zm0 0q0 0 0-0.1 0 0.1 0 0.1zm0-0.1q0 0 0 0 0 0 0 0zm0 0q0 0 0 0 0 0 0 0zm0 0q0 0 0 0 0 0 0 0zm0 0q0 0 0 0 0 0 0 0zm-1.2 0q0 0 0 0 0 0 0 0zm1.2 0q0 0 0 0 0 0 0 0zm-1.2 0q0 0 0 0 0 0 0 0zm1.2 0q0 0 0-0.1 0 0.1 0 0.1zm-1.2 0q0 0 0-0.1 0 0.1 0 0.1zm0-0.1q0 0 0 0 0 0 0 0zm1.2 0q0 0 0 0 0 0 0 0zm-1.2 0q0 0 0 0 0 0 0 0zm0 0q0 0 0 0 0 0 0 0zm1.2 0q0 0 0 0 0 0 0 0zm-1.2 0q0 0 0 0 0 0 0 0zm1.2 0q0 0 0 0 0 0 0 0zm-1.2 0q0 0 0 0 0 0 0 0zm0 0q0 0 0 0 0 0 0 0zm1.2 0q0 0 0 0 0 0 0 0zm-1.2 0q0 0 0 0 0 0 0 0zm0 0q0 0 0 0 0 0 0 0zm1.2 0q0 0 0 0 0 0 0 0zm-1.2 0q0 0 0 0 0 0 0 0zm0 0q0 0 0-0.1 0 0.1 0 0.1zm1.2-0.1q0 0 0 0 0 0 0 0zm-1.2 0q0 0 0 0 0 0 0 0zm1.2 0q0 0 0 0 0 0 0 0zm0 0q0 0 0 0 0 0 0 0zm0 0q0 0 0 0 0 0 0 0zm0 0q0 0 0 0 0 0 0 0zm0 0q0 0 0 0 0 0 0 0zm0-0.1q0 0 0 0 0 0 0 0zm0 0q0 0 0 0 0 0 0 0zm0 0q0 0 0 0 0 0 0 0zm0 0q0 0 0 0 0 0 0 0zm0 0q0 0 0 0 0 0 0 0zm0 0z"/>
			<path id="path1478" class="s27" d="m-82.8 277.1q-0.8-0.2-1.6-0.2 0 0 0 0 0 0 0 0 0 0 0 0 0 0-0.1 0 0 0 0 0 0 0 0 0 0 0 0 0 0 0 0 0 0 0 0 0v-0.3c0.7-0.1 1.2-0.6 1.2-1.3q0 0 0 0 0 0 0 0 0 0 0 0 0 0 0-0.1 0 0 0 0 0 0 0 0 0 0 0 0 0 0 0 0 0 0 0 0 0 0 0 0 0 0 0 0 0 0 0 0 0 0 0 0 0 0 0 0 0 0 0 0 0 0 0 0 0 0 0 0 0 0 0 0 0 0 0 0 0 0 0 0 0 0 0 0 0 0 0 0 0 0 0 0 0 0 0-0.1 0 0 0 0 0 0 0 0c0-0.7-0.5-1.2-1.2-1.2v-1.3c1.3 0 2.3 1 2.4 2.3q0 0.1 0 0.1 0 0 0 0 0 0 0 0 0 0 0 0 0 0 0 0 0 0 0 0 0 0 0 0 0 0 0 0 0 0 0 0 0 0 0 0 0 0 0 0 0 0.1 0 0.1 0 0 0 0 0 0 0 0 0 0 0 0 0 0 0 0 0 0 0 0 0 0 0 0 0 0 0 0 0 0 0 0 0 0 0 0 0 0 0 0 0 0 0 0 0 0.1 0 0.1 0 0 0 0 0 0 0 0 0 0 0 0 0 0 0 0 0 0 0 0 0 0 0 0 0 0 0 0 0 0 0 0 0 0 0 0 0 0.1 0 0.1 0 0 0 0 0 0 0 0 0 0 0 0 0 0 0 0 0 0 0 0 0 0 0 0 0 0 0 0 0 0 0 0 0 0 0 0 0 0 0 0 0 0 0 0.1 0 0 0 0 0 0 0 0 0 0 0 0 0 0 0 0 0 0 0 0 0 0 0 0 0 0 0 0 0 0 0 0 0 0 0 0 0 0 0 0 0 0 0 0.1 0 0 0 0 0 0 0 0c0 0.6-0.3 1.1-0.7 1.6z"/>
			<path id="path1480" class="s22" d="m-95.1 287.8c0 6 4.7 10.8 10.5 10.8 5.9 0 10.6-4.8 10.6-10.8 0-6-4.7-10.9-10.6-10.9-5.8 0-10.5 4.9-10.5 10.9z"/>
			<path id="path1482" class="s4" d="m-89.3 278.1c1.4-0.8 3.1-1.2 4.7-1.2 1.7 0 3.3 0.4 4.8 1.2z"/>
			<path id="path1484" class="s4" d="m-75.1 283.1c0.7 1.3 1 2.8 1.1 4.4h-21.1c0.1-1.6 0.4-3.1 1-4.4z"/>
			<path id="path1486" class="s4" d="m-78.2 296.4h-12.7c-1.3-1-2.4-2.4-3.2-4h19.1c-0.8 1.6-1.9 3-3.2 4z"/>
			<path id="path1488" fill-rule="evenodd" class="s26" d="m-74 288.6q0 0 0 0 0 0 0 0zm0 0q0 0 0 0zm0-0.1q0 0 0 0 0 0 0 0zm0 0zm0 0q0 0 0 0 0 0 0 0zm0-0.1q0 0 0 0 0 0 0 0zm0 0q0 0 0 0 0 0 0 0zm0 0q0 0 0 0 0 0 0 0zm0-0.1q0 0 0 0 0 0 0 0zm0 0q0 0 0 0 0 0 0 0zm0 0q0 0 0-0.1 0 0.1 0 0.1zm0-0.1q0 0 0 0 0 0 0 0zm0 0q0 0 0 0 0 0 0 0zm0 0q0-0.1 0-0.1 0 0 0 0.1zm0-0.1q0 0 0 0 0 0 0 0zm0 0q0 0 0 0 0 0 0 0zm0-0.1q0 0 0 0 0 0 0 0zm0 0q0 0 0 0 0 0 0 0zm0 0q0 0 0 0 0 0 0 0zm0-0.1q0 0 0 0 0 0 0 0zm0 0q0 0 0 0 0 0 0 0zm0 0q0 0 0 0 0 0 0 0zm0-0.1q0 0 0 0 0 0 0 0zm0 0q0 0 0 0 0 0 0 0zm0 0q0 0 0-0.1 0 0.1 0 0.1zm0-0.1q0 0 0 0 0 0 0 0zm0 0q0 0 0 0 0 0 0 0zm0 0q0-0.1 0-0.1 0 0 0 0.1zm0-0.1q0 0 0 0 0 0 0 0zm0 0q0 0 0 0 0 0 0 0zm0-0.1q0 0 0 0 0 0 0 0zm0 0q0 0 0 0 0 0 0 0zm0 0q0 0 0 0 0 0 0 0zm0-0.1q0 0 0 0 0 0 0 0zm0 0q0 0 0 0 0 0 0 0zm0 0q0 0 0-0.1 0 0.1 0 0.1zm0-0.1q0 0 0 0 0 0 0 0zm0 0q0 0 0 0 0 0 0 0zm0 0q0 0 0-0.1 0 0.1 0 0.1zm0-0.1q0 0 0 0 0 0 0 0zm0 0q0 0 0 0 0 0 0 0zm0 0q0-0.1 0-0.1 0 0 0 0.1zm0-0.1q0 0 0 0 0 0 0 0zm0 0q0 0 0 0 0 0 0 0zm0-0.1q0 0 0 0 0 0 0 0zm0 0q0 0 0 0 0 0 0 0zm0 0q0 0 0 0 0 0 0 0zm0-0.1q0 0 0 0 0 0 0 0zm0 0q0 0 0 0 0 0 0 0zm0 0q0 0 0 0 0 0 0 0zm-0.1-0.1q0 0 0 0 0 0 0 0zm0 0q0 0 0 0 0 0 0 0zm0 0q0 0 0 0 0 0 0 0zm0-0.1q0 0 0 0 0 0 0 0zm0 0q0 0 0 0 0 0 0 0zm0 0q0 0 0 0 0 0 0 0zm0-0.1q0 0 0 0 0 0 0 0zm0 0q0 0 0 0 0 0 0 0zm0 0q0 0 0 0 0 0 0 0zm0-0.1q0 0 0 0 0 0 0 0zm0 0q0 0 0 0 0 0 0 0zm0 0q0 0 0 0 0 0 0 0zm0-0.1q0 0 0 0 0 0 0 0zm0 0q0 0 0 0 0 0 0 0zm0 0q0 0 0 0zm0-0.1q0 0 0 0 0 0 0 0zm0 0q0 0 0 0 0 0 0 0zm0 0q0 0 0 0 0 0 0 0z"/>
			<path id="path1490" class="s22" d="m-84.5 298.6v-2.2h6.3c1.3-1 2.4-2.4 3.2-4h-9.5v-4.9h10.5c-0.1-1.6-0.4-3.1-1.1-4.4h-9.4v-5h4.7q-1.3-0.7-2.7-1c4.3 0.9 7.7 4.5 8.4 9.1q0 0 0 0 0 0 0 0.1 0 0 0 0 0 0 0 0 0 0 0 0 0 0 0 0 0 0 0 0 0 0 0 0.1 0 0 0 0 0 0 0 0 0 0 0 0 0 0 0 0 0 0 0 0 0 0 0 0.1 0 0 0 0 0 0 0 0 0 0 0 0 0 0 0 0 0 0 0 0 0 0 0 0.1 0 0 0 0 0 0 0 0 0 0 0 0 0 0 0 0 0 0 0 0 0 0 0 0.1 0 0 0 0 0 0 0 0 0 0 0 0 0 0 0 0 0 0 0 0 0 0.1 0 0.1 0 0 0 0 0 0 0 0 0 0 0 0 0 0 0 0 0 0 0 0 0 0.1 0 0.1 0 0 0.1 0 0 0 0 0 0 0 0 0 0 0 0 0 0 0 0 0 0 0.1 0 0.1 0 0 0 0 0 0 0 0 0 0 0 0 0 0 0 0 0 0 0 0.1 0 0 0 0 0 0 0 0 0 0 0 0 0 0 0 0 0 0 0 0 0 0 0 0.1 0 0 0 0 0 0 0 0 0 0 0 0 0 0 0 0 0 0 0 0 0 0.1 0 0.1 0 0 0 0 0 0 0 0 0 0 0 0 0 0 0 0 0 0 0 0 0 0.1 0 0.1 0 0 0 0 0 0 0 0 0 0 0 0 0 0 0 0 0 0 0 0.1 0 0 0 0 0 0 0 0 0 0 0 0 0 0 0 0 0 0 0 0 0 0 0 0.1 0 0 0 0 0 0 0 0 0 0 0 0 0 0 0 0 0 0 0 0.1 0 0 0 0 0 0 0 0 0 0 0 0 0 0 0 0 0 0 0 0 0 0.1 0 0.1 0 0 0 0 0 0 0 0 0 0 0 0 0 0 0 0.1 0 0 0 0 0 0 0 0 0 0 0 0 0 0 0 0 0 0 0 0 0 0.1 0 0.1 0 0 0 0 0 0 0 0 0 0 0 0 0 0 0 0 0 0 0 0 0 0.1 0 0.1 0 0 0 0 0 0 0 0 0 0 0 0 0 0 0 0 0 0 0 0.1 0 0 0 0 0 0 0 0 0 0 0 0 0 0 0 0 0 0 0 0 0 0.1 0 0.1 0 0 0 0 0 0 0 0 0 0 0 0 0 0 0 0 0 0 0 0.1 0 0 0 0 0 0 0 0 0 0 0 0 0 0 0 0 0 0 0 0 0 0 0 0.1 0 0 0 0 0 0 0 0 0 0 0 0 0 0 0 0 0 0 0 0.1 0 0 0 0 0 0 0 0 0 0 0 0 0 0.1-0.1 0.1c-0.4 5.5-4.9 9.9-10.4 9.9z"/>
			<path id="path1492" class="s27" d="m-79.8 278.1h-4.7v-1.2q1 0 2 0.2 1.4 0.3 2.7 1z"/>
			<path id="path1494" class="s27" d="m-74 287.5h-10.5v-4.4h9.4c0.7 1.3 1 2.8 1.1 4.4z"/>
			<path id="path1496" class="s27" d="m-78.2 296.4h-6.3v-4h9.5c-0.8 1.6-1.9 3-3.2 4z"/>
			<path id="path1498" fill-rule="evenodd" class="s0" d="m205.5 184c1.4 0 2.6 1.1 2.6 2.6 0 1.4-1.2 2.6-2.6 2.6-1.4 0-2.5-1.2-2.5-2.6 0-1.5 1.1-2.6 2.5-2.6zm0 3.9c0.8 0 1.3-0.6 1.3-1.3 0-0.8-0.5-1.4-1.3-1.4-0.7 0-1.3 0.6-1.3 1.4 0 0.7 0.6 1.3 1.3 1.3z"/>
			<path id="path1500" fill-rule="evenodd" class="s26" d="m205.6 187.9c0.7 0 1.2-0.6 1.2-1.3 0 0.7-0.5 1.3-1.2 1.3zm1.2-1.4c0-0.7-0.5-1.3-1.2-1.3 0.7 0 1.2 0.6 1.2 1.3zm1.2 0.4q0 0 0 0 0 0 0 0zm0-0.1q0 0 0 0 0 0 0 0zm0 0q0 0 0 0 0 0 0 0zm0.1 0q0 0 0 0 0 0 0 0zm0 0q0 0 0 0 0 0 0 0zm0 0q0 0 0 0 0 0 0 0zm0 0q0 0 0 0 0 0 0 0zm0-0.1q0 0 0 0 0 0 0 0zm0 0q0 0 0 0 0 0 0 0zm0 0q0 0 0 0 0 0 0 0zm0 0q0 0 0 0 0 0 0 0zm0 0q0 0 0 0 0 0 0 0zm0 0q0 0 0 0 0 0 0 0zm0-0.1q0 0 0 0 0 0 0 0zm-1.3 0q0 0 0 0 0 0 0 0zm0 0q0 0 0 0 0 0 0 0zm1.3 0q0 0 0 0 0 0 0 0zm-1.3 0q0 0 0 0 0 0 0 0zm1.3 0q0 0 0 0 0 0 0 0zm-1.3 0q0 0 0 0 0 0 0 0zm0 0q0 0 0 0 0 0 0 0zm1.3 0q0 0 0 0 0 0 0 0zm-1.3 0q0 0 0 0 0 0 0 0zm0 0q0 0 0 0 0 0 0 0zm1.3 0q0 0 0 0 0 0 0 0zm-1.3 0q0 0 0 0 0 0 0 0zm1.3 0q0 0 0-0.1 0 0.1 0 0.1zm-1.3 0q0 0 0-0.1 0 0.1 0 0.1zm0-0.1q0 0 0 0 0 0 0 0zm1.3 0q0 0 0 0 0 0 0 0zm-1.3 0q0 0 0 0 0 0 0 0zm0 0q0 0 0 0 0 0 0 0zm1.3 0q0 0 0 0 0 0 0 0zm-1.3 0q0 0 0 0 0 0 0 0zm0 0q0 0 0 0 0 0 0 0zm1.3 0q0 0 0 0 0 0 0 0zm-1.3 0q0 0 0 0 0 0 0 0zm0 0q0 0 0 0 0 0 0 0zm1.3 0q0 0 0 0 0 0 0 0zm0 0q0 0 0 0 0 0 0 0zm0 0q0-0.1 0-0.1 0 0 0 0.1zm0-0.1q0 0 0 0 0 0 0 0zm0 0q0 0 0 0 0 0 0 0zm0 0q0 0 0 0 0 0 0 0zm0 0q0 0 0 0 0 0 0 0zm0 0q0 0 0 0 0 0 0 0zm0-0.1q0 0 0 0 0 0 0 0zm0 0q0 0 0 0 0 0 0 0zm0 0q0 0 0 0 0 0 0 0z"/>
			<path id="path1502" class="s28" d="m207.3 188.4q-0.8-0.1-1.6-0.1 0 0 0 0 0 0 0 0 0 0 0 0 0 0 0 0-0.1 0-0.1 0 0 0 0 0 0 0 0 0 0 0 0 0v-0.4c0.7 0 1.2-0.6 1.2-1.3q0 0 0 0 0 0 0 0 0 0 0 0 0 0 0 0 0 0 0 0 0 0 0 0 0 0 0 0 0 0 0 0 0 0 0 0 0 0 0 0 0 0 0 0 0 0 0 0 0 0 0 0 0 0 0 0 0 0 0 0 0 0 0-0.1 0 0 0 0 0 0 0 0 0 0 0 0 0 0 0 0 0 0 0 0 0 0 0 0 0 0 0 0 0 0 0 0 0 0 0 0 0 0 0 0 0 0 0 0 0 0 0 0c0-0.7-0.5-1.3-1.2-1.3v-1.2c1.3 0 2.3 1 2.4 2.3q0 0 0.1 0 0 0 0 0 0 0 0 0 0 0 0 0 0 0 0 0 0 0 0 0 0 0.1 0 0.1 0 0 0 0 0 0 0 0 0 0 0 0 0 0 0 0 0 0 0 0 0 0 0 0 0 0 0 0 0 0 0 0 0 0 0 0 0 0 0 0 0 0 0 0.1 0 0 0 0 0 0 0 0 0 0 0 0 0 0 0 0 0 0 0 0 0 0 0 0 0 0 0 0 0 0 0 0 0 0 0 0 0 0 0 0 0 0 0 0 0 0.1 0 0.1 0 0 0 0 0 0 0 0 0 0 0 0 0 0 0 0 0 0 0 0 0 0 0 0 0 0 0 0 0 0 0 0 0 0 0 0 0 0 0 0.1 0 0 0 0 0 0 0 0 0 0 0 0 0 0 0 0 0 0 0 0 0 0 0 0 0 0 0 0 0 0 0 0 0 0 0 0 0 0 0 0 0 0 0 0 0 0 0 0.1 0 0 0 0 0 0 0 0 0 0 0 0 0 0 0 0 0 0 0 0 0 0 0 0 0 0 0 0-0.1 0-0.1 0 0 0 0 0 0 0 0 0 0 0 0 0 0 0 0 0.1 0 0 0 0c0 0.6-0.3 1.1-0.7 1.5z"/>
			<path id="path1504" class="s22" d="m195 199.1c0 6 4.7 10.9 10.6 10.9 5.8 0 10.5-4.9 10.5-10.9 0-6-4.7-10.8-10.5-10.8-5.9 0-10.6 4.8-10.6 10.8z"/>
			<path id="path1506" class="s0" d="m200.8 189.4c1.5-0.7 3.1-1.1 4.8-1.1 1.7 0 3.3 0.4 4.7 1.1z"/>
			<path id="path1508" class="s0" d="m215.1 194.4c0.6 1.4 1 2.9 1 4.4h-21.1c0.1-1.5 0.4-3 1.1-4.4z"/>
			<path id="path1510" class="s0" d="m211.9 207.8h-12.7c-1.3-1.1-2.4-2.4-3.1-4h19c-0.8 1.6-1.8 2.9-3.2 4z"/>
			<path id="path1512" fill-rule="evenodd" class="s26" d="m216.1 200q0 0 0 0zm0-0.2zm0-0.1q0 0 0 0 0 0 0 0zm0 0q0 0 0 0 0 0 0 0zm0 0q0 0 0 0 0 0 0 0zm0-0.1q0 0 0 0 0 0 0 0zm0 0q0 0 0 0 0 0 0 0zm0 0q0 0 0 0 0 0 0 0zm0-0.1q0 0 0 0 0 0 0 0zm0 0q0 0 0 0 0 0 0 0zm0 0q0 0 0 0 0 0 0 0zm0-0.1q0 0 0 0 0 0 0 0zm0 0q0 0 0 0 0 0 0 0zm0 0q0 0 0 0 0 0 0 0zm0-0.1q0 0 0 0 0 0 0 0zm0 0q0 0 0 0 0 0 0 0zm0 0q0 0 0-0.1 0 0.1 0 0.1zm0-0.1q0 0 0 0 0 0 0 0zm0 0q0 0 0 0 0 0 0 0zm0 0q0-0.1 0-0.1 0 0 0 0.1zm0-0.1q0 0 0 0 0 0 0 0zm0 0q0 0 0 0 0 0 0 0zm0-0.1q0 0 0 0 0 0 0 0zm0 0q0 0 0 0 0 0 0 0zm0 0q0 0 0-0.1 0 0.1 0 0.1zm0-0.1q0 0 0 0 0 0 0 0zm0 0q0 0 0 0 0 0 0 0zm0 0q0-0.1 0-0.1 0 0 0 0.1zm0-0.1q0 0 0 0 0 0 0 0zm0 0q0 0 0 0 0 0 0 0zm0 0q0-0.1 0-0.1 0 0 0 0.1zm0-0.1q0 0 0 0 0 0 0 0zm0 0q0 0 0 0 0 0 0 0zm0-0.1q0 0 0 0 0 0 0 0zm0 0q0 0 0 0 0 0 0 0zm0 0q0 0 0 0 0 0 0 0zm0-0.1q0 0 0 0 0 0 0 0zm0 0q0 0 0 0 0 0 0 0zm0 0q0 0 0 0 0 0 0 0zm0-0.1q0 0 0 0 0 0 0 0zm0 0q0 0 0 0 0 0 0 0zm0 0q0 0 0 0 0 0 0 0zm0-0.1q0 0 0 0 0 0 0 0zm0 0q0 0 0 0 0 0 0 0zm0 0q0 0 0 0 0 0 0 0zm0-0.1q0 0 0 0 0 0 0 0zm0 0q0 0 0 0 0 0 0 0zm0 0q0 0 0 0 0 0 0 0zm0-0.1q0 0 0 0 0 0 0 0zm0 0q0 0 0 0 0 0 0 0zm0 0q0 0 0-0.1 0 0.1 0 0.1zm-0.1-0.1q0 0 0 0 0 0 0 0zm0 0q0 0 0 0 0 0 0 0zm0 0q0-0.1 0-0.1 0 0 0 0.1zm0-0.1q0 0 0 0 0 0 0 0z"/>
			<path id="path1514" class="s22" d="m205.6 210v-2.2h6.3c1.4-1.1 2.4-2.4 3.2-4h-9.5v-5h10.5c0-1.5-0.4-3-1-4.4h-9.5v-5h4.7q-1.3-0.6-2.7-0.9c4.5 0.9 7.9 4.6 8.4 9.3q0 0 0 0 0 0.1 0 0.1 0 0 0 0 0 0 0 0 0 0 0 0 0 0.1 0 0.1 0 0 0 0 0 0 0 0 0 0 0 0 0 0 0 0 0 0 0.1 0.1 0 0 0 0 0 0 0 0 0 0 0 0 0 0 0 0 0 0 0 0 0 0 0 0.1 0 0 0 0 0 0 0 0 0 0 0 0 0 0 0 0 0 0 0 0 0 0 0 0.1 0 0 0 0 0 0 0 0 0 0 0 0 0 0 0 0 0 0 0 0 0 0 0 0.1 0 0 0 0 0 0 0 0 0 0 0 0 0 0 0 0 0 0 0 0 0 0.1 0 0.1 0 0 0 0 0 0 0 0 0 0 0 0 0 0 0 0 0 0 0 0 0 0.1 0 0.1 0 0 0 0 0 0 0 0 0 0 0 0 0 0 0 0 0 0 0 0 0 0.1 0 0.1 0 0 0 0 0 0 0 0 0 0 0 0 0 0 0 0 0 0 0 0.1 0 0 0 0 0 0 0 0 0 0 0 0 0 0 0 0 0 0 0 0 0 0 0 0.1 0 0 0 0 0 0 0 0 0 0 0 0 0 0 0 0 0 0 0 0 0 0.1 0 0.1 0 0 0 0 0 0 0 0 0 0 0 0 0 0 0 0 0 0 0 0.1 0 0 0 0 0 0 0 0 0 0 0 0 0 0 0 0.1 0 0 0 0 0 0 0 0 0 0 0 0 0 0 0 0 0 0 0 0 0 0.1 0 0.1 0 0 0 0 0 0 0 0 0 0 0 0 0 0 0 0 0 0 0 0.1 0 0 0 0 0 0 0 0 0 0 0 0 0 0 0 0 0 0 0 0 0 0 0 0.1 0 0 0 0 0 0 0 0 0 0 0 0 0 0 0 0 0 0 0 0 0 0.1 0 0.1 0 0 0 0 0 0 0 0 0 0 0 0 0 0 0 0 0 0 0 0 0 0.1 0 0.1 0 0 0 0 0 0 0 0 0 0 0 0 0 0 0 0 0 0 0 0 0 0.1 0 0.1 0 0 0 0 0 0.1 0 0.2c-0.4 5.5-5 9.9-10.5 10z"/>
			<path id="path1516" class="s28" d="m210.3 189.4h-4.7v-1.1q1.1 0 2 0.2 1.4 0.3 2.7 0.9z"/>
			<path id="path1518" class="s28" d="m216.1 198.8h-10.5v-4.4h9.5c0.6 1.4 1 2.9 1 4.4z"/>
			<path id="path1520" class="s28" d="m211.9 207.8h-6.3v-4h9.5c-0.8 1.6-1.8 2.9-3.2 4z"/>
		</g>
	</g>
</svg>